G04 #@! TF.GenerationSoftware,KiCad,Pcbnew,(6.0.9)*
G04 #@! TF.CreationDate,2022-12-08T09:34:55+09:00*
G04 #@! TF.ProjectId,EndPCRailBoard-PNLZ,456e6450-4352-4616-996c-426f6172642d,rev?*
G04 #@! TF.SameCoordinates,PX3938700PY1c9c380*
G04 #@! TF.FileFunction,Legend,Bot*
G04 #@! TF.FilePolarity,Positive*
%FSLAX46Y46*%
G04 Gerber Fmt 4.6, Leading zero omitted, Abs format (unit mm)*
G04 Created by KiCad (PCBNEW (6.0.9)) date 2022-12-08 09:34:55*
%MOMM*%
%LPD*%
G01*
G04 APERTURE LIST*
%ADD10C,0.100000*%
G04 APERTURE END LIST*
D10*
X56726190Y-29226190D02*
X56726190Y-28726190D01*
X56678571Y-29035714D02*
X56535714Y-29226190D01*
X56535714Y-28892857D02*
X56726190Y-29083333D01*
X56107142Y-28892857D02*
X56107142Y-29297619D01*
X56130952Y-29345238D01*
X56154761Y-29369047D01*
X56202380Y-29392857D01*
X56273809Y-29392857D01*
X56321428Y-29369047D01*
X56107142Y-29202380D02*
X56154761Y-29226190D01*
X56250000Y-29226190D01*
X56297619Y-29202380D01*
X56321428Y-29178571D01*
X56345238Y-29130952D01*
X56345238Y-28988095D01*
X56321428Y-28940476D01*
X56297619Y-28916666D01*
X56250000Y-28892857D01*
X56154761Y-28892857D01*
X56107142Y-28916666D01*
X55869047Y-29226190D02*
X55869047Y-28726190D01*
X55654761Y-29226190D02*
X55654761Y-28964285D01*
X55678571Y-28916666D01*
X55726190Y-28892857D01*
X55797619Y-28892857D01*
X55845238Y-28916666D01*
X55869047Y-28940476D01*
X55321428Y-28726190D02*
X55273809Y-28726190D01*
X55226190Y-28750000D01*
X55202380Y-28773809D01*
X55178571Y-28821428D01*
X55154761Y-28916666D01*
X55154761Y-29035714D01*
X55178571Y-29130952D01*
X55202380Y-29178571D01*
X55226190Y-29202380D01*
X55273809Y-29226190D01*
X55321428Y-29226190D01*
X55369047Y-29202380D01*
X55392857Y-29178571D01*
X55416666Y-29130952D01*
X55440476Y-29035714D01*
X55440476Y-28916666D01*
X55416666Y-28821428D01*
X55392857Y-28773809D01*
X55369047Y-28750000D01*
X55321428Y-28726190D01*
X54964285Y-28773809D02*
X54940476Y-28750000D01*
X54892857Y-28726190D01*
X54773809Y-28726190D01*
X54726190Y-28750000D01*
X54702380Y-28773809D01*
X54678571Y-28821428D01*
X54678571Y-28869047D01*
X54702380Y-28940476D01*
X54988095Y-29226190D01*
X54678571Y-29226190D01*
X54369047Y-28726190D02*
X54321428Y-28726190D01*
X54273809Y-28750000D01*
X54250000Y-28773809D01*
X54226190Y-28821428D01*
X54202380Y-28916666D01*
X54202380Y-29035714D01*
X54226190Y-29130952D01*
X54250000Y-29178571D01*
X54273809Y-29202380D01*
X54321428Y-29226190D01*
X54369047Y-29226190D01*
X54416666Y-29202380D01*
X54440476Y-29178571D01*
X54464285Y-29130952D01*
X54488095Y-29035714D01*
X54488095Y-28916666D01*
X54464285Y-28821428D01*
X54440476Y-28773809D01*
X54416666Y-28750000D01*
X54369047Y-28726190D01*
X53726190Y-29226190D02*
X54011904Y-29226190D01*
X53869047Y-29226190D02*
X53869047Y-28726190D01*
X53916666Y-28797619D01*
X53964285Y-28845238D01*
X54011904Y-28869047D01*
X53559523Y-28726190D02*
X53226190Y-28726190D01*
X53440476Y-29226190D01*
X14726190Y-9226190D02*
X14726190Y-8726190D01*
X14678571Y-9035714D02*
X14535714Y-9226190D01*
X14535714Y-8892857D02*
X14726190Y-9083333D01*
X14107142Y-8892857D02*
X14107142Y-9297619D01*
X14130952Y-9345238D01*
X14154761Y-9369047D01*
X14202380Y-9392857D01*
X14273809Y-9392857D01*
X14321428Y-9369047D01*
X14107142Y-9202380D02*
X14154761Y-9226190D01*
X14250000Y-9226190D01*
X14297619Y-9202380D01*
X14321428Y-9178571D01*
X14345238Y-9130952D01*
X14345238Y-8988095D01*
X14321428Y-8940476D01*
X14297619Y-8916666D01*
X14250000Y-8892857D01*
X14154761Y-8892857D01*
X14107142Y-8916666D01*
X13869047Y-9226190D02*
X13869047Y-8726190D01*
X13654761Y-9226190D02*
X13654761Y-8964285D01*
X13678571Y-8916666D01*
X13726190Y-8892857D01*
X13797619Y-8892857D01*
X13845238Y-8916666D01*
X13869047Y-8940476D01*
X13321428Y-8726190D02*
X13273809Y-8726190D01*
X13226190Y-8750000D01*
X13202380Y-8773809D01*
X13178571Y-8821428D01*
X13154761Y-8916666D01*
X13154761Y-9035714D01*
X13178571Y-9130952D01*
X13202380Y-9178571D01*
X13226190Y-9202380D01*
X13273809Y-9226190D01*
X13321428Y-9226190D01*
X13369047Y-9202380D01*
X13392857Y-9178571D01*
X13416666Y-9130952D01*
X13440476Y-9035714D01*
X13440476Y-8916666D01*
X13416666Y-8821428D01*
X13392857Y-8773809D01*
X13369047Y-8750000D01*
X13321428Y-8726190D01*
X12964285Y-8773809D02*
X12940476Y-8750000D01*
X12892857Y-8726190D01*
X12773809Y-8726190D01*
X12726190Y-8750000D01*
X12702380Y-8773809D01*
X12678571Y-8821428D01*
X12678571Y-8869047D01*
X12702380Y-8940476D01*
X12988095Y-9226190D01*
X12678571Y-9226190D01*
X12369047Y-8726190D02*
X12321428Y-8726190D01*
X12273809Y-8750000D01*
X12250000Y-8773809D01*
X12226190Y-8821428D01*
X12202380Y-8916666D01*
X12202380Y-9035714D01*
X12226190Y-9130952D01*
X12250000Y-9178571D01*
X12273809Y-9202380D01*
X12321428Y-9226190D01*
X12369047Y-9226190D01*
X12416666Y-9202380D01*
X12440476Y-9178571D01*
X12464285Y-9130952D01*
X12488095Y-9035714D01*
X12488095Y-8916666D01*
X12464285Y-8821428D01*
X12440476Y-8773809D01*
X12416666Y-8750000D01*
X12369047Y-8726190D01*
X11726190Y-9226190D02*
X12011904Y-9226190D01*
X11869047Y-9226190D02*
X11869047Y-8726190D01*
X11916666Y-8797619D01*
X11964285Y-8845238D01*
X12011904Y-8869047D01*
X11559523Y-8726190D02*
X11226190Y-8726190D01*
X11440476Y-9226190D01*
X70726190Y-9226190D02*
X70726190Y-8726190D01*
X70678571Y-9035714D02*
X70535714Y-9226190D01*
X70535714Y-8892857D02*
X70726190Y-9083333D01*
X70107142Y-8892857D02*
X70107142Y-9297619D01*
X70130952Y-9345238D01*
X70154761Y-9369047D01*
X70202380Y-9392857D01*
X70273809Y-9392857D01*
X70321428Y-9369047D01*
X70107142Y-9202380D02*
X70154761Y-9226190D01*
X70250000Y-9226190D01*
X70297619Y-9202380D01*
X70321428Y-9178571D01*
X70345238Y-9130952D01*
X70345238Y-8988095D01*
X70321428Y-8940476D01*
X70297619Y-8916666D01*
X70250000Y-8892857D01*
X70154761Y-8892857D01*
X70107142Y-8916666D01*
X69869047Y-9226190D02*
X69869047Y-8726190D01*
X69654761Y-9226190D02*
X69654761Y-8964285D01*
X69678571Y-8916666D01*
X69726190Y-8892857D01*
X69797619Y-8892857D01*
X69845238Y-8916666D01*
X69869047Y-8940476D01*
X69321428Y-8726190D02*
X69273809Y-8726190D01*
X69226190Y-8750000D01*
X69202380Y-8773809D01*
X69178571Y-8821428D01*
X69154761Y-8916666D01*
X69154761Y-9035714D01*
X69178571Y-9130952D01*
X69202380Y-9178571D01*
X69226190Y-9202380D01*
X69273809Y-9226190D01*
X69321428Y-9226190D01*
X69369047Y-9202380D01*
X69392857Y-9178571D01*
X69416666Y-9130952D01*
X69440476Y-9035714D01*
X69440476Y-8916666D01*
X69416666Y-8821428D01*
X69392857Y-8773809D01*
X69369047Y-8750000D01*
X69321428Y-8726190D01*
X68964285Y-8773809D02*
X68940476Y-8750000D01*
X68892857Y-8726190D01*
X68773809Y-8726190D01*
X68726190Y-8750000D01*
X68702380Y-8773809D01*
X68678571Y-8821428D01*
X68678571Y-8869047D01*
X68702380Y-8940476D01*
X68988095Y-9226190D01*
X68678571Y-9226190D01*
X68369047Y-8726190D02*
X68321428Y-8726190D01*
X68273809Y-8750000D01*
X68250000Y-8773809D01*
X68226190Y-8821428D01*
X68202380Y-8916666D01*
X68202380Y-9035714D01*
X68226190Y-9130952D01*
X68250000Y-9178571D01*
X68273809Y-9202380D01*
X68321428Y-9226190D01*
X68369047Y-9226190D01*
X68416666Y-9202380D01*
X68440476Y-9178571D01*
X68464285Y-9130952D01*
X68488095Y-9035714D01*
X68488095Y-8916666D01*
X68464285Y-8821428D01*
X68440476Y-8773809D01*
X68416666Y-8750000D01*
X68369047Y-8726190D01*
X67726190Y-9226190D02*
X68011904Y-9226190D01*
X67869047Y-9226190D02*
X67869047Y-8726190D01*
X67916666Y-8797619D01*
X67964285Y-8845238D01*
X68011904Y-8869047D01*
X67559523Y-8726190D02*
X67226190Y-8726190D01*
X67440476Y-9226190D01*
X56726190Y-49226190D02*
X56726190Y-48726190D01*
X56678571Y-49035714D02*
X56535714Y-49226190D01*
X56535714Y-48892857D02*
X56726190Y-49083333D01*
X56107142Y-48892857D02*
X56107142Y-49297619D01*
X56130952Y-49345238D01*
X56154761Y-49369047D01*
X56202380Y-49392857D01*
X56273809Y-49392857D01*
X56321428Y-49369047D01*
X56107142Y-49202380D02*
X56154761Y-49226190D01*
X56250000Y-49226190D01*
X56297619Y-49202380D01*
X56321428Y-49178571D01*
X56345238Y-49130952D01*
X56345238Y-48988095D01*
X56321428Y-48940476D01*
X56297619Y-48916666D01*
X56250000Y-48892857D01*
X56154761Y-48892857D01*
X56107142Y-48916666D01*
X55869047Y-49226190D02*
X55869047Y-48726190D01*
X55654761Y-49226190D02*
X55654761Y-48964285D01*
X55678571Y-48916666D01*
X55726190Y-48892857D01*
X55797619Y-48892857D01*
X55845238Y-48916666D01*
X55869047Y-48940476D01*
X55321428Y-48726190D02*
X55273809Y-48726190D01*
X55226190Y-48750000D01*
X55202380Y-48773809D01*
X55178571Y-48821428D01*
X55154761Y-48916666D01*
X55154761Y-49035714D01*
X55178571Y-49130952D01*
X55202380Y-49178571D01*
X55226190Y-49202380D01*
X55273809Y-49226190D01*
X55321428Y-49226190D01*
X55369047Y-49202380D01*
X55392857Y-49178571D01*
X55416666Y-49130952D01*
X55440476Y-49035714D01*
X55440476Y-48916666D01*
X55416666Y-48821428D01*
X55392857Y-48773809D01*
X55369047Y-48750000D01*
X55321428Y-48726190D01*
X54964285Y-48773809D02*
X54940476Y-48750000D01*
X54892857Y-48726190D01*
X54773809Y-48726190D01*
X54726190Y-48750000D01*
X54702380Y-48773809D01*
X54678571Y-48821428D01*
X54678571Y-48869047D01*
X54702380Y-48940476D01*
X54988095Y-49226190D01*
X54678571Y-49226190D01*
X54369047Y-48726190D02*
X54321428Y-48726190D01*
X54273809Y-48750000D01*
X54250000Y-48773809D01*
X54226190Y-48821428D01*
X54202380Y-48916666D01*
X54202380Y-49035714D01*
X54226190Y-49130952D01*
X54250000Y-49178571D01*
X54273809Y-49202380D01*
X54321428Y-49226190D01*
X54369047Y-49226190D01*
X54416666Y-49202380D01*
X54440476Y-49178571D01*
X54464285Y-49130952D01*
X54488095Y-49035714D01*
X54488095Y-48916666D01*
X54464285Y-48821428D01*
X54440476Y-48773809D01*
X54416666Y-48750000D01*
X54369047Y-48726190D01*
X53726190Y-49226190D02*
X54011904Y-49226190D01*
X53869047Y-49226190D02*
X53869047Y-48726190D01*
X53916666Y-48797619D01*
X53964285Y-48845238D01*
X54011904Y-48869047D01*
X53559523Y-48726190D02*
X53226190Y-48726190D01*
X53440476Y-49226190D01*
X42726190Y-69226190D02*
X42726190Y-68726190D01*
X42678571Y-69035714D02*
X42535714Y-69226190D01*
X42535714Y-68892857D02*
X42726190Y-69083333D01*
X42107142Y-68892857D02*
X42107142Y-69297619D01*
X42130952Y-69345238D01*
X42154761Y-69369047D01*
X42202380Y-69392857D01*
X42273809Y-69392857D01*
X42321428Y-69369047D01*
X42107142Y-69202380D02*
X42154761Y-69226190D01*
X42250000Y-69226190D01*
X42297619Y-69202380D01*
X42321428Y-69178571D01*
X42345238Y-69130952D01*
X42345238Y-68988095D01*
X42321428Y-68940476D01*
X42297619Y-68916666D01*
X42250000Y-68892857D01*
X42154761Y-68892857D01*
X42107142Y-68916666D01*
X41869047Y-69226190D02*
X41869047Y-68726190D01*
X41654761Y-69226190D02*
X41654761Y-68964285D01*
X41678571Y-68916666D01*
X41726190Y-68892857D01*
X41797619Y-68892857D01*
X41845238Y-68916666D01*
X41869047Y-68940476D01*
X41321428Y-68726190D02*
X41273809Y-68726190D01*
X41226190Y-68750000D01*
X41202380Y-68773809D01*
X41178571Y-68821428D01*
X41154761Y-68916666D01*
X41154761Y-69035714D01*
X41178571Y-69130952D01*
X41202380Y-69178571D01*
X41226190Y-69202380D01*
X41273809Y-69226190D01*
X41321428Y-69226190D01*
X41369047Y-69202380D01*
X41392857Y-69178571D01*
X41416666Y-69130952D01*
X41440476Y-69035714D01*
X41440476Y-68916666D01*
X41416666Y-68821428D01*
X41392857Y-68773809D01*
X41369047Y-68750000D01*
X41321428Y-68726190D01*
X40964285Y-68773809D02*
X40940476Y-68750000D01*
X40892857Y-68726190D01*
X40773809Y-68726190D01*
X40726190Y-68750000D01*
X40702380Y-68773809D01*
X40678571Y-68821428D01*
X40678571Y-68869047D01*
X40702380Y-68940476D01*
X40988095Y-69226190D01*
X40678571Y-69226190D01*
X40369047Y-68726190D02*
X40321428Y-68726190D01*
X40273809Y-68750000D01*
X40250000Y-68773809D01*
X40226190Y-68821428D01*
X40202380Y-68916666D01*
X40202380Y-69035714D01*
X40226190Y-69130952D01*
X40250000Y-69178571D01*
X40273809Y-69202380D01*
X40321428Y-69226190D01*
X40369047Y-69226190D01*
X40416666Y-69202380D01*
X40440476Y-69178571D01*
X40464285Y-69130952D01*
X40488095Y-69035714D01*
X40488095Y-68916666D01*
X40464285Y-68821428D01*
X40440476Y-68773809D01*
X40416666Y-68750000D01*
X40369047Y-68726190D01*
X39726190Y-69226190D02*
X40011904Y-69226190D01*
X39869047Y-69226190D02*
X39869047Y-68726190D01*
X39916666Y-68797619D01*
X39964285Y-68845238D01*
X40011904Y-68869047D01*
X39559523Y-68726190D02*
X39226190Y-68726190D01*
X39440476Y-69226190D01*
X84726190Y-49226190D02*
X84726190Y-48726190D01*
X84678571Y-49035714D02*
X84535714Y-49226190D01*
X84535714Y-48892857D02*
X84726190Y-49083333D01*
X84107142Y-48892857D02*
X84107142Y-49297619D01*
X84130952Y-49345238D01*
X84154761Y-49369047D01*
X84202380Y-49392857D01*
X84273809Y-49392857D01*
X84321428Y-49369047D01*
X84107142Y-49202380D02*
X84154761Y-49226190D01*
X84250000Y-49226190D01*
X84297619Y-49202380D01*
X84321428Y-49178571D01*
X84345238Y-49130952D01*
X84345238Y-48988095D01*
X84321428Y-48940476D01*
X84297619Y-48916666D01*
X84250000Y-48892857D01*
X84154761Y-48892857D01*
X84107142Y-48916666D01*
X83869047Y-49226190D02*
X83869047Y-48726190D01*
X83654761Y-49226190D02*
X83654761Y-48964285D01*
X83678571Y-48916666D01*
X83726190Y-48892857D01*
X83797619Y-48892857D01*
X83845238Y-48916666D01*
X83869047Y-48940476D01*
X83321428Y-48726190D02*
X83273809Y-48726190D01*
X83226190Y-48750000D01*
X83202380Y-48773809D01*
X83178571Y-48821428D01*
X83154761Y-48916666D01*
X83154761Y-49035714D01*
X83178571Y-49130952D01*
X83202380Y-49178571D01*
X83226190Y-49202380D01*
X83273809Y-49226190D01*
X83321428Y-49226190D01*
X83369047Y-49202380D01*
X83392857Y-49178571D01*
X83416666Y-49130952D01*
X83440476Y-49035714D01*
X83440476Y-48916666D01*
X83416666Y-48821428D01*
X83392857Y-48773809D01*
X83369047Y-48750000D01*
X83321428Y-48726190D01*
X82964285Y-48773809D02*
X82940476Y-48750000D01*
X82892857Y-48726190D01*
X82773809Y-48726190D01*
X82726190Y-48750000D01*
X82702380Y-48773809D01*
X82678571Y-48821428D01*
X82678571Y-48869047D01*
X82702380Y-48940476D01*
X82988095Y-49226190D01*
X82678571Y-49226190D01*
X82369047Y-48726190D02*
X82321428Y-48726190D01*
X82273809Y-48750000D01*
X82250000Y-48773809D01*
X82226190Y-48821428D01*
X82202380Y-48916666D01*
X82202380Y-49035714D01*
X82226190Y-49130952D01*
X82250000Y-49178571D01*
X82273809Y-49202380D01*
X82321428Y-49226190D01*
X82369047Y-49226190D01*
X82416666Y-49202380D01*
X82440476Y-49178571D01*
X82464285Y-49130952D01*
X82488095Y-49035714D01*
X82488095Y-48916666D01*
X82464285Y-48821428D01*
X82440476Y-48773809D01*
X82416666Y-48750000D01*
X82369047Y-48726190D01*
X81726190Y-49226190D02*
X82011904Y-49226190D01*
X81869047Y-49226190D02*
X81869047Y-48726190D01*
X81916666Y-48797619D01*
X81964285Y-48845238D01*
X82011904Y-48869047D01*
X81559523Y-48726190D02*
X81226190Y-48726190D01*
X81440476Y-49226190D01*
X42726190Y-29226190D02*
X42726190Y-28726190D01*
X42678571Y-29035714D02*
X42535714Y-29226190D01*
X42535714Y-28892857D02*
X42726190Y-29083333D01*
X42107142Y-28892857D02*
X42107142Y-29297619D01*
X42130952Y-29345238D01*
X42154761Y-29369047D01*
X42202380Y-29392857D01*
X42273809Y-29392857D01*
X42321428Y-29369047D01*
X42107142Y-29202380D02*
X42154761Y-29226190D01*
X42250000Y-29226190D01*
X42297619Y-29202380D01*
X42321428Y-29178571D01*
X42345238Y-29130952D01*
X42345238Y-28988095D01*
X42321428Y-28940476D01*
X42297619Y-28916666D01*
X42250000Y-28892857D01*
X42154761Y-28892857D01*
X42107142Y-28916666D01*
X41869047Y-29226190D02*
X41869047Y-28726190D01*
X41654761Y-29226190D02*
X41654761Y-28964285D01*
X41678571Y-28916666D01*
X41726190Y-28892857D01*
X41797619Y-28892857D01*
X41845238Y-28916666D01*
X41869047Y-28940476D01*
X41321428Y-28726190D02*
X41273809Y-28726190D01*
X41226190Y-28750000D01*
X41202380Y-28773809D01*
X41178571Y-28821428D01*
X41154761Y-28916666D01*
X41154761Y-29035714D01*
X41178571Y-29130952D01*
X41202380Y-29178571D01*
X41226190Y-29202380D01*
X41273809Y-29226190D01*
X41321428Y-29226190D01*
X41369047Y-29202380D01*
X41392857Y-29178571D01*
X41416666Y-29130952D01*
X41440476Y-29035714D01*
X41440476Y-28916666D01*
X41416666Y-28821428D01*
X41392857Y-28773809D01*
X41369047Y-28750000D01*
X41321428Y-28726190D01*
X40964285Y-28773809D02*
X40940476Y-28750000D01*
X40892857Y-28726190D01*
X40773809Y-28726190D01*
X40726190Y-28750000D01*
X40702380Y-28773809D01*
X40678571Y-28821428D01*
X40678571Y-28869047D01*
X40702380Y-28940476D01*
X40988095Y-29226190D01*
X40678571Y-29226190D01*
X40369047Y-28726190D02*
X40321428Y-28726190D01*
X40273809Y-28750000D01*
X40250000Y-28773809D01*
X40226190Y-28821428D01*
X40202380Y-28916666D01*
X40202380Y-29035714D01*
X40226190Y-29130952D01*
X40250000Y-29178571D01*
X40273809Y-29202380D01*
X40321428Y-29226190D01*
X40369047Y-29226190D01*
X40416666Y-29202380D01*
X40440476Y-29178571D01*
X40464285Y-29130952D01*
X40488095Y-29035714D01*
X40488095Y-28916666D01*
X40464285Y-28821428D01*
X40440476Y-28773809D01*
X40416666Y-28750000D01*
X40369047Y-28726190D01*
X39726190Y-29226190D02*
X40011904Y-29226190D01*
X39869047Y-29226190D02*
X39869047Y-28726190D01*
X39916666Y-28797619D01*
X39964285Y-28845238D01*
X40011904Y-28869047D01*
X39559523Y-28726190D02*
X39226190Y-28726190D01*
X39440476Y-29226190D01*
X42726190Y-49226190D02*
X42726190Y-48726190D01*
X42678571Y-49035714D02*
X42535714Y-49226190D01*
X42535714Y-48892857D02*
X42726190Y-49083333D01*
X42107142Y-48892857D02*
X42107142Y-49297619D01*
X42130952Y-49345238D01*
X42154761Y-49369047D01*
X42202380Y-49392857D01*
X42273809Y-49392857D01*
X42321428Y-49369047D01*
X42107142Y-49202380D02*
X42154761Y-49226190D01*
X42250000Y-49226190D01*
X42297619Y-49202380D01*
X42321428Y-49178571D01*
X42345238Y-49130952D01*
X42345238Y-48988095D01*
X42321428Y-48940476D01*
X42297619Y-48916666D01*
X42250000Y-48892857D01*
X42154761Y-48892857D01*
X42107142Y-48916666D01*
X41869047Y-49226190D02*
X41869047Y-48726190D01*
X41654761Y-49226190D02*
X41654761Y-48964285D01*
X41678571Y-48916666D01*
X41726190Y-48892857D01*
X41797619Y-48892857D01*
X41845238Y-48916666D01*
X41869047Y-48940476D01*
X41321428Y-48726190D02*
X41273809Y-48726190D01*
X41226190Y-48750000D01*
X41202380Y-48773809D01*
X41178571Y-48821428D01*
X41154761Y-48916666D01*
X41154761Y-49035714D01*
X41178571Y-49130952D01*
X41202380Y-49178571D01*
X41226190Y-49202380D01*
X41273809Y-49226190D01*
X41321428Y-49226190D01*
X41369047Y-49202380D01*
X41392857Y-49178571D01*
X41416666Y-49130952D01*
X41440476Y-49035714D01*
X41440476Y-48916666D01*
X41416666Y-48821428D01*
X41392857Y-48773809D01*
X41369047Y-48750000D01*
X41321428Y-48726190D01*
X40964285Y-48773809D02*
X40940476Y-48750000D01*
X40892857Y-48726190D01*
X40773809Y-48726190D01*
X40726190Y-48750000D01*
X40702380Y-48773809D01*
X40678571Y-48821428D01*
X40678571Y-48869047D01*
X40702380Y-48940476D01*
X40988095Y-49226190D01*
X40678571Y-49226190D01*
X40369047Y-48726190D02*
X40321428Y-48726190D01*
X40273809Y-48750000D01*
X40250000Y-48773809D01*
X40226190Y-48821428D01*
X40202380Y-48916666D01*
X40202380Y-49035714D01*
X40226190Y-49130952D01*
X40250000Y-49178571D01*
X40273809Y-49202380D01*
X40321428Y-49226190D01*
X40369047Y-49226190D01*
X40416666Y-49202380D01*
X40440476Y-49178571D01*
X40464285Y-49130952D01*
X40488095Y-49035714D01*
X40488095Y-48916666D01*
X40464285Y-48821428D01*
X40440476Y-48773809D01*
X40416666Y-48750000D01*
X40369047Y-48726190D01*
X39726190Y-49226190D02*
X40011904Y-49226190D01*
X39869047Y-49226190D02*
X39869047Y-48726190D01*
X39916666Y-48797619D01*
X39964285Y-48845238D01*
X40011904Y-48869047D01*
X39559523Y-48726190D02*
X39226190Y-48726190D01*
X39440476Y-49226190D01*
X84726190Y-69226190D02*
X84726190Y-68726190D01*
X84678571Y-69035714D02*
X84535714Y-69226190D01*
X84535714Y-68892857D02*
X84726190Y-69083333D01*
X84107142Y-68892857D02*
X84107142Y-69297619D01*
X84130952Y-69345238D01*
X84154761Y-69369047D01*
X84202380Y-69392857D01*
X84273809Y-69392857D01*
X84321428Y-69369047D01*
X84107142Y-69202380D02*
X84154761Y-69226190D01*
X84250000Y-69226190D01*
X84297619Y-69202380D01*
X84321428Y-69178571D01*
X84345238Y-69130952D01*
X84345238Y-68988095D01*
X84321428Y-68940476D01*
X84297619Y-68916666D01*
X84250000Y-68892857D01*
X84154761Y-68892857D01*
X84107142Y-68916666D01*
X83869047Y-69226190D02*
X83869047Y-68726190D01*
X83654761Y-69226190D02*
X83654761Y-68964285D01*
X83678571Y-68916666D01*
X83726190Y-68892857D01*
X83797619Y-68892857D01*
X83845238Y-68916666D01*
X83869047Y-68940476D01*
X83321428Y-68726190D02*
X83273809Y-68726190D01*
X83226190Y-68750000D01*
X83202380Y-68773809D01*
X83178571Y-68821428D01*
X83154761Y-68916666D01*
X83154761Y-69035714D01*
X83178571Y-69130952D01*
X83202380Y-69178571D01*
X83226190Y-69202380D01*
X83273809Y-69226190D01*
X83321428Y-69226190D01*
X83369047Y-69202380D01*
X83392857Y-69178571D01*
X83416666Y-69130952D01*
X83440476Y-69035714D01*
X83440476Y-68916666D01*
X83416666Y-68821428D01*
X83392857Y-68773809D01*
X83369047Y-68750000D01*
X83321428Y-68726190D01*
X82964285Y-68773809D02*
X82940476Y-68750000D01*
X82892857Y-68726190D01*
X82773809Y-68726190D01*
X82726190Y-68750000D01*
X82702380Y-68773809D01*
X82678571Y-68821428D01*
X82678571Y-68869047D01*
X82702380Y-68940476D01*
X82988095Y-69226190D01*
X82678571Y-69226190D01*
X82369047Y-68726190D02*
X82321428Y-68726190D01*
X82273809Y-68750000D01*
X82250000Y-68773809D01*
X82226190Y-68821428D01*
X82202380Y-68916666D01*
X82202380Y-69035714D01*
X82226190Y-69130952D01*
X82250000Y-69178571D01*
X82273809Y-69202380D01*
X82321428Y-69226190D01*
X82369047Y-69226190D01*
X82416666Y-69202380D01*
X82440476Y-69178571D01*
X82464285Y-69130952D01*
X82488095Y-69035714D01*
X82488095Y-68916666D01*
X82464285Y-68821428D01*
X82440476Y-68773809D01*
X82416666Y-68750000D01*
X82369047Y-68726190D01*
X81726190Y-69226190D02*
X82011904Y-69226190D01*
X81869047Y-69226190D02*
X81869047Y-68726190D01*
X81916666Y-68797619D01*
X81964285Y-68845238D01*
X82011904Y-68869047D01*
X81559523Y-68726190D02*
X81226190Y-68726190D01*
X81440476Y-69226190D01*
X70726190Y-29226190D02*
X70726190Y-28726190D01*
X70678571Y-29035714D02*
X70535714Y-29226190D01*
X70535714Y-28892857D02*
X70726190Y-29083333D01*
X70107142Y-28892857D02*
X70107142Y-29297619D01*
X70130952Y-29345238D01*
X70154761Y-29369047D01*
X70202380Y-29392857D01*
X70273809Y-29392857D01*
X70321428Y-29369047D01*
X70107142Y-29202380D02*
X70154761Y-29226190D01*
X70250000Y-29226190D01*
X70297619Y-29202380D01*
X70321428Y-29178571D01*
X70345238Y-29130952D01*
X70345238Y-28988095D01*
X70321428Y-28940476D01*
X70297619Y-28916666D01*
X70250000Y-28892857D01*
X70154761Y-28892857D01*
X70107142Y-28916666D01*
X69869047Y-29226190D02*
X69869047Y-28726190D01*
X69654761Y-29226190D02*
X69654761Y-28964285D01*
X69678571Y-28916666D01*
X69726190Y-28892857D01*
X69797619Y-28892857D01*
X69845238Y-28916666D01*
X69869047Y-28940476D01*
X69321428Y-28726190D02*
X69273809Y-28726190D01*
X69226190Y-28750000D01*
X69202380Y-28773809D01*
X69178571Y-28821428D01*
X69154761Y-28916666D01*
X69154761Y-29035714D01*
X69178571Y-29130952D01*
X69202380Y-29178571D01*
X69226190Y-29202380D01*
X69273809Y-29226190D01*
X69321428Y-29226190D01*
X69369047Y-29202380D01*
X69392857Y-29178571D01*
X69416666Y-29130952D01*
X69440476Y-29035714D01*
X69440476Y-28916666D01*
X69416666Y-28821428D01*
X69392857Y-28773809D01*
X69369047Y-28750000D01*
X69321428Y-28726190D01*
X68964285Y-28773809D02*
X68940476Y-28750000D01*
X68892857Y-28726190D01*
X68773809Y-28726190D01*
X68726190Y-28750000D01*
X68702380Y-28773809D01*
X68678571Y-28821428D01*
X68678571Y-28869047D01*
X68702380Y-28940476D01*
X68988095Y-29226190D01*
X68678571Y-29226190D01*
X68369047Y-28726190D02*
X68321428Y-28726190D01*
X68273809Y-28750000D01*
X68250000Y-28773809D01*
X68226190Y-28821428D01*
X68202380Y-28916666D01*
X68202380Y-29035714D01*
X68226190Y-29130952D01*
X68250000Y-29178571D01*
X68273809Y-29202380D01*
X68321428Y-29226190D01*
X68369047Y-29226190D01*
X68416666Y-29202380D01*
X68440476Y-29178571D01*
X68464285Y-29130952D01*
X68488095Y-29035714D01*
X68488095Y-28916666D01*
X68464285Y-28821428D01*
X68440476Y-28773809D01*
X68416666Y-28750000D01*
X68369047Y-28726190D01*
X67726190Y-29226190D02*
X68011904Y-29226190D01*
X67869047Y-29226190D02*
X67869047Y-28726190D01*
X67916666Y-28797619D01*
X67964285Y-28845238D01*
X68011904Y-28869047D01*
X67559523Y-28726190D02*
X67226190Y-28726190D01*
X67440476Y-29226190D01*
X28726190Y-29226190D02*
X28726190Y-28726190D01*
X28678571Y-29035714D02*
X28535714Y-29226190D01*
X28535714Y-28892857D02*
X28726190Y-29083333D01*
X28107142Y-28892857D02*
X28107142Y-29297619D01*
X28130952Y-29345238D01*
X28154761Y-29369047D01*
X28202380Y-29392857D01*
X28273809Y-29392857D01*
X28321428Y-29369047D01*
X28107142Y-29202380D02*
X28154761Y-29226190D01*
X28250000Y-29226190D01*
X28297619Y-29202380D01*
X28321428Y-29178571D01*
X28345238Y-29130952D01*
X28345238Y-28988095D01*
X28321428Y-28940476D01*
X28297619Y-28916666D01*
X28250000Y-28892857D01*
X28154761Y-28892857D01*
X28107142Y-28916666D01*
X27869047Y-29226190D02*
X27869047Y-28726190D01*
X27654761Y-29226190D02*
X27654761Y-28964285D01*
X27678571Y-28916666D01*
X27726190Y-28892857D01*
X27797619Y-28892857D01*
X27845238Y-28916666D01*
X27869047Y-28940476D01*
X27321428Y-28726190D02*
X27273809Y-28726190D01*
X27226190Y-28750000D01*
X27202380Y-28773809D01*
X27178571Y-28821428D01*
X27154761Y-28916666D01*
X27154761Y-29035714D01*
X27178571Y-29130952D01*
X27202380Y-29178571D01*
X27226190Y-29202380D01*
X27273809Y-29226190D01*
X27321428Y-29226190D01*
X27369047Y-29202380D01*
X27392857Y-29178571D01*
X27416666Y-29130952D01*
X27440476Y-29035714D01*
X27440476Y-28916666D01*
X27416666Y-28821428D01*
X27392857Y-28773809D01*
X27369047Y-28750000D01*
X27321428Y-28726190D01*
X26964285Y-28773809D02*
X26940476Y-28750000D01*
X26892857Y-28726190D01*
X26773809Y-28726190D01*
X26726190Y-28750000D01*
X26702380Y-28773809D01*
X26678571Y-28821428D01*
X26678571Y-28869047D01*
X26702380Y-28940476D01*
X26988095Y-29226190D01*
X26678571Y-29226190D01*
X26369047Y-28726190D02*
X26321428Y-28726190D01*
X26273809Y-28750000D01*
X26250000Y-28773809D01*
X26226190Y-28821428D01*
X26202380Y-28916666D01*
X26202380Y-29035714D01*
X26226190Y-29130952D01*
X26250000Y-29178571D01*
X26273809Y-29202380D01*
X26321428Y-29226190D01*
X26369047Y-29226190D01*
X26416666Y-29202380D01*
X26440476Y-29178571D01*
X26464285Y-29130952D01*
X26488095Y-29035714D01*
X26488095Y-28916666D01*
X26464285Y-28821428D01*
X26440476Y-28773809D01*
X26416666Y-28750000D01*
X26369047Y-28726190D01*
X25726190Y-29226190D02*
X26011904Y-29226190D01*
X25869047Y-29226190D02*
X25869047Y-28726190D01*
X25916666Y-28797619D01*
X25964285Y-28845238D01*
X26011904Y-28869047D01*
X25559523Y-28726190D02*
X25226190Y-28726190D01*
X25440476Y-29226190D01*
X56726190Y-69226190D02*
X56726190Y-68726190D01*
X56678571Y-69035714D02*
X56535714Y-69226190D01*
X56535714Y-68892857D02*
X56726190Y-69083333D01*
X56107142Y-68892857D02*
X56107142Y-69297619D01*
X56130952Y-69345238D01*
X56154761Y-69369047D01*
X56202380Y-69392857D01*
X56273809Y-69392857D01*
X56321428Y-69369047D01*
X56107142Y-69202380D02*
X56154761Y-69226190D01*
X56250000Y-69226190D01*
X56297619Y-69202380D01*
X56321428Y-69178571D01*
X56345238Y-69130952D01*
X56345238Y-68988095D01*
X56321428Y-68940476D01*
X56297619Y-68916666D01*
X56250000Y-68892857D01*
X56154761Y-68892857D01*
X56107142Y-68916666D01*
X55869047Y-69226190D02*
X55869047Y-68726190D01*
X55654761Y-69226190D02*
X55654761Y-68964285D01*
X55678571Y-68916666D01*
X55726190Y-68892857D01*
X55797619Y-68892857D01*
X55845238Y-68916666D01*
X55869047Y-68940476D01*
X55321428Y-68726190D02*
X55273809Y-68726190D01*
X55226190Y-68750000D01*
X55202380Y-68773809D01*
X55178571Y-68821428D01*
X55154761Y-68916666D01*
X55154761Y-69035714D01*
X55178571Y-69130952D01*
X55202380Y-69178571D01*
X55226190Y-69202380D01*
X55273809Y-69226190D01*
X55321428Y-69226190D01*
X55369047Y-69202380D01*
X55392857Y-69178571D01*
X55416666Y-69130952D01*
X55440476Y-69035714D01*
X55440476Y-68916666D01*
X55416666Y-68821428D01*
X55392857Y-68773809D01*
X55369047Y-68750000D01*
X55321428Y-68726190D01*
X54964285Y-68773809D02*
X54940476Y-68750000D01*
X54892857Y-68726190D01*
X54773809Y-68726190D01*
X54726190Y-68750000D01*
X54702380Y-68773809D01*
X54678571Y-68821428D01*
X54678571Y-68869047D01*
X54702380Y-68940476D01*
X54988095Y-69226190D01*
X54678571Y-69226190D01*
X54369047Y-68726190D02*
X54321428Y-68726190D01*
X54273809Y-68750000D01*
X54250000Y-68773809D01*
X54226190Y-68821428D01*
X54202380Y-68916666D01*
X54202380Y-69035714D01*
X54226190Y-69130952D01*
X54250000Y-69178571D01*
X54273809Y-69202380D01*
X54321428Y-69226190D01*
X54369047Y-69226190D01*
X54416666Y-69202380D01*
X54440476Y-69178571D01*
X54464285Y-69130952D01*
X54488095Y-69035714D01*
X54488095Y-68916666D01*
X54464285Y-68821428D01*
X54440476Y-68773809D01*
X54416666Y-68750000D01*
X54369047Y-68726190D01*
X53726190Y-69226190D02*
X54011904Y-69226190D01*
X53869047Y-69226190D02*
X53869047Y-68726190D01*
X53916666Y-68797619D01*
X53964285Y-68845238D01*
X54011904Y-68869047D01*
X53559523Y-68726190D02*
X53226190Y-68726190D01*
X53440476Y-69226190D01*
X70726190Y-69226190D02*
X70726190Y-68726190D01*
X70678571Y-69035714D02*
X70535714Y-69226190D01*
X70535714Y-68892857D02*
X70726190Y-69083333D01*
X70107142Y-68892857D02*
X70107142Y-69297619D01*
X70130952Y-69345238D01*
X70154761Y-69369047D01*
X70202380Y-69392857D01*
X70273809Y-69392857D01*
X70321428Y-69369047D01*
X70107142Y-69202380D02*
X70154761Y-69226190D01*
X70250000Y-69226190D01*
X70297619Y-69202380D01*
X70321428Y-69178571D01*
X70345238Y-69130952D01*
X70345238Y-68988095D01*
X70321428Y-68940476D01*
X70297619Y-68916666D01*
X70250000Y-68892857D01*
X70154761Y-68892857D01*
X70107142Y-68916666D01*
X69869047Y-69226190D02*
X69869047Y-68726190D01*
X69654761Y-69226190D02*
X69654761Y-68964285D01*
X69678571Y-68916666D01*
X69726190Y-68892857D01*
X69797619Y-68892857D01*
X69845238Y-68916666D01*
X69869047Y-68940476D01*
X69321428Y-68726190D02*
X69273809Y-68726190D01*
X69226190Y-68750000D01*
X69202380Y-68773809D01*
X69178571Y-68821428D01*
X69154761Y-68916666D01*
X69154761Y-69035714D01*
X69178571Y-69130952D01*
X69202380Y-69178571D01*
X69226190Y-69202380D01*
X69273809Y-69226190D01*
X69321428Y-69226190D01*
X69369047Y-69202380D01*
X69392857Y-69178571D01*
X69416666Y-69130952D01*
X69440476Y-69035714D01*
X69440476Y-68916666D01*
X69416666Y-68821428D01*
X69392857Y-68773809D01*
X69369047Y-68750000D01*
X69321428Y-68726190D01*
X68964285Y-68773809D02*
X68940476Y-68750000D01*
X68892857Y-68726190D01*
X68773809Y-68726190D01*
X68726190Y-68750000D01*
X68702380Y-68773809D01*
X68678571Y-68821428D01*
X68678571Y-68869047D01*
X68702380Y-68940476D01*
X68988095Y-69226190D01*
X68678571Y-69226190D01*
X68369047Y-68726190D02*
X68321428Y-68726190D01*
X68273809Y-68750000D01*
X68250000Y-68773809D01*
X68226190Y-68821428D01*
X68202380Y-68916666D01*
X68202380Y-69035714D01*
X68226190Y-69130952D01*
X68250000Y-69178571D01*
X68273809Y-69202380D01*
X68321428Y-69226190D01*
X68369047Y-69226190D01*
X68416666Y-69202380D01*
X68440476Y-69178571D01*
X68464285Y-69130952D01*
X68488095Y-69035714D01*
X68488095Y-68916666D01*
X68464285Y-68821428D01*
X68440476Y-68773809D01*
X68416666Y-68750000D01*
X68369047Y-68726190D01*
X67726190Y-69226190D02*
X68011904Y-69226190D01*
X67869047Y-69226190D02*
X67869047Y-68726190D01*
X67916666Y-68797619D01*
X67964285Y-68845238D01*
X68011904Y-68869047D01*
X67559523Y-68726190D02*
X67226190Y-68726190D01*
X67440476Y-69226190D01*
X84726190Y-9226190D02*
X84726190Y-8726190D01*
X84678571Y-9035714D02*
X84535714Y-9226190D01*
X84535714Y-8892857D02*
X84726190Y-9083333D01*
X84107142Y-8892857D02*
X84107142Y-9297619D01*
X84130952Y-9345238D01*
X84154761Y-9369047D01*
X84202380Y-9392857D01*
X84273809Y-9392857D01*
X84321428Y-9369047D01*
X84107142Y-9202380D02*
X84154761Y-9226190D01*
X84250000Y-9226190D01*
X84297619Y-9202380D01*
X84321428Y-9178571D01*
X84345238Y-9130952D01*
X84345238Y-8988095D01*
X84321428Y-8940476D01*
X84297619Y-8916666D01*
X84250000Y-8892857D01*
X84154761Y-8892857D01*
X84107142Y-8916666D01*
X83869047Y-9226190D02*
X83869047Y-8726190D01*
X83654761Y-9226190D02*
X83654761Y-8964285D01*
X83678571Y-8916666D01*
X83726190Y-8892857D01*
X83797619Y-8892857D01*
X83845238Y-8916666D01*
X83869047Y-8940476D01*
X83321428Y-8726190D02*
X83273809Y-8726190D01*
X83226190Y-8750000D01*
X83202380Y-8773809D01*
X83178571Y-8821428D01*
X83154761Y-8916666D01*
X83154761Y-9035714D01*
X83178571Y-9130952D01*
X83202380Y-9178571D01*
X83226190Y-9202380D01*
X83273809Y-9226190D01*
X83321428Y-9226190D01*
X83369047Y-9202380D01*
X83392857Y-9178571D01*
X83416666Y-9130952D01*
X83440476Y-9035714D01*
X83440476Y-8916666D01*
X83416666Y-8821428D01*
X83392857Y-8773809D01*
X83369047Y-8750000D01*
X83321428Y-8726190D01*
X82964285Y-8773809D02*
X82940476Y-8750000D01*
X82892857Y-8726190D01*
X82773809Y-8726190D01*
X82726190Y-8750000D01*
X82702380Y-8773809D01*
X82678571Y-8821428D01*
X82678571Y-8869047D01*
X82702380Y-8940476D01*
X82988095Y-9226190D01*
X82678571Y-9226190D01*
X82369047Y-8726190D02*
X82321428Y-8726190D01*
X82273809Y-8750000D01*
X82250000Y-8773809D01*
X82226190Y-8821428D01*
X82202380Y-8916666D01*
X82202380Y-9035714D01*
X82226190Y-9130952D01*
X82250000Y-9178571D01*
X82273809Y-9202380D01*
X82321428Y-9226190D01*
X82369047Y-9226190D01*
X82416666Y-9202380D01*
X82440476Y-9178571D01*
X82464285Y-9130952D01*
X82488095Y-9035714D01*
X82488095Y-8916666D01*
X82464285Y-8821428D01*
X82440476Y-8773809D01*
X82416666Y-8750000D01*
X82369047Y-8726190D01*
X81726190Y-9226190D02*
X82011904Y-9226190D01*
X81869047Y-9226190D02*
X81869047Y-8726190D01*
X81916666Y-8797619D01*
X81964285Y-8845238D01*
X82011904Y-8869047D01*
X81559523Y-8726190D02*
X81226190Y-8726190D01*
X81440476Y-9226190D01*
X28726190Y-69226190D02*
X28726190Y-68726190D01*
X28678571Y-69035714D02*
X28535714Y-69226190D01*
X28535714Y-68892857D02*
X28726190Y-69083333D01*
X28107142Y-68892857D02*
X28107142Y-69297619D01*
X28130952Y-69345238D01*
X28154761Y-69369047D01*
X28202380Y-69392857D01*
X28273809Y-69392857D01*
X28321428Y-69369047D01*
X28107142Y-69202380D02*
X28154761Y-69226190D01*
X28250000Y-69226190D01*
X28297619Y-69202380D01*
X28321428Y-69178571D01*
X28345238Y-69130952D01*
X28345238Y-68988095D01*
X28321428Y-68940476D01*
X28297619Y-68916666D01*
X28250000Y-68892857D01*
X28154761Y-68892857D01*
X28107142Y-68916666D01*
X27869047Y-69226190D02*
X27869047Y-68726190D01*
X27654761Y-69226190D02*
X27654761Y-68964285D01*
X27678571Y-68916666D01*
X27726190Y-68892857D01*
X27797619Y-68892857D01*
X27845238Y-68916666D01*
X27869047Y-68940476D01*
X27321428Y-68726190D02*
X27273809Y-68726190D01*
X27226190Y-68750000D01*
X27202380Y-68773809D01*
X27178571Y-68821428D01*
X27154761Y-68916666D01*
X27154761Y-69035714D01*
X27178571Y-69130952D01*
X27202380Y-69178571D01*
X27226190Y-69202380D01*
X27273809Y-69226190D01*
X27321428Y-69226190D01*
X27369047Y-69202380D01*
X27392857Y-69178571D01*
X27416666Y-69130952D01*
X27440476Y-69035714D01*
X27440476Y-68916666D01*
X27416666Y-68821428D01*
X27392857Y-68773809D01*
X27369047Y-68750000D01*
X27321428Y-68726190D01*
X26964285Y-68773809D02*
X26940476Y-68750000D01*
X26892857Y-68726190D01*
X26773809Y-68726190D01*
X26726190Y-68750000D01*
X26702380Y-68773809D01*
X26678571Y-68821428D01*
X26678571Y-68869047D01*
X26702380Y-68940476D01*
X26988095Y-69226190D01*
X26678571Y-69226190D01*
X26369047Y-68726190D02*
X26321428Y-68726190D01*
X26273809Y-68750000D01*
X26250000Y-68773809D01*
X26226190Y-68821428D01*
X26202380Y-68916666D01*
X26202380Y-69035714D01*
X26226190Y-69130952D01*
X26250000Y-69178571D01*
X26273809Y-69202380D01*
X26321428Y-69226190D01*
X26369047Y-69226190D01*
X26416666Y-69202380D01*
X26440476Y-69178571D01*
X26464285Y-69130952D01*
X26488095Y-69035714D01*
X26488095Y-68916666D01*
X26464285Y-68821428D01*
X26440476Y-68773809D01*
X26416666Y-68750000D01*
X26369047Y-68726190D01*
X25726190Y-69226190D02*
X26011904Y-69226190D01*
X25869047Y-69226190D02*
X25869047Y-68726190D01*
X25916666Y-68797619D01*
X25964285Y-68845238D01*
X26011904Y-68869047D01*
X25559523Y-68726190D02*
X25226190Y-68726190D01*
X25440476Y-69226190D01*
X14726190Y-29226190D02*
X14726190Y-28726190D01*
X14678571Y-29035714D02*
X14535714Y-29226190D01*
X14535714Y-28892857D02*
X14726190Y-29083333D01*
X14107142Y-28892857D02*
X14107142Y-29297619D01*
X14130952Y-29345238D01*
X14154761Y-29369047D01*
X14202380Y-29392857D01*
X14273809Y-29392857D01*
X14321428Y-29369047D01*
X14107142Y-29202380D02*
X14154761Y-29226190D01*
X14250000Y-29226190D01*
X14297619Y-29202380D01*
X14321428Y-29178571D01*
X14345238Y-29130952D01*
X14345238Y-28988095D01*
X14321428Y-28940476D01*
X14297619Y-28916666D01*
X14250000Y-28892857D01*
X14154761Y-28892857D01*
X14107142Y-28916666D01*
X13869047Y-29226190D02*
X13869047Y-28726190D01*
X13654761Y-29226190D02*
X13654761Y-28964285D01*
X13678571Y-28916666D01*
X13726190Y-28892857D01*
X13797619Y-28892857D01*
X13845238Y-28916666D01*
X13869047Y-28940476D01*
X13321428Y-28726190D02*
X13273809Y-28726190D01*
X13226190Y-28750000D01*
X13202380Y-28773809D01*
X13178571Y-28821428D01*
X13154761Y-28916666D01*
X13154761Y-29035714D01*
X13178571Y-29130952D01*
X13202380Y-29178571D01*
X13226190Y-29202380D01*
X13273809Y-29226190D01*
X13321428Y-29226190D01*
X13369047Y-29202380D01*
X13392857Y-29178571D01*
X13416666Y-29130952D01*
X13440476Y-29035714D01*
X13440476Y-28916666D01*
X13416666Y-28821428D01*
X13392857Y-28773809D01*
X13369047Y-28750000D01*
X13321428Y-28726190D01*
X12964285Y-28773809D02*
X12940476Y-28750000D01*
X12892857Y-28726190D01*
X12773809Y-28726190D01*
X12726190Y-28750000D01*
X12702380Y-28773809D01*
X12678571Y-28821428D01*
X12678571Y-28869047D01*
X12702380Y-28940476D01*
X12988095Y-29226190D01*
X12678571Y-29226190D01*
X12369047Y-28726190D02*
X12321428Y-28726190D01*
X12273809Y-28750000D01*
X12250000Y-28773809D01*
X12226190Y-28821428D01*
X12202380Y-28916666D01*
X12202380Y-29035714D01*
X12226190Y-29130952D01*
X12250000Y-29178571D01*
X12273809Y-29202380D01*
X12321428Y-29226190D01*
X12369047Y-29226190D01*
X12416666Y-29202380D01*
X12440476Y-29178571D01*
X12464285Y-29130952D01*
X12488095Y-29035714D01*
X12488095Y-28916666D01*
X12464285Y-28821428D01*
X12440476Y-28773809D01*
X12416666Y-28750000D01*
X12369047Y-28726190D01*
X11726190Y-29226190D02*
X12011904Y-29226190D01*
X11869047Y-29226190D02*
X11869047Y-28726190D01*
X11916666Y-28797619D01*
X11964285Y-28845238D01*
X12011904Y-28869047D01*
X11559523Y-28726190D02*
X11226190Y-28726190D01*
X11440476Y-29226190D01*
X42726190Y-9226190D02*
X42726190Y-8726190D01*
X42678571Y-9035714D02*
X42535714Y-9226190D01*
X42535714Y-8892857D02*
X42726190Y-9083333D01*
X42107142Y-8892857D02*
X42107142Y-9297619D01*
X42130952Y-9345238D01*
X42154761Y-9369047D01*
X42202380Y-9392857D01*
X42273809Y-9392857D01*
X42321428Y-9369047D01*
X42107142Y-9202380D02*
X42154761Y-9226190D01*
X42250000Y-9226190D01*
X42297619Y-9202380D01*
X42321428Y-9178571D01*
X42345238Y-9130952D01*
X42345238Y-8988095D01*
X42321428Y-8940476D01*
X42297619Y-8916666D01*
X42250000Y-8892857D01*
X42154761Y-8892857D01*
X42107142Y-8916666D01*
X41869047Y-9226190D02*
X41869047Y-8726190D01*
X41654761Y-9226190D02*
X41654761Y-8964285D01*
X41678571Y-8916666D01*
X41726190Y-8892857D01*
X41797619Y-8892857D01*
X41845238Y-8916666D01*
X41869047Y-8940476D01*
X41321428Y-8726190D02*
X41273809Y-8726190D01*
X41226190Y-8750000D01*
X41202380Y-8773809D01*
X41178571Y-8821428D01*
X41154761Y-8916666D01*
X41154761Y-9035714D01*
X41178571Y-9130952D01*
X41202380Y-9178571D01*
X41226190Y-9202380D01*
X41273809Y-9226190D01*
X41321428Y-9226190D01*
X41369047Y-9202380D01*
X41392857Y-9178571D01*
X41416666Y-9130952D01*
X41440476Y-9035714D01*
X41440476Y-8916666D01*
X41416666Y-8821428D01*
X41392857Y-8773809D01*
X41369047Y-8750000D01*
X41321428Y-8726190D01*
X40964285Y-8773809D02*
X40940476Y-8750000D01*
X40892857Y-8726190D01*
X40773809Y-8726190D01*
X40726190Y-8750000D01*
X40702380Y-8773809D01*
X40678571Y-8821428D01*
X40678571Y-8869047D01*
X40702380Y-8940476D01*
X40988095Y-9226190D01*
X40678571Y-9226190D01*
X40369047Y-8726190D02*
X40321428Y-8726190D01*
X40273809Y-8750000D01*
X40250000Y-8773809D01*
X40226190Y-8821428D01*
X40202380Y-8916666D01*
X40202380Y-9035714D01*
X40226190Y-9130952D01*
X40250000Y-9178571D01*
X40273809Y-9202380D01*
X40321428Y-9226190D01*
X40369047Y-9226190D01*
X40416666Y-9202380D01*
X40440476Y-9178571D01*
X40464285Y-9130952D01*
X40488095Y-9035714D01*
X40488095Y-8916666D01*
X40464285Y-8821428D01*
X40440476Y-8773809D01*
X40416666Y-8750000D01*
X40369047Y-8726190D01*
X39726190Y-9226190D02*
X40011904Y-9226190D01*
X39869047Y-9226190D02*
X39869047Y-8726190D01*
X39916666Y-8797619D01*
X39964285Y-8845238D01*
X40011904Y-8869047D01*
X39559523Y-8726190D02*
X39226190Y-8726190D01*
X39440476Y-9226190D01*
X28726190Y-49226190D02*
X28726190Y-48726190D01*
X28678571Y-49035714D02*
X28535714Y-49226190D01*
X28535714Y-48892857D02*
X28726190Y-49083333D01*
X28107142Y-48892857D02*
X28107142Y-49297619D01*
X28130952Y-49345238D01*
X28154761Y-49369047D01*
X28202380Y-49392857D01*
X28273809Y-49392857D01*
X28321428Y-49369047D01*
X28107142Y-49202380D02*
X28154761Y-49226190D01*
X28250000Y-49226190D01*
X28297619Y-49202380D01*
X28321428Y-49178571D01*
X28345238Y-49130952D01*
X28345238Y-48988095D01*
X28321428Y-48940476D01*
X28297619Y-48916666D01*
X28250000Y-48892857D01*
X28154761Y-48892857D01*
X28107142Y-48916666D01*
X27869047Y-49226190D02*
X27869047Y-48726190D01*
X27654761Y-49226190D02*
X27654761Y-48964285D01*
X27678571Y-48916666D01*
X27726190Y-48892857D01*
X27797619Y-48892857D01*
X27845238Y-48916666D01*
X27869047Y-48940476D01*
X27321428Y-48726190D02*
X27273809Y-48726190D01*
X27226190Y-48750000D01*
X27202380Y-48773809D01*
X27178571Y-48821428D01*
X27154761Y-48916666D01*
X27154761Y-49035714D01*
X27178571Y-49130952D01*
X27202380Y-49178571D01*
X27226190Y-49202380D01*
X27273809Y-49226190D01*
X27321428Y-49226190D01*
X27369047Y-49202380D01*
X27392857Y-49178571D01*
X27416666Y-49130952D01*
X27440476Y-49035714D01*
X27440476Y-48916666D01*
X27416666Y-48821428D01*
X27392857Y-48773809D01*
X27369047Y-48750000D01*
X27321428Y-48726190D01*
X26964285Y-48773809D02*
X26940476Y-48750000D01*
X26892857Y-48726190D01*
X26773809Y-48726190D01*
X26726190Y-48750000D01*
X26702380Y-48773809D01*
X26678571Y-48821428D01*
X26678571Y-48869047D01*
X26702380Y-48940476D01*
X26988095Y-49226190D01*
X26678571Y-49226190D01*
X26369047Y-48726190D02*
X26321428Y-48726190D01*
X26273809Y-48750000D01*
X26250000Y-48773809D01*
X26226190Y-48821428D01*
X26202380Y-48916666D01*
X26202380Y-49035714D01*
X26226190Y-49130952D01*
X26250000Y-49178571D01*
X26273809Y-49202380D01*
X26321428Y-49226190D01*
X26369047Y-49226190D01*
X26416666Y-49202380D01*
X26440476Y-49178571D01*
X26464285Y-49130952D01*
X26488095Y-49035714D01*
X26488095Y-48916666D01*
X26464285Y-48821428D01*
X26440476Y-48773809D01*
X26416666Y-48750000D01*
X26369047Y-48726190D01*
X25726190Y-49226190D02*
X26011904Y-49226190D01*
X25869047Y-49226190D02*
X25869047Y-48726190D01*
X25916666Y-48797619D01*
X25964285Y-48845238D01*
X26011904Y-48869047D01*
X25559523Y-48726190D02*
X25226190Y-48726190D01*
X25440476Y-49226190D01*
X14726190Y-69226190D02*
X14726190Y-68726190D01*
X14678571Y-69035714D02*
X14535714Y-69226190D01*
X14535714Y-68892857D02*
X14726190Y-69083333D01*
X14107142Y-68892857D02*
X14107142Y-69297619D01*
X14130952Y-69345238D01*
X14154761Y-69369047D01*
X14202380Y-69392857D01*
X14273809Y-69392857D01*
X14321428Y-69369047D01*
X14107142Y-69202380D02*
X14154761Y-69226190D01*
X14250000Y-69226190D01*
X14297619Y-69202380D01*
X14321428Y-69178571D01*
X14345238Y-69130952D01*
X14345238Y-68988095D01*
X14321428Y-68940476D01*
X14297619Y-68916666D01*
X14250000Y-68892857D01*
X14154761Y-68892857D01*
X14107142Y-68916666D01*
X13869047Y-69226190D02*
X13869047Y-68726190D01*
X13654761Y-69226190D02*
X13654761Y-68964285D01*
X13678571Y-68916666D01*
X13726190Y-68892857D01*
X13797619Y-68892857D01*
X13845238Y-68916666D01*
X13869047Y-68940476D01*
X13321428Y-68726190D02*
X13273809Y-68726190D01*
X13226190Y-68750000D01*
X13202380Y-68773809D01*
X13178571Y-68821428D01*
X13154761Y-68916666D01*
X13154761Y-69035714D01*
X13178571Y-69130952D01*
X13202380Y-69178571D01*
X13226190Y-69202380D01*
X13273809Y-69226190D01*
X13321428Y-69226190D01*
X13369047Y-69202380D01*
X13392857Y-69178571D01*
X13416666Y-69130952D01*
X13440476Y-69035714D01*
X13440476Y-68916666D01*
X13416666Y-68821428D01*
X13392857Y-68773809D01*
X13369047Y-68750000D01*
X13321428Y-68726190D01*
X12964285Y-68773809D02*
X12940476Y-68750000D01*
X12892857Y-68726190D01*
X12773809Y-68726190D01*
X12726190Y-68750000D01*
X12702380Y-68773809D01*
X12678571Y-68821428D01*
X12678571Y-68869047D01*
X12702380Y-68940476D01*
X12988095Y-69226190D01*
X12678571Y-69226190D01*
X12369047Y-68726190D02*
X12321428Y-68726190D01*
X12273809Y-68750000D01*
X12250000Y-68773809D01*
X12226190Y-68821428D01*
X12202380Y-68916666D01*
X12202380Y-69035714D01*
X12226190Y-69130952D01*
X12250000Y-69178571D01*
X12273809Y-69202380D01*
X12321428Y-69226190D01*
X12369047Y-69226190D01*
X12416666Y-69202380D01*
X12440476Y-69178571D01*
X12464285Y-69130952D01*
X12488095Y-69035714D01*
X12488095Y-68916666D01*
X12464285Y-68821428D01*
X12440476Y-68773809D01*
X12416666Y-68750000D01*
X12369047Y-68726190D01*
X11726190Y-69226190D02*
X12011904Y-69226190D01*
X11869047Y-69226190D02*
X11869047Y-68726190D01*
X11916666Y-68797619D01*
X11964285Y-68845238D01*
X12011904Y-68869047D01*
X11559523Y-68726190D02*
X11226190Y-68726190D01*
X11440476Y-69226190D01*
X70726190Y-49226190D02*
X70726190Y-48726190D01*
X70678571Y-49035714D02*
X70535714Y-49226190D01*
X70535714Y-48892857D02*
X70726190Y-49083333D01*
X70107142Y-48892857D02*
X70107142Y-49297619D01*
X70130952Y-49345238D01*
X70154761Y-49369047D01*
X70202380Y-49392857D01*
X70273809Y-49392857D01*
X70321428Y-49369047D01*
X70107142Y-49202380D02*
X70154761Y-49226190D01*
X70250000Y-49226190D01*
X70297619Y-49202380D01*
X70321428Y-49178571D01*
X70345238Y-49130952D01*
X70345238Y-48988095D01*
X70321428Y-48940476D01*
X70297619Y-48916666D01*
X70250000Y-48892857D01*
X70154761Y-48892857D01*
X70107142Y-48916666D01*
X69869047Y-49226190D02*
X69869047Y-48726190D01*
X69654761Y-49226190D02*
X69654761Y-48964285D01*
X69678571Y-48916666D01*
X69726190Y-48892857D01*
X69797619Y-48892857D01*
X69845238Y-48916666D01*
X69869047Y-48940476D01*
X69321428Y-48726190D02*
X69273809Y-48726190D01*
X69226190Y-48750000D01*
X69202380Y-48773809D01*
X69178571Y-48821428D01*
X69154761Y-48916666D01*
X69154761Y-49035714D01*
X69178571Y-49130952D01*
X69202380Y-49178571D01*
X69226190Y-49202380D01*
X69273809Y-49226190D01*
X69321428Y-49226190D01*
X69369047Y-49202380D01*
X69392857Y-49178571D01*
X69416666Y-49130952D01*
X69440476Y-49035714D01*
X69440476Y-48916666D01*
X69416666Y-48821428D01*
X69392857Y-48773809D01*
X69369047Y-48750000D01*
X69321428Y-48726190D01*
X68964285Y-48773809D02*
X68940476Y-48750000D01*
X68892857Y-48726190D01*
X68773809Y-48726190D01*
X68726190Y-48750000D01*
X68702380Y-48773809D01*
X68678571Y-48821428D01*
X68678571Y-48869047D01*
X68702380Y-48940476D01*
X68988095Y-49226190D01*
X68678571Y-49226190D01*
X68369047Y-48726190D02*
X68321428Y-48726190D01*
X68273809Y-48750000D01*
X68250000Y-48773809D01*
X68226190Y-48821428D01*
X68202380Y-48916666D01*
X68202380Y-49035714D01*
X68226190Y-49130952D01*
X68250000Y-49178571D01*
X68273809Y-49202380D01*
X68321428Y-49226190D01*
X68369047Y-49226190D01*
X68416666Y-49202380D01*
X68440476Y-49178571D01*
X68464285Y-49130952D01*
X68488095Y-49035714D01*
X68488095Y-48916666D01*
X68464285Y-48821428D01*
X68440476Y-48773809D01*
X68416666Y-48750000D01*
X68369047Y-48726190D01*
X67726190Y-49226190D02*
X68011904Y-49226190D01*
X67869047Y-49226190D02*
X67869047Y-48726190D01*
X67916666Y-48797619D01*
X67964285Y-48845238D01*
X68011904Y-48869047D01*
X67559523Y-48726190D02*
X67226190Y-48726190D01*
X67440476Y-49226190D01*
X56726190Y-9226190D02*
X56726190Y-8726190D01*
X56678571Y-9035714D02*
X56535714Y-9226190D01*
X56535714Y-8892857D02*
X56726190Y-9083333D01*
X56107142Y-8892857D02*
X56107142Y-9297619D01*
X56130952Y-9345238D01*
X56154761Y-9369047D01*
X56202380Y-9392857D01*
X56273809Y-9392857D01*
X56321428Y-9369047D01*
X56107142Y-9202380D02*
X56154761Y-9226190D01*
X56250000Y-9226190D01*
X56297619Y-9202380D01*
X56321428Y-9178571D01*
X56345238Y-9130952D01*
X56345238Y-8988095D01*
X56321428Y-8940476D01*
X56297619Y-8916666D01*
X56250000Y-8892857D01*
X56154761Y-8892857D01*
X56107142Y-8916666D01*
X55869047Y-9226190D02*
X55869047Y-8726190D01*
X55654761Y-9226190D02*
X55654761Y-8964285D01*
X55678571Y-8916666D01*
X55726190Y-8892857D01*
X55797619Y-8892857D01*
X55845238Y-8916666D01*
X55869047Y-8940476D01*
X55321428Y-8726190D02*
X55273809Y-8726190D01*
X55226190Y-8750000D01*
X55202380Y-8773809D01*
X55178571Y-8821428D01*
X55154761Y-8916666D01*
X55154761Y-9035714D01*
X55178571Y-9130952D01*
X55202380Y-9178571D01*
X55226190Y-9202380D01*
X55273809Y-9226190D01*
X55321428Y-9226190D01*
X55369047Y-9202380D01*
X55392857Y-9178571D01*
X55416666Y-9130952D01*
X55440476Y-9035714D01*
X55440476Y-8916666D01*
X55416666Y-8821428D01*
X55392857Y-8773809D01*
X55369047Y-8750000D01*
X55321428Y-8726190D01*
X54964285Y-8773809D02*
X54940476Y-8750000D01*
X54892857Y-8726190D01*
X54773809Y-8726190D01*
X54726190Y-8750000D01*
X54702380Y-8773809D01*
X54678571Y-8821428D01*
X54678571Y-8869047D01*
X54702380Y-8940476D01*
X54988095Y-9226190D01*
X54678571Y-9226190D01*
X54369047Y-8726190D02*
X54321428Y-8726190D01*
X54273809Y-8750000D01*
X54250000Y-8773809D01*
X54226190Y-8821428D01*
X54202380Y-8916666D01*
X54202380Y-9035714D01*
X54226190Y-9130952D01*
X54250000Y-9178571D01*
X54273809Y-9202380D01*
X54321428Y-9226190D01*
X54369047Y-9226190D01*
X54416666Y-9202380D01*
X54440476Y-9178571D01*
X54464285Y-9130952D01*
X54488095Y-9035714D01*
X54488095Y-8916666D01*
X54464285Y-8821428D01*
X54440476Y-8773809D01*
X54416666Y-8750000D01*
X54369047Y-8726190D01*
X53726190Y-9226190D02*
X54011904Y-9226190D01*
X53869047Y-9226190D02*
X53869047Y-8726190D01*
X53916666Y-8797619D01*
X53964285Y-8845238D01*
X54011904Y-8869047D01*
X53559523Y-8726190D02*
X53226190Y-8726190D01*
X53440476Y-9226190D01*
X14726190Y-49226190D02*
X14726190Y-48726190D01*
X14678571Y-49035714D02*
X14535714Y-49226190D01*
X14535714Y-48892857D02*
X14726190Y-49083333D01*
X14107142Y-48892857D02*
X14107142Y-49297619D01*
X14130952Y-49345238D01*
X14154761Y-49369047D01*
X14202380Y-49392857D01*
X14273809Y-49392857D01*
X14321428Y-49369047D01*
X14107142Y-49202380D02*
X14154761Y-49226190D01*
X14250000Y-49226190D01*
X14297619Y-49202380D01*
X14321428Y-49178571D01*
X14345238Y-49130952D01*
X14345238Y-48988095D01*
X14321428Y-48940476D01*
X14297619Y-48916666D01*
X14250000Y-48892857D01*
X14154761Y-48892857D01*
X14107142Y-48916666D01*
X13869047Y-49226190D02*
X13869047Y-48726190D01*
X13654761Y-49226190D02*
X13654761Y-48964285D01*
X13678571Y-48916666D01*
X13726190Y-48892857D01*
X13797619Y-48892857D01*
X13845238Y-48916666D01*
X13869047Y-48940476D01*
X13321428Y-48726190D02*
X13273809Y-48726190D01*
X13226190Y-48750000D01*
X13202380Y-48773809D01*
X13178571Y-48821428D01*
X13154761Y-48916666D01*
X13154761Y-49035714D01*
X13178571Y-49130952D01*
X13202380Y-49178571D01*
X13226190Y-49202380D01*
X13273809Y-49226190D01*
X13321428Y-49226190D01*
X13369047Y-49202380D01*
X13392857Y-49178571D01*
X13416666Y-49130952D01*
X13440476Y-49035714D01*
X13440476Y-48916666D01*
X13416666Y-48821428D01*
X13392857Y-48773809D01*
X13369047Y-48750000D01*
X13321428Y-48726190D01*
X12964285Y-48773809D02*
X12940476Y-48750000D01*
X12892857Y-48726190D01*
X12773809Y-48726190D01*
X12726190Y-48750000D01*
X12702380Y-48773809D01*
X12678571Y-48821428D01*
X12678571Y-48869047D01*
X12702380Y-48940476D01*
X12988095Y-49226190D01*
X12678571Y-49226190D01*
X12369047Y-48726190D02*
X12321428Y-48726190D01*
X12273809Y-48750000D01*
X12250000Y-48773809D01*
X12226190Y-48821428D01*
X12202380Y-48916666D01*
X12202380Y-49035714D01*
X12226190Y-49130952D01*
X12250000Y-49178571D01*
X12273809Y-49202380D01*
X12321428Y-49226190D01*
X12369047Y-49226190D01*
X12416666Y-49202380D01*
X12440476Y-49178571D01*
X12464285Y-49130952D01*
X12488095Y-49035714D01*
X12488095Y-48916666D01*
X12464285Y-48821428D01*
X12440476Y-48773809D01*
X12416666Y-48750000D01*
X12369047Y-48726190D01*
X11726190Y-49226190D02*
X12011904Y-49226190D01*
X11869047Y-49226190D02*
X11869047Y-48726190D01*
X11916666Y-48797619D01*
X11964285Y-48845238D01*
X12011904Y-48869047D01*
X11559523Y-48726190D02*
X11226190Y-48726190D01*
X11440476Y-49226190D01*
X84726190Y-29226190D02*
X84726190Y-28726190D01*
X84678571Y-29035714D02*
X84535714Y-29226190D01*
X84535714Y-28892857D02*
X84726190Y-29083333D01*
X84107142Y-28892857D02*
X84107142Y-29297619D01*
X84130952Y-29345238D01*
X84154761Y-29369047D01*
X84202380Y-29392857D01*
X84273809Y-29392857D01*
X84321428Y-29369047D01*
X84107142Y-29202380D02*
X84154761Y-29226190D01*
X84250000Y-29226190D01*
X84297619Y-29202380D01*
X84321428Y-29178571D01*
X84345238Y-29130952D01*
X84345238Y-28988095D01*
X84321428Y-28940476D01*
X84297619Y-28916666D01*
X84250000Y-28892857D01*
X84154761Y-28892857D01*
X84107142Y-28916666D01*
X83869047Y-29226190D02*
X83869047Y-28726190D01*
X83654761Y-29226190D02*
X83654761Y-28964285D01*
X83678571Y-28916666D01*
X83726190Y-28892857D01*
X83797619Y-28892857D01*
X83845238Y-28916666D01*
X83869047Y-28940476D01*
X83321428Y-28726190D02*
X83273809Y-28726190D01*
X83226190Y-28750000D01*
X83202380Y-28773809D01*
X83178571Y-28821428D01*
X83154761Y-28916666D01*
X83154761Y-29035714D01*
X83178571Y-29130952D01*
X83202380Y-29178571D01*
X83226190Y-29202380D01*
X83273809Y-29226190D01*
X83321428Y-29226190D01*
X83369047Y-29202380D01*
X83392857Y-29178571D01*
X83416666Y-29130952D01*
X83440476Y-29035714D01*
X83440476Y-28916666D01*
X83416666Y-28821428D01*
X83392857Y-28773809D01*
X83369047Y-28750000D01*
X83321428Y-28726190D01*
X82964285Y-28773809D02*
X82940476Y-28750000D01*
X82892857Y-28726190D01*
X82773809Y-28726190D01*
X82726190Y-28750000D01*
X82702380Y-28773809D01*
X82678571Y-28821428D01*
X82678571Y-28869047D01*
X82702380Y-28940476D01*
X82988095Y-29226190D01*
X82678571Y-29226190D01*
X82369047Y-28726190D02*
X82321428Y-28726190D01*
X82273809Y-28750000D01*
X82250000Y-28773809D01*
X82226190Y-28821428D01*
X82202380Y-28916666D01*
X82202380Y-29035714D01*
X82226190Y-29130952D01*
X82250000Y-29178571D01*
X82273809Y-29202380D01*
X82321428Y-29226190D01*
X82369047Y-29226190D01*
X82416666Y-29202380D01*
X82440476Y-29178571D01*
X82464285Y-29130952D01*
X82488095Y-29035714D01*
X82488095Y-28916666D01*
X82464285Y-28821428D01*
X82440476Y-28773809D01*
X82416666Y-28750000D01*
X82369047Y-28726190D01*
X81726190Y-29226190D02*
X82011904Y-29226190D01*
X81869047Y-29226190D02*
X81869047Y-28726190D01*
X81916666Y-28797619D01*
X81964285Y-28845238D01*
X82011904Y-28869047D01*
X81559523Y-28726190D02*
X81226190Y-28726190D01*
X81440476Y-29226190D01*
X28726190Y-9226190D02*
X28726190Y-8726190D01*
X28678571Y-9035714D02*
X28535714Y-9226190D01*
X28535714Y-8892857D02*
X28726190Y-9083333D01*
X28107142Y-8892857D02*
X28107142Y-9297619D01*
X28130952Y-9345238D01*
X28154761Y-9369047D01*
X28202380Y-9392857D01*
X28273809Y-9392857D01*
X28321428Y-9369047D01*
X28107142Y-9202380D02*
X28154761Y-9226190D01*
X28250000Y-9226190D01*
X28297619Y-9202380D01*
X28321428Y-9178571D01*
X28345238Y-9130952D01*
X28345238Y-8988095D01*
X28321428Y-8940476D01*
X28297619Y-8916666D01*
X28250000Y-8892857D01*
X28154761Y-8892857D01*
X28107142Y-8916666D01*
X27869047Y-9226190D02*
X27869047Y-8726190D01*
X27654761Y-9226190D02*
X27654761Y-8964285D01*
X27678571Y-8916666D01*
X27726190Y-8892857D01*
X27797619Y-8892857D01*
X27845238Y-8916666D01*
X27869047Y-8940476D01*
X27321428Y-8726190D02*
X27273809Y-8726190D01*
X27226190Y-8750000D01*
X27202380Y-8773809D01*
X27178571Y-8821428D01*
X27154761Y-8916666D01*
X27154761Y-9035714D01*
X27178571Y-9130952D01*
X27202380Y-9178571D01*
X27226190Y-9202380D01*
X27273809Y-9226190D01*
X27321428Y-9226190D01*
X27369047Y-9202380D01*
X27392857Y-9178571D01*
X27416666Y-9130952D01*
X27440476Y-9035714D01*
X27440476Y-8916666D01*
X27416666Y-8821428D01*
X27392857Y-8773809D01*
X27369047Y-8750000D01*
X27321428Y-8726190D01*
X26964285Y-8773809D02*
X26940476Y-8750000D01*
X26892857Y-8726190D01*
X26773809Y-8726190D01*
X26726190Y-8750000D01*
X26702380Y-8773809D01*
X26678571Y-8821428D01*
X26678571Y-8869047D01*
X26702380Y-8940476D01*
X26988095Y-9226190D01*
X26678571Y-9226190D01*
X26369047Y-8726190D02*
X26321428Y-8726190D01*
X26273809Y-8750000D01*
X26250000Y-8773809D01*
X26226190Y-8821428D01*
X26202380Y-8916666D01*
X26202380Y-9035714D01*
X26226190Y-9130952D01*
X26250000Y-9178571D01*
X26273809Y-9202380D01*
X26321428Y-9226190D01*
X26369047Y-9226190D01*
X26416666Y-9202380D01*
X26440476Y-9178571D01*
X26464285Y-9130952D01*
X26488095Y-9035714D01*
X26488095Y-8916666D01*
X26464285Y-8821428D01*
X26440476Y-8773809D01*
X26416666Y-8750000D01*
X26369047Y-8726190D01*
X25726190Y-9226190D02*
X26011904Y-9226190D01*
X25869047Y-9226190D02*
X25869047Y-8726190D01*
X25916666Y-8797619D01*
X25964285Y-8845238D01*
X26011904Y-8869047D01*
X25559523Y-8726190D02*
X25226190Y-8726190D01*
X25440476Y-9226190D01*
M02*
