G04 #@! TF.GenerationSoftware,KiCad,Pcbnew,(6.0.9)*
G04 #@! TF.CreationDate,2022-12-08T09:34:55+09:00*
G04 #@! TF.ProjectId,EndPCRailBoard-PNLZ,456e6450-4352-4616-996c-426f6172642d,rev?*
G04 #@! TF.SameCoordinates,PX3938700PY1c9c380*
G04 #@! TF.FileFunction,Legend,Top*
G04 #@! TF.FilePolarity,Positive*
%FSLAX46Y46*%
G04 Gerber Fmt 4.6, Leading zero omitted, Abs format (unit mm)*
G04 Created by KiCad (PCBNEW (6.0.9)) date 2022-12-08 09:34:55*
%MOMM*%
%LPD*%
G01*
G04 APERTURE LIST*
%ADD10C,0.100000*%
%ADD11C,0.150000*%
%ADD12C,0.200000*%
%ADD13C,0.120000*%
G04 APERTURE END LIST*
D10*
X78983333Y-67750000D02*
X79216666Y-67750000D01*
X79316666Y-68116666D02*
X78983333Y-68116666D01*
X78983333Y-67416666D01*
X79316666Y-67416666D01*
X79616666Y-67650000D02*
X79616666Y-68116666D01*
X79616666Y-67716666D02*
X79650000Y-67683333D01*
X79716666Y-67650000D01*
X79816666Y-67650000D01*
X79883333Y-67683333D01*
X79916666Y-67750000D01*
X79916666Y-68116666D01*
X80550000Y-68116666D02*
X80550000Y-67416666D01*
X80550000Y-68083333D02*
X80483333Y-68116666D01*
X80350000Y-68116666D01*
X80283333Y-68083333D01*
X80250000Y-68050000D01*
X80216666Y-67983333D01*
X80216666Y-67783333D01*
X80250000Y-67716666D01*
X80283333Y-67683333D01*
X80350000Y-67650000D01*
X80483333Y-67650000D01*
X80550000Y-67683333D01*
X80883333Y-68116666D02*
X80883333Y-67416666D01*
X81150000Y-67416666D01*
X81216666Y-67450000D01*
X81250000Y-67483333D01*
X81283333Y-67550000D01*
X81283333Y-67650000D01*
X81250000Y-67716666D01*
X81216666Y-67750000D01*
X81150000Y-67783333D01*
X80883333Y-67783333D01*
X81983333Y-68050000D02*
X81950000Y-68083333D01*
X81850000Y-68116666D01*
X81783333Y-68116666D01*
X81683333Y-68083333D01*
X81616666Y-68016666D01*
X81583333Y-67950000D01*
X81550000Y-67816666D01*
X81550000Y-67716666D01*
X81583333Y-67583333D01*
X81616666Y-67516666D01*
X81683333Y-67450000D01*
X81783333Y-67416666D01*
X81850000Y-67416666D01*
X81950000Y-67450000D01*
X81983333Y-67483333D01*
X82683333Y-68116666D02*
X82450000Y-67783333D01*
X82283333Y-68116666D02*
X82283333Y-67416666D01*
X82550000Y-67416666D01*
X82616666Y-67450000D01*
X82650000Y-67483333D01*
X82683333Y-67550000D01*
X82683333Y-67650000D01*
X82650000Y-67716666D01*
X82616666Y-67750000D01*
X82550000Y-67783333D01*
X82283333Y-67783333D01*
X83283333Y-68116666D02*
X83283333Y-67750000D01*
X83250000Y-67683333D01*
X83183333Y-67650000D01*
X83050000Y-67650000D01*
X82983333Y-67683333D01*
X83283333Y-68083333D02*
X83216666Y-68116666D01*
X83050000Y-68116666D01*
X82983333Y-68083333D01*
X82950000Y-68016666D01*
X82950000Y-67950000D01*
X82983333Y-67883333D01*
X83050000Y-67850000D01*
X83216666Y-67850000D01*
X83283333Y-67816666D01*
X83616666Y-68116666D02*
X83616666Y-67650000D01*
X83616666Y-67416666D02*
X83583333Y-67450000D01*
X83616666Y-67483333D01*
X83650000Y-67450000D01*
X83616666Y-67416666D01*
X83616666Y-67483333D01*
X84050000Y-68116666D02*
X83983333Y-68083333D01*
X83950000Y-68016666D01*
X83950000Y-67416666D01*
X84550000Y-67750000D02*
X84650000Y-67783333D01*
X84683333Y-67816666D01*
X84716666Y-67883333D01*
X84716666Y-67983333D01*
X84683333Y-68050000D01*
X84650000Y-68083333D01*
X84583333Y-68116666D01*
X84316666Y-68116666D01*
X84316666Y-67416666D01*
X84550000Y-67416666D01*
X84616666Y-67450000D01*
X84650000Y-67483333D01*
X84683333Y-67550000D01*
X84683333Y-67616666D01*
X84650000Y-67683333D01*
X84616666Y-67716666D01*
X84550000Y-67750000D01*
X84316666Y-67750000D01*
X85116666Y-68116666D02*
X85050000Y-68083333D01*
X85016666Y-68050000D01*
X84983333Y-67983333D01*
X84983333Y-67783333D01*
X85016666Y-67716666D01*
X85050000Y-67683333D01*
X85116666Y-67650000D01*
X85216666Y-67650000D01*
X85283333Y-67683333D01*
X85316666Y-67716666D01*
X85350000Y-67783333D01*
X85350000Y-67983333D01*
X85316666Y-68050000D01*
X85283333Y-68083333D01*
X85216666Y-68116666D01*
X85116666Y-68116666D01*
X85950000Y-68116666D02*
X85950000Y-67750000D01*
X85916666Y-67683333D01*
X85850000Y-67650000D01*
X85716666Y-67650000D01*
X85650000Y-67683333D01*
X85950000Y-68083333D02*
X85883333Y-68116666D01*
X85716666Y-68116666D01*
X85650000Y-68083333D01*
X85616666Y-68016666D01*
X85616666Y-67950000D01*
X85650000Y-67883333D01*
X85716666Y-67850000D01*
X85883333Y-67850000D01*
X85950000Y-67816666D01*
X86283333Y-68116666D02*
X86283333Y-67650000D01*
X86283333Y-67783333D02*
X86316666Y-67716666D01*
X86350000Y-67683333D01*
X86416666Y-67650000D01*
X86483333Y-67650000D01*
X87016666Y-68116666D02*
X87016666Y-67416666D01*
X87016666Y-68083333D02*
X86950000Y-68116666D01*
X86816666Y-68116666D01*
X86750000Y-68083333D01*
X86716666Y-68050000D01*
X86683333Y-67983333D01*
X86683333Y-67783333D01*
X86716666Y-67716666D01*
X86750000Y-67683333D01*
X86816666Y-67650000D01*
X86950000Y-67650000D01*
X87016666Y-67683333D01*
X78983333Y-7750000D02*
X79216666Y-7750000D01*
X79316666Y-8116666D02*
X78983333Y-8116666D01*
X78983333Y-7416666D01*
X79316666Y-7416666D01*
X79616666Y-7650000D02*
X79616666Y-8116666D01*
X79616666Y-7716666D02*
X79650000Y-7683333D01*
X79716666Y-7650000D01*
X79816666Y-7650000D01*
X79883333Y-7683333D01*
X79916666Y-7750000D01*
X79916666Y-8116666D01*
X80550000Y-8116666D02*
X80550000Y-7416666D01*
X80550000Y-8083333D02*
X80483333Y-8116666D01*
X80350000Y-8116666D01*
X80283333Y-8083333D01*
X80250000Y-8050000D01*
X80216666Y-7983333D01*
X80216666Y-7783333D01*
X80250000Y-7716666D01*
X80283333Y-7683333D01*
X80350000Y-7650000D01*
X80483333Y-7650000D01*
X80550000Y-7683333D01*
X80883333Y-8116666D02*
X80883333Y-7416666D01*
X81150000Y-7416666D01*
X81216666Y-7450000D01*
X81250000Y-7483333D01*
X81283333Y-7550000D01*
X81283333Y-7650000D01*
X81250000Y-7716666D01*
X81216666Y-7750000D01*
X81150000Y-7783333D01*
X80883333Y-7783333D01*
X81983333Y-8050000D02*
X81950000Y-8083333D01*
X81850000Y-8116666D01*
X81783333Y-8116666D01*
X81683333Y-8083333D01*
X81616666Y-8016666D01*
X81583333Y-7950000D01*
X81550000Y-7816666D01*
X81550000Y-7716666D01*
X81583333Y-7583333D01*
X81616666Y-7516666D01*
X81683333Y-7450000D01*
X81783333Y-7416666D01*
X81850000Y-7416666D01*
X81950000Y-7450000D01*
X81983333Y-7483333D01*
X82683333Y-8116666D02*
X82450000Y-7783333D01*
X82283333Y-8116666D02*
X82283333Y-7416666D01*
X82550000Y-7416666D01*
X82616666Y-7450000D01*
X82650000Y-7483333D01*
X82683333Y-7550000D01*
X82683333Y-7650000D01*
X82650000Y-7716666D01*
X82616666Y-7750000D01*
X82550000Y-7783333D01*
X82283333Y-7783333D01*
X83283333Y-8116666D02*
X83283333Y-7750000D01*
X83250000Y-7683333D01*
X83183333Y-7650000D01*
X83050000Y-7650000D01*
X82983333Y-7683333D01*
X83283333Y-8083333D02*
X83216666Y-8116666D01*
X83050000Y-8116666D01*
X82983333Y-8083333D01*
X82950000Y-8016666D01*
X82950000Y-7950000D01*
X82983333Y-7883333D01*
X83050000Y-7850000D01*
X83216666Y-7850000D01*
X83283333Y-7816666D01*
X83616666Y-8116666D02*
X83616666Y-7650000D01*
X83616666Y-7416666D02*
X83583333Y-7450000D01*
X83616666Y-7483333D01*
X83650000Y-7450000D01*
X83616666Y-7416666D01*
X83616666Y-7483333D01*
X84050000Y-8116666D02*
X83983333Y-8083333D01*
X83950000Y-8016666D01*
X83950000Y-7416666D01*
X84550000Y-7750000D02*
X84650000Y-7783333D01*
X84683333Y-7816666D01*
X84716666Y-7883333D01*
X84716666Y-7983333D01*
X84683333Y-8050000D01*
X84650000Y-8083333D01*
X84583333Y-8116666D01*
X84316666Y-8116666D01*
X84316666Y-7416666D01*
X84550000Y-7416666D01*
X84616666Y-7450000D01*
X84650000Y-7483333D01*
X84683333Y-7550000D01*
X84683333Y-7616666D01*
X84650000Y-7683333D01*
X84616666Y-7716666D01*
X84550000Y-7750000D01*
X84316666Y-7750000D01*
X85116666Y-8116666D02*
X85050000Y-8083333D01*
X85016666Y-8050000D01*
X84983333Y-7983333D01*
X84983333Y-7783333D01*
X85016666Y-7716666D01*
X85050000Y-7683333D01*
X85116666Y-7650000D01*
X85216666Y-7650000D01*
X85283333Y-7683333D01*
X85316666Y-7716666D01*
X85350000Y-7783333D01*
X85350000Y-7983333D01*
X85316666Y-8050000D01*
X85283333Y-8083333D01*
X85216666Y-8116666D01*
X85116666Y-8116666D01*
X85950000Y-8116666D02*
X85950000Y-7750000D01*
X85916666Y-7683333D01*
X85850000Y-7650000D01*
X85716666Y-7650000D01*
X85650000Y-7683333D01*
X85950000Y-8083333D02*
X85883333Y-8116666D01*
X85716666Y-8116666D01*
X85650000Y-8083333D01*
X85616666Y-8016666D01*
X85616666Y-7950000D01*
X85650000Y-7883333D01*
X85716666Y-7850000D01*
X85883333Y-7850000D01*
X85950000Y-7816666D01*
X86283333Y-8116666D02*
X86283333Y-7650000D01*
X86283333Y-7783333D02*
X86316666Y-7716666D01*
X86350000Y-7683333D01*
X86416666Y-7650000D01*
X86483333Y-7650000D01*
X87016666Y-8116666D02*
X87016666Y-7416666D01*
X87016666Y-8083333D02*
X86950000Y-8116666D01*
X86816666Y-8116666D01*
X86750000Y-8083333D01*
X86716666Y-8050000D01*
X86683333Y-7983333D01*
X86683333Y-7783333D01*
X86716666Y-7716666D01*
X86750000Y-7683333D01*
X86816666Y-7650000D01*
X86950000Y-7650000D01*
X87016666Y-7683333D01*
X78983333Y-27750000D02*
X79216666Y-27750000D01*
X79316666Y-28116666D02*
X78983333Y-28116666D01*
X78983333Y-27416666D01*
X79316666Y-27416666D01*
X79616666Y-27650000D02*
X79616666Y-28116666D01*
X79616666Y-27716666D02*
X79650000Y-27683333D01*
X79716666Y-27650000D01*
X79816666Y-27650000D01*
X79883333Y-27683333D01*
X79916666Y-27750000D01*
X79916666Y-28116666D01*
X80550000Y-28116666D02*
X80550000Y-27416666D01*
X80550000Y-28083333D02*
X80483333Y-28116666D01*
X80350000Y-28116666D01*
X80283333Y-28083333D01*
X80250000Y-28050000D01*
X80216666Y-27983333D01*
X80216666Y-27783333D01*
X80250000Y-27716666D01*
X80283333Y-27683333D01*
X80350000Y-27650000D01*
X80483333Y-27650000D01*
X80550000Y-27683333D01*
X80883333Y-28116666D02*
X80883333Y-27416666D01*
X81150000Y-27416666D01*
X81216666Y-27450000D01*
X81250000Y-27483333D01*
X81283333Y-27550000D01*
X81283333Y-27650000D01*
X81250000Y-27716666D01*
X81216666Y-27750000D01*
X81150000Y-27783333D01*
X80883333Y-27783333D01*
X81983333Y-28050000D02*
X81950000Y-28083333D01*
X81850000Y-28116666D01*
X81783333Y-28116666D01*
X81683333Y-28083333D01*
X81616666Y-28016666D01*
X81583333Y-27950000D01*
X81550000Y-27816666D01*
X81550000Y-27716666D01*
X81583333Y-27583333D01*
X81616666Y-27516666D01*
X81683333Y-27450000D01*
X81783333Y-27416666D01*
X81850000Y-27416666D01*
X81950000Y-27450000D01*
X81983333Y-27483333D01*
X82683333Y-28116666D02*
X82450000Y-27783333D01*
X82283333Y-28116666D02*
X82283333Y-27416666D01*
X82550000Y-27416666D01*
X82616666Y-27450000D01*
X82650000Y-27483333D01*
X82683333Y-27550000D01*
X82683333Y-27650000D01*
X82650000Y-27716666D01*
X82616666Y-27750000D01*
X82550000Y-27783333D01*
X82283333Y-27783333D01*
X83283333Y-28116666D02*
X83283333Y-27750000D01*
X83250000Y-27683333D01*
X83183333Y-27650000D01*
X83050000Y-27650000D01*
X82983333Y-27683333D01*
X83283333Y-28083333D02*
X83216666Y-28116666D01*
X83050000Y-28116666D01*
X82983333Y-28083333D01*
X82950000Y-28016666D01*
X82950000Y-27950000D01*
X82983333Y-27883333D01*
X83050000Y-27850000D01*
X83216666Y-27850000D01*
X83283333Y-27816666D01*
X83616666Y-28116666D02*
X83616666Y-27650000D01*
X83616666Y-27416666D02*
X83583333Y-27450000D01*
X83616666Y-27483333D01*
X83650000Y-27450000D01*
X83616666Y-27416666D01*
X83616666Y-27483333D01*
X84050000Y-28116666D02*
X83983333Y-28083333D01*
X83950000Y-28016666D01*
X83950000Y-27416666D01*
X84550000Y-27750000D02*
X84650000Y-27783333D01*
X84683333Y-27816666D01*
X84716666Y-27883333D01*
X84716666Y-27983333D01*
X84683333Y-28050000D01*
X84650000Y-28083333D01*
X84583333Y-28116666D01*
X84316666Y-28116666D01*
X84316666Y-27416666D01*
X84550000Y-27416666D01*
X84616666Y-27450000D01*
X84650000Y-27483333D01*
X84683333Y-27550000D01*
X84683333Y-27616666D01*
X84650000Y-27683333D01*
X84616666Y-27716666D01*
X84550000Y-27750000D01*
X84316666Y-27750000D01*
X85116666Y-28116666D02*
X85050000Y-28083333D01*
X85016666Y-28050000D01*
X84983333Y-27983333D01*
X84983333Y-27783333D01*
X85016666Y-27716666D01*
X85050000Y-27683333D01*
X85116666Y-27650000D01*
X85216666Y-27650000D01*
X85283333Y-27683333D01*
X85316666Y-27716666D01*
X85350000Y-27783333D01*
X85350000Y-27983333D01*
X85316666Y-28050000D01*
X85283333Y-28083333D01*
X85216666Y-28116666D01*
X85116666Y-28116666D01*
X85950000Y-28116666D02*
X85950000Y-27750000D01*
X85916666Y-27683333D01*
X85850000Y-27650000D01*
X85716666Y-27650000D01*
X85650000Y-27683333D01*
X85950000Y-28083333D02*
X85883333Y-28116666D01*
X85716666Y-28116666D01*
X85650000Y-28083333D01*
X85616666Y-28016666D01*
X85616666Y-27950000D01*
X85650000Y-27883333D01*
X85716666Y-27850000D01*
X85883333Y-27850000D01*
X85950000Y-27816666D01*
X86283333Y-28116666D02*
X86283333Y-27650000D01*
X86283333Y-27783333D02*
X86316666Y-27716666D01*
X86350000Y-27683333D01*
X86416666Y-27650000D01*
X86483333Y-27650000D01*
X87016666Y-28116666D02*
X87016666Y-27416666D01*
X87016666Y-28083333D02*
X86950000Y-28116666D01*
X86816666Y-28116666D01*
X86750000Y-28083333D01*
X86716666Y-28050000D01*
X86683333Y-27983333D01*
X86683333Y-27783333D01*
X86716666Y-27716666D01*
X86750000Y-27683333D01*
X86816666Y-27650000D01*
X86950000Y-27650000D01*
X87016666Y-27683333D01*
X50983333Y-67750000D02*
X51216666Y-67750000D01*
X51316666Y-68116666D02*
X50983333Y-68116666D01*
X50983333Y-67416666D01*
X51316666Y-67416666D01*
X51616666Y-67650000D02*
X51616666Y-68116666D01*
X51616666Y-67716666D02*
X51650000Y-67683333D01*
X51716666Y-67650000D01*
X51816666Y-67650000D01*
X51883333Y-67683333D01*
X51916666Y-67750000D01*
X51916666Y-68116666D01*
X52550000Y-68116666D02*
X52550000Y-67416666D01*
X52550000Y-68083333D02*
X52483333Y-68116666D01*
X52350000Y-68116666D01*
X52283333Y-68083333D01*
X52250000Y-68050000D01*
X52216666Y-67983333D01*
X52216666Y-67783333D01*
X52250000Y-67716666D01*
X52283333Y-67683333D01*
X52350000Y-67650000D01*
X52483333Y-67650000D01*
X52550000Y-67683333D01*
X52883333Y-68116666D02*
X52883333Y-67416666D01*
X53150000Y-67416666D01*
X53216666Y-67450000D01*
X53250000Y-67483333D01*
X53283333Y-67550000D01*
X53283333Y-67650000D01*
X53250000Y-67716666D01*
X53216666Y-67750000D01*
X53150000Y-67783333D01*
X52883333Y-67783333D01*
X53983333Y-68050000D02*
X53950000Y-68083333D01*
X53850000Y-68116666D01*
X53783333Y-68116666D01*
X53683333Y-68083333D01*
X53616666Y-68016666D01*
X53583333Y-67950000D01*
X53550000Y-67816666D01*
X53550000Y-67716666D01*
X53583333Y-67583333D01*
X53616666Y-67516666D01*
X53683333Y-67450000D01*
X53783333Y-67416666D01*
X53850000Y-67416666D01*
X53950000Y-67450000D01*
X53983333Y-67483333D01*
X54683333Y-68116666D02*
X54450000Y-67783333D01*
X54283333Y-68116666D02*
X54283333Y-67416666D01*
X54550000Y-67416666D01*
X54616666Y-67450000D01*
X54650000Y-67483333D01*
X54683333Y-67550000D01*
X54683333Y-67650000D01*
X54650000Y-67716666D01*
X54616666Y-67750000D01*
X54550000Y-67783333D01*
X54283333Y-67783333D01*
X55283333Y-68116666D02*
X55283333Y-67750000D01*
X55250000Y-67683333D01*
X55183333Y-67650000D01*
X55050000Y-67650000D01*
X54983333Y-67683333D01*
X55283333Y-68083333D02*
X55216666Y-68116666D01*
X55050000Y-68116666D01*
X54983333Y-68083333D01*
X54950000Y-68016666D01*
X54950000Y-67950000D01*
X54983333Y-67883333D01*
X55050000Y-67850000D01*
X55216666Y-67850000D01*
X55283333Y-67816666D01*
X55616666Y-68116666D02*
X55616666Y-67650000D01*
X55616666Y-67416666D02*
X55583333Y-67450000D01*
X55616666Y-67483333D01*
X55650000Y-67450000D01*
X55616666Y-67416666D01*
X55616666Y-67483333D01*
X56050000Y-68116666D02*
X55983333Y-68083333D01*
X55950000Y-68016666D01*
X55950000Y-67416666D01*
X56550000Y-67750000D02*
X56650000Y-67783333D01*
X56683333Y-67816666D01*
X56716666Y-67883333D01*
X56716666Y-67983333D01*
X56683333Y-68050000D01*
X56650000Y-68083333D01*
X56583333Y-68116666D01*
X56316666Y-68116666D01*
X56316666Y-67416666D01*
X56550000Y-67416666D01*
X56616666Y-67450000D01*
X56650000Y-67483333D01*
X56683333Y-67550000D01*
X56683333Y-67616666D01*
X56650000Y-67683333D01*
X56616666Y-67716666D01*
X56550000Y-67750000D01*
X56316666Y-67750000D01*
X57116666Y-68116666D02*
X57050000Y-68083333D01*
X57016666Y-68050000D01*
X56983333Y-67983333D01*
X56983333Y-67783333D01*
X57016666Y-67716666D01*
X57050000Y-67683333D01*
X57116666Y-67650000D01*
X57216666Y-67650000D01*
X57283333Y-67683333D01*
X57316666Y-67716666D01*
X57350000Y-67783333D01*
X57350000Y-67983333D01*
X57316666Y-68050000D01*
X57283333Y-68083333D01*
X57216666Y-68116666D01*
X57116666Y-68116666D01*
X57950000Y-68116666D02*
X57950000Y-67750000D01*
X57916666Y-67683333D01*
X57850000Y-67650000D01*
X57716666Y-67650000D01*
X57650000Y-67683333D01*
X57950000Y-68083333D02*
X57883333Y-68116666D01*
X57716666Y-68116666D01*
X57650000Y-68083333D01*
X57616666Y-68016666D01*
X57616666Y-67950000D01*
X57650000Y-67883333D01*
X57716666Y-67850000D01*
X57883333Y-67850000D01*
X57950000Y-67816666D01*
X58283333Y-68116666D02*
X58283333Y-67650000D01*
X58283333Y-67783333D02*
X58316666Y-67716666D01*
X58350000Y-67683333D01*
X58416666Y-67650000D01*
X58483333Y-67650000D01*
X59016666Y-68116666D02*
X59016666Y-67416666D01*
X59016666Y-68083333D02*
X58950000Y-68116666D01*
X58816666Y-68116666D01*
X58750000Y-68083333D01*
X58716666Y-68050000D01*
X58683333Y-67983333D01*
X58683333Y-67783333D01*
X58716666Y-67716666D01*
X58750000Y-67683333D01*
X58816666Y-67650000D01*
X58950000Y-67650000D01*
X59016666Y-67683333D01*
X22983333Y-27750000D02*
X23216666Y-27750000D01*
X23316666Y-28116666D02*
X22983333Y-28116666D01*
X22983333Y-27416666D01*
X23316666Y-27416666D01*
X23616666Y-27650000D02*
X23616666Y-28116666D01*
X23616666Y-27716666D02*
X23650000Y-27683333D01*
X23716666Y-27650000D01*
X23816666Y-27650000D01*
X23883333Y-27683333D01*
X23916666Y-27750000D01*
X23916666Y-28116666D01*
X24550000Y-28116666D02*
X24550000Y-27416666D01*
X24550000Y-28083333D02*
X24483333Y-28116666D01*
X24350000Y-28116666D01*
X24283333Y-28083333D01*
X24250000Y-28050000D01*
X24216666Y-27983333D01*
X24216666Y-27783333D01*
X24250000Y-27716666D01*
X24283333Y-27683333D01*
X24350000Y-27650000D01*
X24483333Y-27650000D01*
X24550000Y-27683333D01*
X24883333Y-28116666D02*
X24883333Y-27416666D01*
X25150000Y-27416666D01*
X25216666Y-27450000D01*
X25250000Y-27483333D01*
X25283333Y-27550000D01*
X25283333Y-27650000D01*
X25250000Y-27716666D01*
X25216666Y-27750000D01*
X25150000Y-27783333D01*
X24883333Y-27783333D01*
X25983333Y-28050000D02*
X25950000Y-28083333D01*
X25850000Y-28116666D01*
X25783333Y-28116666D01*
X25683333Y-28083333D01*
X25616666Y-28016666D01*
X25583333Y-27950000D01*
X25550000Y-27816666D01*
X25550000Y-27716666D01*
X25583333Y-27583333D01*
X25616666Y-27516666D01*
X25683333Y-27450000D01*
X25783333Y-27416666D01*
X25850000Y-27416666D01*
X25950000Y-27450000D01*
X25983333Y-27483333D01*
X26683333Y-28116666D02*
X26450000Y-27783333D01*
X26283333Y-28116666D02*
X26283333Y-27416666D01*
X26550000Y-27416666D01*
X26616666Y-27450000D01*
X26650000Y-27483333D01*
X26683333Y-27550000D01*
X26683333Y-27650000D01*
X26650000Y-27716666D01*
X26616666Y-27750000D01*
X26550000Y-27783333D01*
X26283333Y-27783333D01*
X27283333Y-28116666D02*
X27283333Y-27750000D01*
X27250000Y-27683333D01*
X27183333Y-27650000D01*
X27050000Y-27650000D01*
X26983333Y-27683333D01*
X27283333Y-28083333D02*
X27216666Y-28116666D01*
X27050000Y-28116666D01*
X26983333Y-28083333D01*
X26950000Y-28016666D01*
X26950000Y-27950000D01*
X26983333Y-27883333D01*
X27050000Y-27850000D01*
X27216666Y-27850000D01*
X27283333Y-27816666D01*
X27616666Y-28116666D02*
X27616666Y-27650000D01*
X27616666Y-27416666D02*
X27583333Y-27450000D01*
X27616666Y-27483333D01*
X27650000Y-27450000D01*
X27616666Y-27416666D01*
X27616666Y-27483333D01*
X28050000Y-28116666D02*
X27983333Y-28083333D01*
X27950000Y-28016666D01*
X27950000Y-27416666D01*
X28550000Y-27750000D02*
X28650000Y-27783333D01*
X28683333Y-27816666D01*
X28716666Y-27883333D01*
X28716666Y-27983333D01*
X28683333Y-28050000D01*
X28650000Y-28083333D01*
X28583333Y-28116666D01*
X28316666Y-28116666D01*
X28316666Y-27416666D01*
X28550000Y-27416666D01*
X28616666Y-27450000D01*
X28650000Y-27483333D01*
X28683333Y-27550000D01*
X28683333Y-27616666D01*
X28650000Y-27683333D01*
X28616666Y-27716666D01*
X28550000Y-27750000D01*
X28316666Y-27750000D01*
X29116666Y-28116666D02*
X29050000Y-28083333D01*
X29016666Y-28050000D01*
X28983333Y-27983333D01*
X28983333Y-27783333D01*
X29016666Y-27716666D01*
X29050000Y-27683333D01*
X29116666Y-27650000D01*
X29216666Y-27650000D01*
X29283333Y-27683333D01*
X29316666Y-27716666D01*
X29350000Y-27783333D01*
X29350000Y-27983333D01*
X29316666Y-28050000D01*
X29283333Y-28083333D01*
X29216666Y-28116666D01*
X29116666Y-28116666D01*
X29950000Y-28116666D02*
X29950000Y-27750000D01*
X29916666Y-27683333D01*
X29850000Y-27650000D01*
X29716666Y-27650000D01*
X29650000Y-27683333D01*
X29950000Y-28083333D02*
X29883333Y-28116666D01*
X29716666Y-28116666D01*
X29650000Y-28083333D01*
X29616666Y-28016666D01*
X29616666Y-27950000D01*
X29650000Y-27883333D01*
X29716666Y-27850000D01*
X29883333Y-27850000D01*
X29950000Y-27816666D01*
X30283333Y-28116666D02*
X30283333Y-27650000D01*
X30283333Y-27783333D02*
X30316666Y-27716666D01*
X30350000Y-27683333D01*
X30416666Y-27650000D01*
X30483333Y-27650000D01*
X31016666Y-28116666D02*
X31016666Y-27416666D01*
X31016666Y-28083333D02*
X30950000Y-28116666D01*
X30816666Y-28116666D01*
X30750000Y-28083333D01*
X30716666Y-28050000D01*
X30683333Y-27983333D01*
X30683333Y-27783333D01*
X30716666Y-27716666D01*
X30750000Y-27683333D01*
X30816666Y-27650000D01*
X30950000Y-27650000D01*
X31016666Y-27683333D01*
X22983333Y-7750000D02*
X23216666Y-7750000D01*
X23316666Y-8116666D02*
X22983333Y-8116666D01*
X22983333Y-7416666D01*
X23316666Y-7416666D01*
X23616666Y-7650000D02*
X23616666Y-8116666D01*
X23616666Y-7716666D02*
X23650000Y-7683333D01*
X23716666Y-7650000D01*
X23816666Y-7650000D01*
X23883333Y-7683333D01*
X23916666Y-7750000D01*
X23916666Y-8116666D01*
X24550000Y-8116666D02*
X24550000Y-7416666D01*
X24550000Y-8083333D02*
X24483333Y-8116666D01*
X24350000Y-8116666D01*
X24283333Y-8083333D01*
X24250000Y-8050000D01*
X24216666Y-7983333D01*
X24216666Y-7783333D01*
X24250000Y-7716666D01*
X24283333Y-7683333D01*
X24350000Y-7650000D01*
X24483333Y-7650000D01*
X24550000Y-7683333D01*
X24883333Y-8116666D02*
X24883333Y-7416666D01*
X25150000Y-7416666D01*
X25216666Y-7450000D01*
X25250000Y-7483333D01*
X25283333Y-7550000D01*
X25283333Y-7650000D01*
X25250000Y-7716666D01*
X25216666Y-7750000D01*
X25150000Y-7783333D01*
X24883333Y-7783333D01*
X25983333Y-8050000D02*
X25950000Y-8083333D01*
X25850000Y-8116666D01*
X25783333Y-8116666D01*
X25683333Y-8083333D01*
X25616666Y-8016666D01*
X25583333Y-7950000D01*
X25550000Y-7816666D01*
X25550000Y-7716666D01*
X25583333Y-7583333D01*
X25616666Y-7516666D01*
X25683333Y-7450000D01*
X25783333Y-7416666D01*
X25850000Y-7416666D01*
X25950000Y-7450000D01*
X25983333Y-7483333D01*
X26683333Y-8116666D02*
X26450000Y-7783333D01*
X26283333Y-8116666D02*
X26283333Y-7416666D01*
X26550000Y-7416666D01*
X26616666Y-7450000D01*
X26650000Y-7483333D01*
X26683333Y-7550000D01*
X26683333Y-7650000D01*
X26650000Y-7716666D01*
X26616666Y-7750000D01*
X26550000Y-7783333D01*
X26283333Y-7783333D01*
X27283333Y-8116666D02*
X27283333Y-7750000D01*
X27250000Y-7683333D01*
X27183333Y-7650000D01*
X27050000Y-7650000D01*
X26983333Y-7683333D01*
X27283333Y-8083333D02*
X27216666Y-8116666D01*
X27050000Y-8116666D01*
X26983333Y-8083333D01*
X26950000Y-8016666D01*
X26950000Y-7950000D01*
X26983333Y-7883333D01*
X27050000Y-7850000D01*
X27216666Y-7850000D01*
X27283333Y-7816666D01*
X27616666Y-8116666D02*
X27616666Y-7650000D01*
X27616666Y-7416666D02*
X27583333Y-7450000D01*
X27616666Y-7483333D01*
X27650000Y-7450000D01*
X27616666Y-7416666D01*
X27616666Y-7483333D01*
X28050000Y-8116666D02*
X27983333Y-8083333D01*
X27950000Y-8016666D01*
X27950000Y-7416666D01*
X28550000Y-7750000D02*
X28650000Y-7783333D01*
X28683333Y-7816666D01*
X28716666Y-7883333D01*
X28716666Y-7983333D01*
X28683333Y-8050000D01*
X28650000Y-8083333D01*
X28583333Y-8116666D01*
X28316666Y-8116666D01*
X28316666Y-7416666D01*
X28550000Y-7416666D01*
X28616666Y-7450000D01*
X28650000Y-7483333D01*
X28683333Y-7550000D01*
X28683333Y-7616666D01*
X28650000Y-7683333D01*
X28616666Y-7716666D01*
X28550000Y-7750000D01*
X28316666Y-7750000D01*
X29116666Y-8116666D02*
X29050000Y-8083333D01*
X29016666Y-8050000D01*
X28983333Y-7983333D01*
X28983333Y-7783333D01*
X29016666Y-7716666D01*
X29050000Y-7683333D01*
X29116666Y-7650000D01*
X29216666Y-7650000D01*
X29283333Y-7683333D01*
X29316666Y-7716666D01*
X29350000Y-7783333D01*
X29350000Y-7983333D01*
X29316666Y-8050000D01*
X29283333Y-8083333D01*
X29216666Y-8116666D01*
X29116666Y-8116666D01*
X29950000Y-8116666D02*
X29950000Y-7750000D01*
X29916666Y-7683333D01*
X29850000Y-7650000D01*
X29716666Y-7650000D01*
X29650000Y-7683333D01*
X29950000Y-8083333D02*
X29883333Y-8116666D01*
X29716666Y-8116666D01*
X29650000Y-8083333D01*
X29616666Y-8016666D01*
X29616666Y-7950000D01*
X29650000Y-7883333D01*
X29716666Y-7850000D01*
X29883333Y-7850000D01*
X29950000Y-7816666D01*
X30283333Y-8116666D02*
X30283333Y-7650000D01*
X30283333Y-7783333D02*
X30316666Y-7716666D01*
X30350000Y-7683333D01*
X30416666Y-7650000D01*
X30483333Y-7650000D01*
X31016666Y-8116666D02*
X31016666Y-7416666D01*
X31016666Y-8083333D02*
X30950000Y-8116666D01*
X30816666Y-8116666D01*
X30750000Y-8083333D01*
X30716666Y-8050000D01*
X30683333Y-7983333D01*
X30683333Y-7783333D01*
X30716666Y-7716666D01*
X30750000Y-7683333D01*
X30816666Y-7650000D01*
X30950000Y-7650000D01*
X31016666Y-7683333D01*
X50983333Y-47750000D02*
X51216666Y-47750000D01*
X51316666Y-48116666D02*
X50983333Y-48116666D01*
X50983333Y-47416666D01*
X51316666Y-47416666D01*
X51616666Y-47650000D02*
X51616666Y-48116666D01*
X51616666Y-47716666D02*
X51650000Y-47683333D01*
X51716666Y-47650000D01*
X51816666Y-47650000D01*
X51883333Y-47683333D01*
X51916666Y-47750000D01*
X51916666Y-48116666D01*
X52550000Y-48116666D02*
X52550000Y-47416666D01*
X52550000Y-48083333D02*
X52483333Y-48116666D01*
X52350000Y-48116666D01*
X52283333Y-48083333D01*
X52250000Y-48050000D01*
X52216666Y-47983333D01*
X52216666Y-47783333D01*
X52250000Y-47716666D01*
X52283333Y-47683333D01*
X52350000Y-47650000D01*
X52483333Y-47650000D01*
X52550000Y-47683333D01*
X52883333Y-48116666D02*
X52883333Y-47416666D01*
X53150000Y-47416666D01*
X53216666Y-47450000D01*
X53250000Y-47483333D01*
X53283333Y-47550000D01*
X53283333Y-47650000D01*
X53250000Y-47716666D01*
X53216666Y-47750000D01*
X53150000Y-47783333D01*
X52883333Y-47783333D01*
X53983333Y-48050000D02*
X53950000Y-48083333D01*
X53850000Y-48116666D01*
X53783333Y-48116666D01*
X53683333Y-48083333D01*
X53616666Y-48016666D01*
X53583333Y-47950000D01*
X53550000Y-47816666D01*
X53550000Y-47716666D01*
X53583333Y-47583333D01*
X53616666Y-47516666D01*
X53683333Y-47450000D01*
X53783333Y-47416666D01*
X53850000Y-47416666D01*
X53950000Y-47450000D01*
X53983333Y-47483333D01*
X54683333Y-48116666D02*
X54450000Y-47783333D01*
X54283333Y-48116666D02*
X54283333Y-47416666D01*
X54550000Y-47416666D01*
X54616666Y-47450000D01*
X54650000Y-47483333D01*
X54683333Y-47550000D01*
X54683333Y-47650000D01*
X54650000Y-47716666D01*
X54616666Y-47750000D01*
X54550000Y-47783333D01*
X54283333Y-47783333D01*
X55283333Y-48116666D02*
X55283333Y-47750000D01*
X55250000Y-47683333D01*
X55183333Y-47650000D01*
X55050000Y-47650000D01*
X54983333Y-47683333D01*
X55283333Y-48083333D02*
X55216666Y-48116666D01*
X55050000Y-48116666D01*
X54983333Y-48083333D01*
X54950000Y-48016666D01*
X54950000Y-47950000D01*
X54983333Y-47883333D01*
X55050000Y-47850000D01*
X55216666Y-47850000D01*
X55283333Y-47816666D01*
X55616666Y-48116666D02*
X55616666Y-47650000D01*
X55616666Y-47416666D02*
X55583333Y-47450000D01*
X55616666Y-47483333D01*
X55650000Y-47450000D01*
X55616666Y-47416666D01*
X55616666Y-47483333D01*
X56050000Y-48116666D02*
X55983333Y-48083333D01*
X55950000Y-48016666D01*
X55950000Y-47416666D01*
X56550000Y-47750000D02*
X56650000Y-47783333D01*
X56683333Y-47816666D01*
X56716666Y-47883333D01*
X56716666Y-47983333D01*
X56683333Y-48050000D01*
X56650000Y-48083333D01*
X56583333Y-48116666D01*
X56316666Y-48116666D01*
X56316666Y-47416666D01*
X56550000Y-47416666D01*
X56616666Y-47450000D01*
X56650000Y-47483333D01*
X56683333Y-47550000D01*
X56683333Y-47616666D01*
X56650000Y-47683333D01*
X56616666Y-47716666D01*
X56550000Y-47750000D01*
X56316666Y-47750000D01*
X57116666Y-48116666D02*
X57050000Y-48083333D01*
X57016666Y-48050000D01*
X56983333Y-47983333D01*
X56983333Y-47783333D01*
X57016666Y-47716666D01*
X57050000Y-47683333D01*
X57116666Y-47650000D01*
X57216666Y-47650000D01*
X57283333Y-47683333D01*
X57316666Y-47716666D01*
X57350000Y-47783333D01*
X57350000Y-47983333D01*
X57316666Y-48050000D01*
X57283333Y-48083333D01*
X57216666Y-48116666D01*
X57116666Y-48116666D01*
X57950000Y-48116666D02*
X57950000Y-47750000D01*
X57916666Y-47683333D01*
X57850000Y-47650000D01*
X57716666Y-47650000D01*
X57650000Y-47683333D01*
X57950000Y-48083333D02*
X57883333Y-48116666D01*
X57716666Y-48116666D01*
X57650000Y-48083333D01*
X57616666Y-48016666D01*
X57616666Y-47950000D01*
X57650000Y-47883333D01*
X57716666Y-47850000D01*
X57883333Y-47850000D01*
X57950000Y-47816666D01*
X58283333Y-48116666D02*
X58283333Y-47650000D01*
X58283333Y-47783333D02*
X58316666Y-47716666D01*
X58350000Y-47683333D01*
X58416666Y-47650000D01*
X58483333Y-47650000D01*
X59016666Y-48116666D02*
X59016666Y-47416666D01*
X59016666Y-48083333D02*
X58950000Y-48116666D01*
X58816666Y-48116666D01*
X58750000Y-48083333D01*
X58716666Y-48050000D01*
X58683333Y-47983333D01*
X58683333Y-47783333D01*
X58716666Y-47716666D01*
X58750000Y-47683333D01*
X58816666Y-47650000D01*
X58950000Y-47650000D01*
X59016666Y-47683333D01*
X50983333Y-7750000D02*
X51216666Y-7750000D01*
X51316666Y-8116666D02*
X50983333Y-8116666D01*
X50983333Y-7416666D01*
X51316666Y-7416666D01*
X51616666Y-7650000D02*
X51616666Y-8116666D01*
X51616666Y-7716666D02*
X51650000Y-7683333D01*
X51716666Y-7650000D01*
X51816666Y-7650000D01*
X51883333Y-7683333D01*
X51916666Y-7750000D01*
X51916666Y-8116666D01*
X52550000Y-8116666D02*
X52550000Y-7416666D01*
X52550000Y-8083333D02*
X52483333Y-8116666D01*
X52350000Y-8116666D01*
X52283333Y-8083333D01*
X52250000Y-8050000D01*
X52216666Y-7983333D01*
X52216666Y-7783333D01*
X52250000Y-7716666D01*
X52283333Y-7683333D01*
X52350000Y-7650000D01*
X52483333Y-7650000D01*
X52550000Y-7683333D01*
X52883333Y-8116666D02*
X52883333Y-7416666D01*
X53150000Y-7416666D01*
X53216666Y-7450000D01*
X53250000Y-7483333D01*
X53283333Y-7550000D01*
X53283333Y-7650000D01*
X53250000Y-7716666D01*
X53216666Y-7750000D01*
X53150000Y-7783333D01*
X52883333Y-7783333D01*
X53983333Y-8050000D02*
X53950000Y-8083333D01*
X53850000Y-8116666D01*
X53783333Y-8116666D01*
X53683333Y-8083333D01*
X53616666Y-8016666D01*
X53583333Y-7950000D01*
X53550000Y-7816666D01*
X53550000Y-7716666D01*
X53583333Y-7583333D01*
X53616666Y-7516666D01*
X53683333Y-7450000D01*
X53783333Y-7416666D01*
X53850000Y-7416666D01*
X53950000Y-7450000D01*
X53983333Y-7483333D01*
X54683333Y-8116666D02*
X54450000Y-7783333D01*
X54283333Y-8116666D02*
X54283333Y-7416666D01*
X54550000Y-7416666D01*
X54616666Y-7450000D01*
X54650000Y-7483333D01*
X54683333Y-7550000D01*
X54683333Y-7650000D01*
X54650000Y-7716666D01*
X54616666Y-7750000D01*
X54550000Y-7783333D01*
X54283333Y-7783333D01*
X55283333Y-8116666D02*
X55283333Y-7750000D01*
X55250000Y-7683333D01*
X55183333Y-7650000D01*
X55050000Y-7650000D01*
X54983333Y-7683333D01*
X55283333Y-8083333D02*
X55216666Y-8116666D01*
X55050000Y-8116666D01*
X54983333Y-8083333D01*
X54950000Y-8016666D01*
X54950000Y-7950000D01*
X54983333Y-7883333D01*
X55050000Y-7850000D01*
X55216666Y-7850000D01*
X55283333Y-7816666D01*
X55616666Y-8116666D02*
X55616666Y-7650000D01*
X55616666Y-7416666D02*
X55583333Y-7450000D01*
X55616666Y-7483333D01*
X55650000Y-7450000D01*
X55616666Y-7416666D01*
X55616666Y-7483333D01*
X56050000Y-8116666D02*
X55983333Y-8083333D01*
X55950000Y-8016666D01*
X55950000Y-7416666D01*
X56550000Y-7750000D02*
X56650000Y-7783333D01*
X56683333Y-7816666D01*
X56716666Y-7883333D01*
X56716666Y-7983333D01*
X56683333Y-8050000D01*
X56650000Y-8083333D01*
X56583333Y-8116666D01*
X56316666Y-8116666D01*
X56316666Y-7416666D01*
X56550000Y-7416666D01*
X56616666Y-7450000D01*
X56650000Y-7483333D01*
X56683333Y-7550000D01*
X56683333Y-7616666D01*
X56650000Y-7683333D01*
X56616666Y-7716666D01*
X56550000Y-7750000D01*
X56316666Y-7750000D01*
X57116666Y-8116666D02*
X57050000Y-8083333D01*
X57016666Y-8050000D01*
X56983333Y-7983333D01*
X56983333Y-7783333D01*
X57016666Y-7716666D01*
X57050000Y-7683333D01*
X57116666Y-7650000D01*
X57216666Y-7650000D01*
X57283333Y-7683333D01*
X57316666Y-7716666D01*
X57350000Y-7783333D01*
X57350000Y-7983333D01*
X57316666Y-8050000D01*
X57283333Y-8083333D01*
X57216666Y-8116666D01*
X57116666Y-8116666D01*
X57950000Y-8116666D02*
X57950000Y-7750000D01*
X57916666Y-7683333D01*
X57850000Y-7650000D01*
X57716666Y-7650000D01*
X57650000Y-7683333D01*
X57950000Y-8083333D02*
X57883333Y-8116666D01*
X57716666Y-8116666D01*
X57650000Y-8083333D01*
X57616666Y-8016666D01*
X57616666Y-7950000D01*
X57650000Y-7883333D01*
X57716666Y-7850000D01*
X57883333Y-7850000D01*
X57950000Y-7816666D01*
X58283333Y-8116666D02*
X58283333Y-7650000D01*
X58283333Y-7783333D02*
X58316666Y-7716666D01*
X58350000Y-7683333D01*
X58416666Y-7650000D01*
X58483333Y-7650000D01*
X59016666Y-8116666D02*
X59016666Y-7416666D01*
X59016666Y-8083333D02*
X58950000Y-8116666D01*
X58816666Y-8116666D01*
X58750000Y-8083333D01*
X58716666Y-8050000D01*
X58683333Y-7983333D01*
X58683333Y-7783333D01*
X58716666Y-7716666D01*
X58750000Y-7683333D01*
X58816666Y-7650000D01*
X58950000Y-7650000D01*
X59016666Y-7683333D01*
X22983333Y-67750000D02*
X23216666Y-67750000D01*
X23316666Y-68116666D02*
X22983333Y-68116666D01*
X22983333Y-67416666D01*
X23316666Y-67416666D01*
X23616666Y-67650000D02*
X23616666Y-68116666D01*
X23616666Y-67716666D02*
X23650000Y-67683333D01*
X23716666Y-67650000D01*
X23816666Y-67650000D01*
X23883333Y-67683333D01*
X23916666Y-67750000D01*
X23916666Y-68116666D01*
X24550000Y-68116666D02*
X24550000Y-67416666D01*
X24550000Y-68083333D02*
X24483333Y-68116666D01*
X24350000Y-68116666D01*
X24283333Y-68083333D01*
X24250000Y-68050000D01*
X24216666Y-67983333D01*
X24216666Y-67783333D01*
X24250000Y-67716666D01*
X24283333Y-67683333D01*
X24350000Y-67650000D01*
X24483333Y-67650000D01*
X24550000Y-67683333D01*
X24883333Y-68116666D02*
X24883333Y-67416666D01*
X25150000Y-67416666D01*
X25216666Y-67450000D01*
X25250000Y-67483333D01*
X25283333Y-67550000D01*
X25283333Y-67650000D01*
X25250000Y-67716666D01*
X25216666Y-67750000D01*
X25150000Y-67783333D01*
X24883333Y-67783333D01*
X25983333Y-68050000D02*
X25950000Y-68083333D01*
X25850000Y-68116666D01*
X25783333Y-68116666D01*
X25683333Y-68083333D01*
X25616666Y-68016666D01*
X25583333Y-67950000D01*
X25550000Y-67816666D01*
X25550000Y-67716666D01*
X25583333Y-67583333D01*
X25616666Y-67516666D01*
X25683333Y-67450000D01*
X25783333Y-67416666D01*
X25850000Y-67416666D01*
X25950000Y-67450000D01*
X25983333Y-67483333D01*
X26683333Y-68116666D02*
X26450000Y-67783333D01*
X26283333Y-68116666D02*
X26283333Y-67416666D01*
X26550000Y-67416666D01*
X26616666Y-67450000D01*
X26650000Y-67483333D01*
X26683333Y-67550000D01*
X26683333Y-67650000D01*
X26650000Y-67716666D01*
X26616666Y-67750000D01*
X26550000Y-67783333D01*
X26283333Y-67783333D01*
X27283333Y-68116666D02*
X27283333Y-67750000D01*
X27250000Y-67683333D01*
X27183333Y-67650000D01*
X27050000Y-67650000D01*
X26983333Y-67683333D01*
X27283333Y-68083333D02*
X27216666Y-68116666D01*
X27050000Y-68116666D01*
X26983333Y-68083333D01*
X26950000Y-68016666D01*
X26950000Y-67950000D01*
X26983333Y-67883333D01*
X27050000Y-67850000D01*
X27216666Y-67850000D01*
X27283333Y-67816666D01*
X27616666Y-68116666D02*
X27616666Y-67650000D01*
X27616666Y-67416666D02*
X27583333Y-67450000D01*
X27616666Y-67483333D01*
X27650000Y-67450000D01*
X27616666Y-67416666D01*
X27616666Y-67483333D01*
X28050000Y-68116666D02*
X27983333Y-68083333D01*
X27950000Y-68016666D01*
X27950000Y-67416666D01*
X28550000Y-67750000D02*
X28650000Y-67783333D01*
X28683333Y-67816666D01*
X28716666Y-67883333D01*
X28716666Y-67983333D01*
X28683333Y-68050000D01*
X28650000Y-68083333D01*
X28583333Y-68116666D01*
X28316666Y-68116666D01*
X28316666Y-67416666D01*
X28550000Y-67416666D01*
X28616666Y-67450000D01*
X28650000Y-67483333D01*
X28683333Y-67550000D01*
X28683333Y-67616666D01*
X28650000Y-67683333D01*
X28616666Y-67716666D01*
X28550000Y-67750000D01*
X28316666Y-67750000D01*
X29116666Y-68116666D02*
X29050000Y-68083333D01*
X29016666Y-68050000D01*
X28983333Y-67983333D01*
X28983333Y-67783333D01*
X29016666Y-67716666D01*
X29050000Y-67683333D01*
X29116666Y-67650000D01*
X29216666Y-67650000D01*
X29283333Y-67683333D01*
X29316666Y-67716666D01*
X29350000Y-67783333D01*
X29350000Y-67983333D01*
X29316666Y-68050000D01*
X29283333Y-68083333D01*
X29216666Y-68116666D01*
X29116666Y-68116666D01*
X29950000Y-68116666D02*
X29950000Y-67750000D01*
X29916666Y-67683333D01*
X29850000Y-67650000D01*
X29716666Y-67650000D01*
X29650000Y-67683333D01*
X29950000Y-68083333D02*
X29883333Y-68116666D01*
X29716666Y-68116666D01*
X29650000Y-68083333D01*
X29616666Y-68016666D01*
X29616666Y-67950000D01*
X29650000Y-67883333D01*
X29716666Y-67850000D01*
X29883333Y-67850000D01*
X29950000Y-67816666D01*
X30283333Y-68116666D02*
X30283333Y-67650000D01*
X30283333Y-67783333D02*
X30316666Y-67716666D01*
X30350000Y-67683333D01*
X30416666Y-67650000D01*
X30483333Y-67650000D01*
X31016666Y-68116666D02*
X31016666Y-67416666D01*
X31016666Y-68083333D02*
X30950000Y-68116666D01*
X30816666Y-68116666D01*
X30750000Y-68083333D01*
X30716666Y-68050000D01*
X30683333Y-67983333D01*
X30683333Y-67783333D01*
X30716666Y-67716666D01*
X30750000Y-67683333D01*
X30816666Y-67650000D01*
X30950000Y-67650000D01*
X31016666Y-67683333D01*
X36983333Y-27750000D02*
X37216666Y-27750000D01*
X37316666Y-28116666D02*
X36983333Y-28116666D01*
X36983333Y-27416666D01*
X37316666Y-27416666D01*
X37616666Y-27650000D02*
X37616666Y-28116666D01*
X37616666Y-27716666D02*
X37650000Y-27683333D01*
X37716666Y-27650000D01*
X37816666Y-27650000D01*
X37883333Y-27683333D01*
X37916666Y-27750000D01*
X37916666Y-28116666D01*
X38550000Y-28116666D02*
X38550000Y-27416666D01*
X38550000Y-28083333D02*
X38483333Y-28116666D01*
X38350000Y-28116666D01*
X38283333Y-28083333D01*
X38250000Y-28050000D01*
X38216666Y-27983333D01*
X38216666Y-27783333D01*
X38250000Y-27716666D01*
X38283333Y-27683333D01*
X38350000Y-27650000D01*
X38483333Y-27650000D01*
X38550000Y-27683333D01*
X38883333Y-28116666D02*
X38883333Y-27416666D01*
X39150000Y-27416666D01*
X39216666Y-27450000D01*
X39250000Y-27483333D01*
X39283333Y-27550000D01*
X39283333Y-27650000D01*
X39250000Y-27716666D01*
X39216666Y-27750000D01*
X39150000Y-27783333D01*
X38883333Y-27783333D01*
X39983333Y-28050000D02*
X39950000Y-28083333D01*
X39850000Y-28116666D01*
X39783333Y-28116666D01*
X39683333Y-28083333D01*
X39616666Y-28016666D01*
X39583333Y-27950000D01*
X39550000Y-27816666D01*
X39550000Y-27716666D01*
X39583333Y-27583333D01*
X39616666Y-27516666D01*
X39683333Y-27450000D01*
X39783333Y-27416666D01*
X39850000Y-27416666D01*
X39950000Y-27450000D01*
X39983333Y-27483333D01*
X40683333Y-28116666D02*
X40450000Y-27783333D01*
X40283333Y-28116666D02*
X40283333Y-27416666D01*
X40550000Y-27416666D01*
X40616666Y-27450000D01*
X40650000Y-27483333D01*
X40683333Y-27550000D01*
X40683333Y-27650000D01*
X40650000Y-27716666D01*
X40616666Y-27750000D01*
X40550000Y-27783333D01*
X40283333Y-27783333D01*
X41283333Y-28116666D02*
X41283333Y-27750000D01*
X41250000Y-27683333D01*
X41183333Y-27650000D01*
X41050000Y-27650000D01*
X40983333Y-27683333D01*
X41283333Y-28083333D02*
X41216666Y-28116666D01*
X41050000Y-28116666D01*
X40983333Y-28083333D01*
X40950000Y-28016666D01*
X40950000Y-27950000D01*
X40983333Y-27883333D01*
X41050000Y-27850000D01*
X41216666Y-27850000D01*
X41283333Y-27816666D01*
X41616666Y-28116666D02*
X41616666Y-27650000D01*
X41616666Y-27416666D02*
X41583333Y-27450000D01*
X41616666Y-27483333D01*
X41650000Y-27450000D01*
X41616666Y-27416666D01*
X41616666Y-27483333D01*
X42050000Y-28116666D02*
X41983333Y-28083333D01*
X41950000Y-28016666D01*
X41950000Y-27416666D01*
X42550000Y-27750000D02*
X42650000Y-27783333D01*
X42683333Y-27816666D01*
X42716666Y-27883333D01*
X42716666Y-27983333D01*
X42683333Y-28050000D01*
X42650000Y-28083333D01*
X42583333Y-28116666D01*
X42316666Y-28116666D01*
X42316666Y-27416666D01*
X42550000Y-27416666D01*
X42616666Y-27450000D01*
X42650000Y-27483333D01*
X42683333Y-27550000D01*
X42683333Y-27616666D01*
X42650000Y-27683333D01*
X42616666Y-27716666D01*
X42550000Y-27750000D01*
X42316666Y-27750000D01*
X43116666Y-28116666D02*
X43050000Y-28083333D01*
X43016666Y-28050000D01*
X42983333Y-27983333D01*
X42983333Y-27783333D01*
X43016666Y-27716666D01*
X43050000Y-27683333D01*
X43116666Y-27650000D01*
X43216666Y-27650000D01*
X43283333Y-27683333D01*
X43316666Y-27716666D01*
X43350000Y-27783333D01*
X43350000Y-27983333D01*
X43316666Y-28050000D01*
X43283333Y-28083333D01*
X43216666Y-28116666D01*
X43116666Y-28116666D01*
X43950000Y-28116666D02*
X43950000Y-27750000D01*
X43916666Y-27683333D01*
X43850000Y-27650000D01*
X43716666Y-27650000D01*
X43650000Y-27683333D01*
X43950000Y-28083333D02*
X43883333Y-28116666D01*
X43716666Y-28116666D01*
X43650000Y-28083333D01*
X43616666Y-28016666D01*
X43616666Y-27950000D01*
X43650000Y-27883333D01*
X43716666Y-27850000D01*
X43883333Y-27850000D01*
X43950000Y-27816666D01*
X44283333Y-28116666D02*
X44283333Y-27650000D01*
X44283333Y-27783333D02*
X44316666Y-27716666D01*
X44350000Y-27683333D01*
X44416666Y-27650000D01*
X44483333Y-27650000D01*
X45016666Y-28116666D02*
X45016666Y-27416666D01*
X45016666Y-28083333D02*
X44950000Y-28116666D01*
X44816666Y-28116666D01*
X44750000Y-28083333D01*
X44716666Y-28050000D01*
X44683333Y-27983333D01*
X44683333Y-27783333D01*
X44716666Y-27716666D01*
X44750000Y-27683333D01*
X44816666Y-27650000D01*
X44950000Y-27650000D01*
X45016666Y-27683333D01*
X22983333Y-47750000D02*
X23216666Y-47750000D01*
X23316666Y-48116666D02*
X22983333Y-48116666D01*
X22983333Y-47416666D01*
X23316666Y-47416666D01*
X23616666Y-47650000D02*
X23616666Y-48116666D01*
X23616666Y-47716666D02*
X23650000Y-47683333D01*
X23716666Y-47650000D01*
X23816666Y-47650000D01*
X23883333Y-47683333D01*
X23916666Y-47750000D01*
X23916666Y-48116666D01*
X24550000Y-48116666D02*
X24550000Y-47416666D01*
X24550000Y-48083333D02*
X24483333Y-48116666D01*
X24350000Y-48116666D01*
X24283333Y-48083333D01*
X24250000Y-48050000D01*
X24216666Y-47983333D01*
X24216666Y-47783333D01*
X24250000Y-47716666D01*
X24283333Y-47683333D01*
X24350000Y-47650000D01*
X24483333Y-47650000D01*
X24550000Y-47683333D01*
X24883333Y-48116666D02*
X24883333Y-47416666D01*
X25150000Y-47416666D01*
X25216666Y-47450000D01*
X25250000Y-47483333D01*
X25283333Y-47550000D01*
X25283333Y-47650000D01*
X25250000Y-47716666D01*
X25216666Y-47750000D01*
X25150000Y-47783333D01*
X24883333Y-47783333D01*
X25983333Y-48050000D02*
X25950000Y-48083333D01*
X25850000Y-48116666D01*
X25783333Y-48116666D01*
X25683333Y-48083333D01*
X25616666Y-48016666D01*
X25583333Y-47950000D01*
X25550000Y-47816666D01*
X25550000Y-47716666D01*
X25583333Y-47583333D01*
X25616666Y-47516666D01*
X25683333Y-47450000D01*
X25783333Y-47416666D01*
X25850000Y-47416666D01*
X25950000Y-47450000D01*
X25983333Y-47483333D01*
X26683333Y-48116666D02*
X26450000Y-47783333D01*
X26283333Y-48116666D02*
X26283333Y-47416666D01*
X26550000Y-47416666D01*
X26616666Y-47450000D01*
X26650000Y-47483333D01*
X26683333Y-47550000D01*
X26683333Y-47650000D01*
X26650000Y-47716666D01*
X26616666Y-47750000D01*
X26550000Y-47783333D01*
X26283333Y-47783333D01*
X27283333Y-48116666D02*
X27283333Y-47750000D01*
X27250000Y-47683333D01*
X27183333Y-47650000D01*
X27050000Y-47650000D01*
X26983333Y-47683333D01*
X27283333Y-48083333D02*
X27216666Y-48116666D01*
X27050000Y-48116666D01*
X26983333Y-48083333D01*
X26950000Y-48016666D01*
X26950000Y-47950000D01*
X26983333Y-47883333D01*
X27050000Y-47850000D01*
X27216666Y-47850000D01*
X27283333Y-47816666D01*
X27616666Y-48116666D02*
X27616666Y-47650000D01*
X27616666Y-47416666D02*
X27583333Y-47450000D01*
X27616666Y-47483333D01*
X27650000Y-47450000D01*
X27616666Y-47416666D01*
X27616666Y-47483333D01*
X28050000Y-48116666D02*
X27983333Y-48083333D01*
X27950000Y-48016666D01*
X27950000Y-47416666D01*
X28550000Y-47750000D02*
X28650000Y-47783333D01*
X28683333Y-47816666D01*
X28716666Y-47883333D01*
X28716666Y-47983333D01*
X28683333Y-48050000D01*
X28650000Y-48083333D01*
X28583333Y-48116666D01*
X28316666Y-48116666D01*
X28316666Y-47416666D01*
X28550000Y-47416666D01*
X28616666Y-47450000D01*
X28650000Y-47483333D01*
X28683333Y-47550000D01*
X28683333Y-47616666D01*
X28650000Y-47683333D01*
X28616666Y-47716666D01*
X28550000Y-47750000D01*
X28316666Y-47750000D01*
X29116666Y-48116666D02*
X29050000Y-48083333D01*
X29016666Y-48050000D01*
X28983333Y-47983333D01*
X28983333Y-47783333D01*
X29016666Y-47716666D01*
X29050000Y-47683333D01*
X29116666Y-47650000D01*
X29216666Y-47650000D01*
X29283333Y-47683333D01*
X29316666Y-47716666D01*
X29350000Y-47783333D01*
X29350000Y-47983333D01*
X29316666Y-48050000D01*
X29283333Y-48083333D01*
X29216666Y-48116666D01*
X29116666Y-48116666D01*
X29950000Y-48116666D02*
X29950000Y-47750000D01*
X29916666Y-47683333D01*
X29850000Y-47650000D01*
X29716666Y-47650000D01*
X29650000Y-47683333D01*
X29950000Y-48083333D02*
X29883333Y-48116666D01*
X29716666Y-48116666D01*
X29650000Y-48083333D01*
X29616666Y-48016666D01*
X29616666Y-47950000D01*
X29650000Y-47883333D01*
X29716666Y-47850000D01*
X29883333Y-47850000D01*
X29950000Y-47816666D01*
X30283333Y-48116666D02*
X30283333Y-47650000D01*
X30283333Y-47783333D02*
X30316666Y-47716666D01*
X30350000Y-47683333D01*
X30416666Y-47650000D01*
X30483333Y-47650000D01*
X31016666Y-48116666D02*
X31016666Y-47416666D01*
X31016666Y-48083333D02*
X30950000Y-48116666D01*
X30816666Y-48116666D01*
X30750000Y-48083333D01*
X30716666Y-48050000D01*
X30683333Y-47983333D01*
X30683333Y-47783333D01*
X30716666Y-47716666D01*
X30750000Y-47683333D01*
X30816666Y-47650000D01*
X30950000Y-47650000D01*
X31016666Y-47683333D01*
X64983333Y-7750000D02*
X65216666Y-7750000D01*
X65316666Y-8116666D02*
X64983333Y-8116666D01*
X64983333Y-7416666D01*
X65316666Y-7416666D01*
X65616666Y-7650000D02*
X65616666Y-8116666D01*
X65616666Y-7716666D02*
X65650000Y-7683333D01*
X65716666Y-7650000D01*
X65816666Y-7650000D01*
X65883333Y-7683333D01*
X65916666Y-7750000D01*
X65916666Y-8116666D01*
X66550000Y-8116666D02*
X66550000Y-7416666D01*
X66550000Y-8083333D02*
X66483333Y-8116666D01*
X66350000Y-8116666D01*
X66283333Y-8083333D01*
X66250000Y-8050000D01*
X66216666Y-7983333D01*
X66216666Y-7783333D01*
X66250000Y-7716666D01*
X66283333Y-7683333D01*
X66350000Y-7650000D01*
X66483333Y-7650000D01*
X66550000Y-7683333D01*
X66883333Y-8116666D02*
X66883333Y-7416666D01*
X67150000Y-7416666D01*
X67216666Y-7450000D01*
X67250000Y-7483333D01*
X67283333Y-7550000D01*
X67283333Y-7650000D01*
X67250000Y-7716666D01*
X67216666Y-7750000D01*
X67150000Y-7783333D01*
X66883333Y-7783333D01*
X67983333Y-8050000D02*
X67950000Y-8083333D01*
X67850000Y-8116666D01*
X67783333Y-8116666D01*
X67683333Y-8083333D01*
X67616666Y-8016666D01*
X67583333Y-7950000D01*
X67550000Y-7816666D01*
X67550000Y-7716666D01*
X67583333Y-7583333D01*
X67616666Y-7516666D01*
X67683333Y-7450000D01*
X67783333Y-7416666D01*
X67850000Y-7416666D01*
X67950000Y-7450000D01*
X67983333Y-7483333D01*
X68683333Y-8116666D02*
X68450000Y-7783333D01*
X68283333Y-8116666D02*
X68283333Y-7416666D01*
X68550000Y-7416666D01*
X68616666Y-7450000D01*
X68650000Y-7483333D01*
X68683333Y-7550000D01*
X68683333Y-7650000D01*
X68650000Y-7716666D01*
X68616666Y-7750000D01*
X68550000Y-7783333D01*
X68283333Y-7783333D01*
X69283333Y-8116666D02*
X69283333Y-7750000D01*
X69250000Y-7683333D01*
X69183333Y-7650000D01*
X69050000Y-7650000D01*
X68983333Y-7683333D01*
X69283333Y-8083333D02*
X69216666Y-8116666D01*
X69050000Y-8116666D01*
X68983333Y-8083333D01*
X68950000Y-8016666D01*
X68950000Y-7950000D01*
X68983333Y-7883333D01*
X69050000Y-7850000D01*
X69216666Y-7850000D01*
X69283333Y-7816666D01*
X69616666Y-8116666D02*
X69616666Y-7650000D01*
X69616666Y-7416666D02*
X69583333Y-7450000D01*
X69616666Y-7483333D01*
X69650000Y-7450000D01*
X69616666Y-7416666D01*
X69616666Y-7483333D01*
X70050000Y-8116666D02*
X69983333Y-8083333D01*
X69950000Y-8016666D01*
X69950000Y-7416666D01*
X70550000Y-7750000D02*
X70650000Y-7783333D01*
X70683333Y-7816666D01*
X70716666Y-7883333D01*
X70716666Y-7983333D01*
X70683333Y-8050000D01*
X70650000Y-8083333D01*
X70583333Y-8116666D01*
X70316666Y-8116666D01*
X70316666Y-7416666D01*
X70550000Y-7416666D01*
X70616666Y-7450000D01*
X70650000Y-7483333D01*
X70683333Y-7550000D01*
X70683333Y-7616666D01*
X70650000Y-7683333D01*
X70616666Y-7716666D01*
X70550000Y-7750000D01*
X70316666Y-7750000D01*
X71116666Y-8116666D02*
X71050000Y-8083333D01*
X71016666Y-8050000D01*
X70983333Y-7983333D01*
X70983333Y-7783333D01*
X71016666Y-7716666D01*
X71050000Y-7683333D01*
X71116666Y-7650000D01*
X71216666Y-7650000D01*
X71283333Y-7683333D01*
X71316666Y-7716666D01*
X71350000Y-7783333D01*
X71350000Y-7983333D01*
X71316666Y-8050000D01*
X71283333Y-8083333D01*
X71216666Y-8116666D01*
X71116666Y-8116666D01*
X71950000Y-8116666D02*
X71950000Y-7750000D01*
X71916666Y-7683333D01*
X71850000Y-7650000D01*
X71716666Y-7650000D01*
X71650000Y-7683333D01*
X71950000Y-8083333D02*
X71883333Y-8116666D01*
X71716666Y-8116666D01*
X71650000Y-8083333D01*
X71616666Y-8016666D01*
X71616666Y-7950000D01*
X71650000Y-7883333D01*
X71716666Y-7850000D01*
X71883333Y-7850000D01*
X71950000Y-7816666D01*
X72283333Y-8116666D02*
X72283333Y-7650000D01*
X72283333Y-7783333D02*
X72316666Y-7716666D01*
X72350000Y-7683333D01*
X72416666Y-7650000D01*
X72483333Y-7650000D01*
X73016666Y-8116666D02*
X73016666Y-7416666D01*
X73016666Y-8083333D02*
X72950000Y-8116666D01*
X72816666Y-8116666D01*
X72750000Y-8083333D01*
X72716666Y-8050000D01*
X72683333Y-7983333D01*
X72683333Y-7783333D01*
X72716666Y-7716666D01*
X72750000Y-7683333D01*
X72816666Y-7650000D01*
X72950000Y-7650000D01*
X73016666Y-7683333D01*
X8983333Y-27750000D02*
X9216666Y-27750000D01*
X9316666Y-28116666D02*
X8983333Y-28116666D01*
X8983333Y-27416666D01*
X9316666Y-27416666D01*
X9616666Y-27650000D02*
X9616666Y-28116666D01*
X9616666Y-27716666D02*
X9650000Y-27683333D01*
X9716666Y-27650000D01*
X9816666Y-27650000D01*
X9883333Y-27683333D01*
X9916666Y-27750000D01*
X9916666Y-28116666D01*
X10550000Y-28116666D02*
X10550000Y-27416666D01*
X10550000Y-28083333D02*
X10483333Y-28116666D01*
X10350000Y-28116666D01*
X10283333Y-28083333D01*
X10250000Y-28050000D01*
X10216666Y-27983333D01*
X10216666Y-27783333D01*
X10250000Y-27716666D01*
X10283333Y-27683333D01*
X10350000Y-27650000D01*
X10483333Y-27650000D01*
X10550000Y-27683333D01*
X10883333Y-28116666D02*
X10883333Y-27416666D01*
X11150000Y-27416666D01*
X11216666Y-27450000D01*
X11250000Y-27483333D01*
X11283333Y-27550000D01*
X11283333Y-27650000D01*
X11250000Y-27716666D01*
X11216666Y-27750000D01*
X11150000Y-27783333D01*
X10883333Y-27783333D01*
X11983333Y-28050000D02*
X11950000Y-28083333D01*
X11850000Y-28116666D01*
X11783333Y-28116666D01*
X11683333Y-28083333D01*
X11616666Y-28016666D01*
X11583333Y-27950000D01*
X11550000Y-27816666D01*
X11550000Y-27716666D01*
X11583333Y-27583333D01*
X11616666Y-27516666D01*
X11683333Y-27450000D01*
X11783333Y-27416666D01*
X11850000Y-27416666D01*
X11950000Y-27450000D01*
X11983333Y-27483333D01*
X12683333Y-28116666D02*
X12450000Y-27783333D01*
X12283333Y-28116666D02*
X12283333Y-27416666D01*
X12550000Y-27416666D01*
X12616666Y-27450000D01*
X12650000Y-27483333D01*
X12683333Y-27550000D01*
X12683333Y-27650000D01*
X12650000Y-27716666D01*
X12616666Y-27750000D01*
X12550000Y-27783333D01*
X12283333Y-27783333D01*
X13283333Y-28116666D02*
X13283333Y-27750000D01*
X13250000Y-27683333D01*
X13183333Y-27650000D01*
X13050000Y-27650000D01*
X12983333Y-27683333D01*
X13283333Y-28083333D02*
X13216666Y-28116666D01*
X13050000Y-28116666D01*
X12983333Y-28083333D01*
X12950000Y-28016666D01*
X12950000Y-27950000D01*
X12983333Y-27883333D01*
X13050000Y-27850000D01*
X13216666Y-27850000D01*
X13283333Y-27816666D01*
X13616666Y-28116666D02*
X13616666Y-27650000D01*
X13616666Y-27416666D02*
X13583333Y-27450000D01*
X13616666Y-27483333D01*
X13650000Y-27450000D01*
X13616666Y-27416666D01*
X13616666Y-27483333D01*
X14050000Y-28116666D02*
X13983333Y-28083333D01*
X13950000Y-28016666D01*
X13950000Y-27416666D01*
X14550000Y-27750000D02*
X14650000Y-27783333D01*
X14683333Y-27816666D01*
X14716666Y-27883333D01*
X14716666Y-27983333D01*
X14683333Y-28050000D01*
X14650000Y-28083333D01*
X14583333Y-28116666D01*
X14316666Y-28116666D01*
X14316666Y-27416666D01*
X14550000Y-27416666D01*
X14616666Y-27450000D01*
X14650000Y-27483333D01*
X14683333Y-27550000D01*
X14683333Y-27616666D01*
X14650000Y-27683333D01*
X14616666Y-27716666D01*
X14550000Y-27750000D01*
X14316666Y-27750000D01*
X15116666Y-28116666D02*
X15050000Y-28083333D01*
X15016666Y-28050000D01*
X14983333Y-27983333D01*
X14983333Y-27783333D01*
X15016666Y-27716666D01*
X15050000Y-27683333D01*
X15116666Y-27650000D01*
X15216666Y-27650000D01*
X15283333Y-27683333D01*
X15316666Y-27716666D01*
X15350000Y-27783333D01*
X15350000Y-27983333D01*
X15316666Y-28050000D01*
X15283333Y-28083333D01*
X15216666Y-28116666D01*
X15116666Y-28116666D01*
X15950000Y-28116666D02*
X15950000Y-27750000D01*
X15916666Y-27683333D01*
X15850000Y-27650000D01*
X15716666Y-27650000D01*
X15650000Y-27683333D01*
X15950000Y-28083333D02*
X15883333Y-28116666D01*
X15716666Y-28116666D01*
X15650000Y-28083333D01*
X15616666Y-28016666D01*
X15616666Y-27950000D01*
X15650000Y-27883333D01*
X15716666Y-27850000D01*
X15883333Y-27850000D01*
X15950000Y-27816666D01*
X16283333Y-28116666D02*
X16283333Y-27650000D01*
X16283333Y-27783333D02*
X16316666Y-27716666D01*
X16350000Y-27683333D01*
X16416666Y-27650000D01*
X16483333Y-27650000D01*
X17016666Y-28116666D02*
X17016666Y-27416666D01*
X17016666Y-28083333D02*
X16950000Y-28116666D01*
X16816666Y-28116666D01*
X16750000Y-28083333D01*
X16716666Y-28050000D01*
X16683333Y-27983333D01*
X16683333Y-27783333D01*
X16716666Y-27716666D01*
X16750000Y-27683333D01*
X16816666Y-27650000D01*
X16950000Y-27650000D01*
X17016666Y-27683333D01*
X64983333Y-67750000D02*
X65216666Y-67750000D01*
X65316666Y-68116666D02*
X64983333Y-68116666D01*
X64983333Y-67416666D01*
X65316666Y-67416666D01*
X65616666Y-67650000D02*
X65616666Y-68116666D01*
X65616666Y-67716666D02*
X65650000Y-67683333D01*
X65716666Y-67650000D01*
X65816666Y-67650000D01*
X65883333Y-67683333D01*
X65916666Y-67750000D01*
X65916666Y-68116666D01*
X66550000Y-68116666D02*
X66550000Y-67416666D01*
X66550000Y-68083333D02*
X66483333Y-68116666D01*
X66350000Y-68116666D01*
X66283333Y-68083333D01*
X66250000Y-68050000D01*
X66216666Y-67983333D01*
X66216666Y-67783333D01*
X66250000Y-67716666D01*
X66283333Y-67683333D01*
X66350000Y-67650000D01*
X66483333Y-67650000D01*
X66550000Y-67683333D01*
X66883333Y-68116666D02*
X66883333Y-67416666D01*
X67150000Y-67416666D01*
X67216666Y-67450000D01*
X67250000Y-67483333D01*
X67283333Y-67550000D01*
X67283333Y-67650000D01*
X67250000Y-67716666D01*
X67216666Y-67750000D01*
X67150000Y-67783333D01*
X66883333Y-67783333D01*
X67983333Y-68050000D02*
X67950000Y-68083333D01*
X67850000Y-68116666D01*
X67783333Y-68116666D01*
X67683333Y-68083333D01*
X67616666Y-68016666D01*
X67583333Y-67950000D01*
X67550000Y-67816666D01*
X67550000Y-67716666D01*
X67583333Y-67583333D01*
X67616666Y-67516666D01*
X67683333Y-67450000D01*
X67783333Y-67416666D01*
X67850000Y-67416666D01*
X67950000Y-67450000D01*
X67983333Y-67483333D01*
X68683333Y-68116666D02*
X68450000Y-67783333D01*
X68283333Y-68116666D02*
X68283333Y-67416666D01*
X68550000Y-67416666D01*
X68616666Y-67450000D01*
X68650000Y-67483333D01*
X68683333Y-67550000D01*
X68683333Y-67650000D01*
X68650000Y-67716666D01*
X68616666Y-67750000D01*
X68550000Y-67783333D01*
X68283333Y-67783333D01*
X69283333Y-68116666D02*
X69283333Y-67750000D01*
X69250000Y-67683333D01*
X69183333Y-67650000D01*
X69050000Y-67650000D01*
X68983333Y-67683333D01*
X69283333Y-68083333D02*
X69216666Y-68116666D01*
X69050000Y-68116666D01*
X68983333Y-68083333D01*
X68950000Y-68016666D01*
X68950000Y-67950000D01*
X68983333Y-67883333D01*
X69050000Y-67850000D01*
X69216666Y-67850000D01*
X69283333Y-67816666D01*
X69616666Y-68116666D02*
X69616666Y-67650000D01*
X69616666Y-67416666D02*
X69583333Y-67450000D01*
X69616666Y-67483333D01*
X69650000Y-67450000D01*
X69616666Y-67416666D01*
X69616666Y-67483333D01*
X70050000Y-68116666D02*
X69983333Y-68083333D01*
X69950000Y-68016666D01*
X69950000Y-67416666D01*
X70550000Y-67750000D02*
X70650000Y-67783333D01*
X70683333Y-67816666D01*
X70716666Y-67883333D01*
X70716666Y-67983333D01*
X70683333Y-68050000D01*
X70650000Y-68083333D01*
X70583333Y-68116666D01*
X70316666Y-68116666D01*
X70316666Y-67416666D01*
X70550000Y-67416666D01*
X70616666Y-67450000D01*
X70650000Y-67483333D01*
X70683333Y-67550000D01*
X70683333Y-67616666D01*
X70650000Y-67683333D01*
X70616666Y-67716666D01*
X70550000Y-67750000D01*
X70316666Y-67750000D01*
X71116666Y-68116666D02*
X71050000Y-68083333D01*
X71016666Y-68050000D01*
X70983333Y-67983333D01*
X70983333Y-67783333D01*
X71016666Y-67716666D01*
X71050000Y-67683333D01*
X71116666Y-67650000D01*
X71216666Y-67650000D01*
X71283333Y-67683333D01*
X71316666Y-67716666D01*
X71350000Y-67783333D01*
X71350000Y-67983333D01*
X71316666Y-68050000D01*
X71283333Y-68083333D01*
X71216666Y-68116666D01*
X71116666Y-68116666D01*
X71950000Y-68116666D02*
X71950000Y-67750000D01*
X71916666Y-67683333D01*
X71850000Y-67650000D01*
X71716666Y-67650000D01*
X71650000Y-67683333D01*
X71950000Y-68083333D02*
X71883333Y-68116666D01*
X71716666Y-68116666D01*
X71650000Y-68083333D01*
X71616666Y-68016666D01*
X71616666Y-67950000D01*
X71650000Y-67883333D01*
X71716666Y-67850000D01*
X71883333Y-67850000D01*
X71950000Y-67816666D01*
X72283333Y-68116666D02*
X72283333Y-67650000D01*
X72283333Y-67783333D02*
X72316666Y-67716666D01*
X72350000Y-67683333D01*
X72416666Y-67650000D01*
X72483333Y-67650000D01*
X73016666Y-68116666D02*
X73016666Y-67416666D01*
X73016666Y-68083333D02*
X72950000Y-68116666D01*
X72816666Y-68116666D01*
X72750000Y-68083333D01*
X72716666Y-68050000D01*
X72683333Y-67983333D01*
X72683333Y-67783333D01*
X72716666Y-67716666D01*
X72750000Y-67683333D01*
X72816666Y-67650000D01*
X72950000Y-67650000D01*
X73016666Y-67683333D01*
X36983333Y-7750000D02*
X37216666Y-7750000D01*
X37316666Y-8116666D02*
X36983333Y-8116666D01*
X36983333Y-7416666D01*
X37316666Y-7416666D01*
X37616666Y-7650000D02*
X37616666Y-8116666D01*
X37616666Y-7716666D02*
X37650000Y-7683333D01*
X37716666Y-7650000D01*
X37816666Y-7650000D01*
X37883333Y-7683333D01*
X37916666Y-7750000D01*
X37916666Y-8116666D01*
X38550000Y-8116666D02*
X38550000Y-7416666D01*
X38550000Y-8083333D02*
X38483333Y-8116666D01*
X38350000Y-8116666D01*
X38283333Y-8083333D01*
X38250000Y-8050000D01*
X38216666Y-7983333D01*
X38216666Y-7783333D01*
X38250000Y-7716666D01*
X38283333Y-7683333D01*
X38350000Y-7650000D01*
X38483333Y-7650000D01*
X38550000Y-7683333D01*
X38883333Y-8116666D02*
X38883333Y-7416666D01*
X39150000Y-7416666D01*
X39216666Y-7450000D01*
X39250000Y-7483333D01*
X39283333Y-7550000D01*
X39283333Y-7650000D01*
X39250000Y-7716666D01*
X39216666Y-7750000D01*
X39150000Y-7783333D01*
X38883333Y-7783333D01*
X39983333Y-8050000D02*
X39950000Y-8083333D01*
X39850000Y-8116666D01*
X39783333Y-8116666D01*
X39683333Y-8083333D01*
X39616666Y-8016666D01*
X39583333Y-7950000D01*
X39550000Y-7816666D01*
X39550000Y-7716666D01*
X39583333Y-7583333D01*
X39616666Y-7516666D01*
X39683333Y-7450000D01*
X39783333Y-7416666D01*
X39850000Y-7416666D01*
X39950000Y-7450000D01*
X39983333Y-7483333D01*
X40683333Y-8116666D02*
X40450000Y-7783333D01*
X40283333Y-8116666D02*
X40283333Y-7416666D01*
X40550000Y-7416666D01*
X40616666Y-7450000D01*
X40650000Y-7483333D01*
X40683333Y-7550000D01*
X40683333Y-7650000D01*
X40650000Y-7716666D01*
X40616666Y-7750000D01*
X40550000Y-7783333D01*
X40283333Y-7783333D01*
X41283333Y-8116666D02*
X41283333Y-7750000D01*
X41250000Y-7683333D01*
X41183333Y-7650000D01*
X41050000Y-7650000D01*
X40983333Y-7683333D01*
X41283333Y-8083333D02*
X41216666Y-8116666D01*
X41050000Y-8116666D01*
X40983333Y-8083333D01*
X40950000Y-8016666D01*
X40950000Y-7950000D01*
X40983333Y-7883333D01*
X41050000Y-7850000D01*
X41216666Y-7850000D01*
X41283333Y-7816666D01*
X41616666Y-8116666D02*
X41616666Y-7650000D01*
X41616666Y-7416666D02*
X41583333Y-7450000D01*
X41616666Y-7483333D01*
X41650000Y-7450000D01*
X41616666Y-7416666D01*
X41616666Y-7483333D01*
X42050000Y-8116666D02*
X41983333Y-8083333D01*
X41950000Y-8016666D01*
X41950000Y-7416666D01*
X42550000Y-7750000D02*
X42650000Y-7783333D01*
X42683333Y-7816666D01*
X42716666Y-7883333D01*
X42716666Y-7983333D01*
X42683333Y-8050000D01*
X42650000Y-8083333D01*
X42583333Y-8116666D01*
X42316666Y-8116666D01*
X42316666Y-7416666D01*
X42550000Y-7416666D01*
X42616666Y-7450000D01*
X42650000Y-7483333D01*
X42683333Y-7550000D01*
X42683333Y-7616666D01*
X42650000Y-7683333D01*
X42616666Y-7716666D01*
X42550000Y-7750000D01*
X42316666Y-7750000D01*
X43116666Y-8116666D02*
X43050000Y-8083333D01*
X43016666Y-8050000D01*
X42983333Y-7983333D01*
X42983333Y-7783333D01*
X43016666Y-7716666D01*
X43050000Y-7683333D01*
X43116666Y-7650000D01*
X43216666Y-7650000D01*
X43283333Y-7683333D01*
X43316666Y-7716666D01*
X43350000Y-7783333D01*
X43350000Y-7983333D01*
X43316666Y-8050000D01*
X43283333Y-8083333D01*
X43216666Y-8116666D01*
X43116666Y-8116666D01*
X43950000Y-8116666D02*
X43950000Y-7750000D01*
X43916666Y-7683333D01*
X43850000Y-7650000D01*
X43716666Y-7650000D01*
X43650000Y-7683333D01*
X43950000Y-8083333D02*
X43883333Y-8116666D01*
X43716666Y-8116666D01*
X43650000Y-8083333D01*
X43616666Y-8016666D01*
X43616666Y-7950000D01*
X43650000Y-7883333D01*
X43716666Y-7850000D01*
X43883333Y-7850000D01*
X43950000Y-7816666D01*
X44283333Y-8116666D02*
X44283333Y-7650000D01*
X44283333Y-7783333D02*
X44316666Y-7716666D01*
X44350000Y-7683333D01*
X44416666Y-7650000D01*
X44483333Y-7650000D01*
X45016666Y-8116666D02*
X45016666Y-7416666D01*
X45016666Y-8083333D02*
X44950000Y-8116666D01*
X44816666Y-8116666D01*
X44750000Y-8083333D01*
X44716666Y-8050000D01*
X44683333Y-7983333D01*
X44683333Y-7783333D01*
X44716666Y-7716666D01*
X44750000Y-7683333D01*
X44816666Y-7650000D01*
X44950000Y-7650000D01*
X45016666Y-7683333D01*
X8983333Y-7750000D02*
X9216666Y-7750000D01*
X9316666Y-8116666D02*
X8983333Y-8116666D01*
X8983333Y-7416666D01*
X9316666Y-7416666D01*
X9616666Y-7650000D02*
X9616666Y-8116666D01*
X9616666Y-7716666D02*
X9650000Y-7683333D01*
X9716666Y-7650000D01*
X9816666Y-7650000D01*
X9883333Y-7683333D01*
X9916666Y-7750000D01*
X9916666Y-8116666D01*
X10550000Y-8116666D02*
X10550000Y-7416666D01*
X10550000Y-8083333D02*
X10483333Y-8116666D01*
X10350000Y-8116666D01*
X10283333Y-8083333D01*
X10250000Y-8050000D01*
X10216666Y-7983333D01*
X10216666Y-7783333D01*
X10250000Y-7716666D01*
X10283333Y-7683333D01*
X10350000Y-7650000D01*
X10483333Y-7650000D01*
X10550000Y-7683333D01*
X10883333Y-8116666D02*
X10883333Y-7416666D01*
X11150000Y-7416666D01*
X11216666Y-7450000D01*
X11250000Y-7483333D01*
X11283333Y-7550000D01*
X11283333Y-7650000D01*
X11250000Y-7716666D01*
X11216666Y-7750000D01*
X11150000Y-7783333D01*
X10883333Y-7783333D01*
X11983333Y-8050000D02*
X11950000Y-8083333D01*
X11850000Y-8116666D01*
X11783333Y-8116666D01*
X11683333Y-8083333D01*
X11616666Y-8016666D01*
X11583333Y-7950000D01*
X11550000Y-7816666D01*
X11550000Y-7716666D01*
X11583333Y-7583333D01*
X11616666Y-7516666D01*
X11683333Y-7450000D01*
X11783333Y-7416666D01*
X11850000Y-7416666D01*
X11950000Y-7450000D01*
X11983333Y-7483333D01*
X12683333Y-8116666D02*
X12450000Y-7783333D01*
X12283333Y-8116666D02*
X12283333Y-7416666D01*
X12550000Y-7416666D01*
X12616666Y-7450000D01*
X12650000Y-7483333D01*
X12683333Y-7550000D01*
X12683333Y-7650000D01*
X12650000Y-7716666D01*
X12616666Y-7750000D01*
X12550000Y-7783333D01*
X12283333Y-7783333D01*
X13283333Y-8116666D02*
X13283333Y-7750000D01*
X13250000Y-7683333D01*
X13183333Y-7650000D01*
X13050000Y-7650000D01*
X12983333Y-7683333D01*
X13283333Y-8083333D02*
X13216666Y-8116666D01*
X13050000Y-8116666D01*
X12983333Y-8083333D01*
X12950000Y-8016666D01*
X12950000Y-7950000D01*
X12983333Y-7883333D01*
X13050000Y-7850000D01*
X13216666Y-7850000D01*
X13283333Y-7816666D01*
X13616666Y-8116666D02*
X13616666Y-7650000D01*
X13616666Y-7416666D02*
X13583333Y-7450000D01*
X13616666Y-7483333D01*
X13650000Y-7450000D01*
X13616666Y-7416666D01*
X13616666Y-7483333D01*
X14050000Y-8116666D02*
X13983333Y-8083333D01*
X13950000Y-8016666D01*
X13950000Y-7416666D01*
X14550000Y-7750000D02*
X14650000Y-7783333D01*
X14683333Y-7816666D01*
X14716666Y-7883333D01*
X14716666Y-7983333D01*
X14683333Y-8050000D01*
X14650000Y-8083333D01*
X14583333Y-8116666D01*
X14316666Y-8116666D01*
X14316666Y-7416666D01*
X14550000Y-7416666D01*
X14616666Y-7450000D01*
X14650000Y-7483333D01*
X14683333Y-7550000D01*
X14683333Y-7616666D01*
X14650000Y-7683333D01*
X14616666Y-7716666D01*
X14550000Y-7750000D01*
X14316666Y-7750000D01*
X15116666Y-8116666D02*
X15050000Y-8083333D01*
X15016666Y-8050000D01*
X14983333Y-7983333D01*
X14983333Y-7783333D01*
X15016666Y-7716666D01*
X15050000Y-7683333D01*
X15116666Y-7650000D01*
X15216666Y-7650000D01*
X15283333Y-7683333D01*
X15316666Y-7716666D01*
X15350000Y-7783333D01*
X15350000Y-7983333D01*
X15316666Y-8050000D01*
X15283333Y-8083333D01*
X15216666Y-8116666D01*
X15116666Y-8116666D01*
X15950000Y-8116666D02*
X15950000Y-7750000D01*
X15916666Y-7683333D01*
X15850000Y-7650000D01*
X15716666Y-7650000D01*
X15650000Y-7683333D01*
X15950000Y-8083333D02*
X15883333Y-8116666D01*
X15716666Y-8116666D01*
X15650000Y-8083333D01*
X15616666Y-8016666D01*
X15616666Y-7950000D01*
X15650000Y-7883333D01*
X15716666Y-7850000D01*
X15883333Y-7850000D01*
X15950000Y-7816666D01*
X16283333Y-8116666D02*
X16283333Y-7650000D01*
X16283333Y-7783333D02*
X16316666Y-7716666D01*
X16350000Y-7683333D01*
X16416666Y-7650000D01*
X16483333Y-7650000D01*
X17016666Y-8116666D02*
X17016666Y-7416666D01*
X17016666Y-8083333D02*
X16950000Y-8116666D01*
X16816666Y-8116666D01*
X16750000Y-8083333D01*
X16716666Y-8050000D01*
X16683333Y-7983333D01*
X16683333Y-7783333D01*
X16716666Y-7716666D01*
X16750000Y-7683333D01*
X16816666Y-7650000D01*
X16950000Y-7650000D01*
X17016666Y-7683333D01*
X36983333Y-67750000D02*
X37216666Y-67750000D01*
X37316666Y-68116666D02*
X36983333Y-68116666D01*
X36983333Y-67416666D01*
X37316666Y-67416666D01*
X37616666Y-67650000D02*
X37616666Y-68116666D01*
X37616666Y-67716666D02*
X37650000Y-67683333D01*
X37716666Y-67650000D01*
X37816666Y-67650000D01*
X37883333Y-67683333D01*
X37916666Y-67750000D01*
X37916666Y-68116666D01*
X38550000Y-68116666D02*
X38550000Y-67416666D01*
X38550000Y-68083333D02*
X38483333Y-68116666D01*
X38350000Y-68116666D01*
X38283333Y-68083333D01*
X38250000Y-68050000D01*
X38216666Y-67983333D01*
X38216666Y-67783333D01*
X38250000Y-67716666D01*
X38283333Y-67683333D01*
X38350000Y-67650000D01*
X38483333Y-67650000D01*
X38550000Y-67683333D01*
X38883333Y-68116666D02*
X38883333Y-67416666D01*
X39150000Y-67416666D01*
X39216666Y-67450000D01*
X39250000Y-67483333D01*
X39283333Y-67550000D01*
X39283333Y-67650000D01*
X39250000Y-67716666D01*
X39216666Y-67750000D01*
X39150000Y-67783333D01*
X38883333Y-67783333D01*
X39983333Y-68050000D02*
X39950000Y-68083333D01*
X39850000Y-68116666D01*
X39783333Y-68116666D01*
X39683333Y-68083333D01*
X39616666Y-68016666D01*
X39583333Y-67950000D01*
X39550000Y-67816666D01*
X39550000Y-67716666D01*
X39583333Y-67583333D01*
X39616666Y-67516666D01*
X39683333Y-67450000D01*
X39783333Y-67416666D01*
X39850000Y-67416666D01*
X39950000Y-67450000D01*
X39983333Y-67483333D01*
X40683333Y-68116666D02*
X40450000Y-67783333D01*
X40283333Y-68116666D02*
X40283333Y-67416666D01*
X40550000Y-67416666D01*
X40616666Y-67450000D01*
X40650000Y-67483333D01*
X40683333Y-67550000D01*
X40683333Y-67650000D01*
X40650000Y-67716666D01*
X40616666Y-67750000D01*
X40550000Y-67783333D01*
X40283333Y-67783333D01*
X41283333Y-68116666D02*
X41283333Y-67750000D01*
X41250000Y-67683333D01*
X41183333Y-67650000D01*
X41050000Y-67650000D01*
X40983333Y-67683333D01*
X41283333Y-68083333D02*
X41216666Y-68116666D01*
X41050000Y-68116666D01*
X40983333Y-68083333D01*
X40950000Y-68016666D01*
X40950000Y-67950000D01*
X40983333Y-67883333D01*
X41050000Y-67850000D01*
X41216666Y-67850000D01*
X41283333Y-67816666D01*
X41616666Y-68116666D02*
X41616666Y-67650000D01*
X41616666Y-67416666D02*
X41583333Y-67450000D01*
X41616666Y-67483333D01*
X41650000Y-67450000D01*
X41616666Y-67416666D01*
X41616666Y-67483333D01*
X42050000Y-68116666D02*
X41983333Y-68083333D01*
X41950000Y-68016666D01*
X41950000Y-67416666D01*
X42550000Y-67750000D02*
X42650000Y-67783333D01*
X42683333Y-67816666D01*
X42716666Y-67883333D01*
X42716666Y-67983333D01*
X42683333Y-68050000D01*
X42650000Y-68083333D01*
X42583333Y-68116666D01*
X42316666Y-68116666D01*
X42316666Y-67416666D01*
X42550000Y-67416666D01*
X42616666Y-67450000D01*
X42650000Y-67483333D01*
X42683333Y-67550000D01*
X42683333Y-67616666D01*
X42650000Y-67683333D01*
X42616666Y-67716666D01*
X42550000Y-67750000D01*
X42316666Y-67750000D01*
X43116666Y-68116666D02*
X43050000Y-68083333D01*
X43016666Y-68050000D01*
X42983333Y-67983333D01*
X42983333Y-67783333D01*
X43016666Y-67716666D01*
X43050000Y-67683333D01*
X43116666Y-67650000D01*
X43216666Y-67650000D01*
X43283333Y-67683333D01*
X43316666Y-67716666D01*
X43350000Y-67783333D01*
X43350000Y-67983333D01*
X43316666Y-68050000D01*
X43283333Y-68083333D01*
X43216666Y-68116666D01*
X43116666Y-68116666D01*
X43950000Y-68116666D02*
X43950000Y-67750000D01*
X43916666Y-67683333D01*
X43850000Y-67650000D01*
X43716666Y-67650000D01*
X43650000Y-67683333D01*
X43950000Y-68083333D02*
X43883333Y-68116666D01*
X43716666Y-68116666D01*
X43650000Y-68083333D01*
X43616666Y-68016666D01*
X43616666Y-67950000D01*
X43650000Y-67883333D01*
X43716666Y-67850000D01*
X43883333Y-67850000D01*
X43950000Y-67816666D01*
X44283333Y-68116666D02*
X44283333Y-67650000D01*
X44283333Y-67783333D02*
X44316666Y-67716666D01*
X44350000Y-67683333D01*
X44416666Y-67650000D01*
X44483333Y-67650000D01*
X45016666Y-68116666D02*
X45016666Y-67416666D01*
X45016666Y-68083333D02*
X44950000Y-68116666D01*
X44816666Y-68116666D01*
X44750000Y-68083333D01*
X44716666Y-68050000D01*
X44683333Y-67983333D01*
X44683333Y-67783333D01*
X44716666Y-67716666D01*
X44750000Y-67683333D01*
X44816666Y-67650000D01*
X44950000Y-67650000D01*
X45016666Y-67683333D01*
X8983333Y-67750000D02*
X9216666Y-67750000D01*
X9316666Y-68116666D02*
X8983333Y-68116666D01*
X8983333Y-67416666D01*
X9316666Y-67416666D01*
X9616666Y-67650000D02*
X9616666Y-68116666D01*
X9616666Y-67716666D02*
X9650000Y-67683333D01*
X9716666Y-67650000D01*
X9816666Y-67650000D01*
X9883333Y-67683333D01*
X9916666Y-67750000D01*
X9916666Y-68116666D01*
X10550000Y-68116666D02*
X10550000Y-67416666D01*
X10550000Y-68083333D02*
X10483333Y-68116666D01*
X10350000Y-68116666D01*
X10283333Y-68083333D01*
X10250000Y-68050000D01*
X10216666Y-67983333D01*
X10216666Y-67783333D01*
X10250000Y-67716666D01*
X10283333Y-67683333D01*
X10350000Y-67650000D01*
X10483333Y-67650000D01*
X10550000Y-67683333D01*
X10883333Y-68116666D02*
X10883333Y-67416666D01*
X11150000Y-67416666D01*
X11216666Y-67450000D01*
X11250000Y-67483333D01*
X11283333Y-67550000D01*
X11283333Y-67650000D01*
X11250000Y-67716666D01*
X11216666Y-67750000D01*
X11150000Y-67783333D01*
X10883333Y-67783333D01*
X11983333Y-68050000D02*
X11950000Y-68083333D01*
X11850000Y-68116666D01*
X11783333Y-68116666D01*
X11683333Y-68083333D01*
X11616666Y-68016666D01*
X11583333Y-67950000D01*
X11550000Y-67816666D01*
X11550000Y-67716666D01*
X11583333Y-67583333D01*
X11616666Y-67516666D01*
X11683333Y-67450000D01*
X11783333Y-67416666D01*
X11850000Y-67416666D01*
X11950000Y-67450000D01*
X11983333Y-67483333D01*
X12683333Y-68116666D02*
X12450000Y-67783333D01*
X12283333Y-68116666D02*
X12283333Y-67416666D01*
X12550000Y-67416666D01*
X12616666Y-67450000D01*
X12650000Y-67483333D01*
X12683333Y-67550000D01*
X12683333Y-67650000D01*
X12650000Y-67716666D01*
X12616666Y-67750000D01*
X12550000Y-67783333D01*
X12283333Y-67783333D01*
X13283333Y-68116666D02*
X13283333Y-67750000D01*
X13250000Y-67683333D01*
X13183333Y-67650000D01*
X13050000Y-67650000D01*
X12983333Y-67683333D01*
X13283333Y-68083333D02*
X13216666Y-68116666D01*
X13050000Y-68116666D01*
X12983333Y-68083333D01*
X12950000Y-68016666D01*
X12950000Y-67950000D01*
X12983333Y-67883333D01*
X13050000Y-67850000D01*
X13216666Y-67850000D01*
X13283333Y-67816666D01*
X13616666Y-68116666D02*
X13616666Y-67650000D01*
X13616666Y-67416666D02*
X13583333Y-67450000D01*
X13616666Y-67483333D01*
X13650000Y-67450000D01*
X13616666Y-67416666D01*
X13616666Y-67483333D01*
X14050000Y-68116666D02*
X13983333Y-68083333D01*
X13950000Y-68016666D01*
X13950000Y-67416666D01*
X14550000Y-67750000D02*
X14650000Y-67783333D01*
X14683333Y-67816666D01*
X14716666Y-67883333D01*
X14716666Y-67983333D01*
X14683333Y-68050000D01*
X14650000Y-68083333D01*
X14583333Y-68116666D01*
X14316666Y-68116666D01*
X14316666Y-67416666D01*
X14550000Y-67416666D01*
X14616666Y-67450000D01*
X14650000Y-67483333D01*
X14683333Y-67550000D01*
X14683333Y-67616666D01*
X14650000Y-67683333D01*
X14616666Y-67716666D01*
X14550000Y-67750000D01*
X14316666Y-67750000D01*
X15116666Y-68116666D02*
X15050000Y-68083333D01*
X15016666Y-68050000D01*
X14983333Y-67983333D01*
X14983333Y-67783333D01*
X15016666Y-67716666D01*
X15050000Y-67683333D01*
X15116666Y-67650000D01*
X15216666Y-67650000D01*
X15283333Y-67683333D01*
X15316666Y-67716666D01*
X15350000Y-67783333D01*
X15350000Y-67983333D01*
X15316666Y-68050000D01*
X15283333Y-68083333D01*
X15216666Y-68116666D01*
X15116666Y-68116666D01*
X15950000Y-68116666D02*
X15950000Y-67750000D01*
X15916666Y-67683333D01*
X15850000Y-67650000D01*
X15716666Y-67650000D01*
X15650000Y-67683333D01*
X15950000Y-68083333D02*
X15883333Y-68116666D01*
X15716666Y-68116666D01*
X15650000Y-68083333D01*
X15616666Y-68016666D01*
X15616666Y-67950000D01*
X15650000Y-67883333D01*
X15716666Y-67850000D01*
X15883333Y-67850000D01*
X15950000Y-67816666D01*
X16283333Y-68116666D02*
X16283333Y-67650000D01*
X16283333Y-67783333D02*
X16316666Y-67716666D01*
X16350000Y-67683333D01*
X16416666Y-67650000D01*
X16483333Y-67650000D01*
X17016666Y-68116666D02*
X17016666Y-67416666D01*
X17016666Y-68083333D02*
X16950000Y-68116666D01*
X16816666Y-68116666D01*
X16750000Y-68083333D01*
X16716666Y-68050000D01*
X16683333Y-67983333D01*
X16683333Y-67783333D01*
X16716666Y-67716666D01*
X16750000Y-67683333D01*
X16816666Y-67650000D01*
X16950000Y-67650000D01*
X17016666Y-67683333D01*
X78983333Y-47750000D02*
X79216666Y-47750000D01*
X79316666Y-48116666D02*
X78983333Y-48116666D01*
X78983333Y-47416666D01*
X79316666Y-47416666D01*
X79616666Y-47650000D02*
X79616666Y-48116666D01*
X79616666Y-47716666D02*
X79650000Y-47683333D01*
X79716666Y-47650000D01*
X79816666Y-47650000D01*
X79883333Y-47683333D01*
X79916666Y-47750000D01*
X79916666Y-48116666D01*
X80550000Y-48116666D02*
X80550000Y-47416666D01*
X80550000Y-48083333D02*
X80483333Y-48116666D01*
X80350000Y-48116666D01*
X80283333Y-48083333D01*
X80250000Y-48050000D01*
X80216666Y-47983333D01*
X80216666Y-47783333D01*
X80250000Y-47716666D01*
X80283333Y-47683333D01*
X80350000Y-47650000D01*
X80483333Y-47650000D01*
X80550000Y-47683333D01*
X80883333Y-48116666D02*
X80883333Y-47416666D01*
X81150000Y-47416666D01*
X81216666Y-47450000D01*
X81250000Y-47483333D01*
X81283333Y-47550000D01*
X81283333Y-47650000D01*
X81250000Y-47716666D01*
X81216666Y-47750000D01*
X81150000Y-47783333D01*
X80883333Y-47783333D01*
X81983333Y-48050000D02*
X81950000Y-48083333D01*
X81850000Y-48116666D01*
X81783333Y-48116666D01*
X81683333Y-48083333D01*
X81616666Y-48016666D01*
X81583333Y-47950000D01*
X81550000Y-47816666D01*
X81550000Y-47716666D01*
X81583333Y-47583333D01*
X81616666Y-47516666D01*
X81683333Y-47450000D01*
X81783333Y-47416666D01*
X81850000Y-47416666D01*
X81950000Y-47450000D01*
X81983333Y-47483333D01*
X82683333Y-48116666D02*
X82450000Y-47783333D01*
X82283333Y-48116666D02*
X82283333Y-47416666D01*
X82550000Y-47416666D01*
X82616666Y-47450000D01*
X82650000Y-47483333D01*
X82683333Y-47550000D01*
X82683333Y-47650000D01*
X82650000Y-47716666D01*
X82616666Y-47750000D01*
X82550000Y-47783333D01*
X82283333Y-47783333D01*
X83283333Y-48116666D02*
X83283333Y-47750000D01*
X83250000Y-47683333D01*
X83183333Y-47650000D01*
X83050000Y-47650000D01*
X82983333Y-47683333D01*
X83283333Y-48083333D02*
X83216666Y-48116666D01*
X83050000Y-48116666D01*
X82983333Y-48083333D01*
X82950000Y-48016666D01*
X82950000Y-47950000D01*
X82983333Y-47883333D01*
X83050000Y-47850000D01*
X83216666Y-47850000D01*
X83283333Y-47816666D01*
X83616666Y-48116666D02*
X83616666Y-47650000D01*
X83616666Y-47416666D02*
X83583333Y-47450000D01*
X83616666Y-47483333D01*
X83650000Y-47450000D01*
X83616666Y-47416666D01*
X83616666Y-47483333D01*
X84050000Y-48116666D02*
X83983333Y-48083333D01*
X83950000Y-48016666D01*
X83950000Y-47416666D01*
X84550000Y-47750000D02*
X84650000Y-47783333D01*
X84683333Y-47816666D01*
X84716666Y-47883333D01*
X84716666Y-47983333D01*
X84683333Y-48050000D01*
X84650000Y-48083333D01*
X84583333Y-48116666D01*
X84316666Y-48116666D01*
X84316666Y-47416666D01*
X84550000Y-47416666D01*
X84616666Y-47450000D01*
X84650000Y-47483333D01*
X84683333Y-47550000D01*
X84683333Y-47616666D01*
X84650000Y-47683333D01*
X84616666Y-47716666D01*
X84550000Y-47750000D01*
X84316666Y-47750000D01*
X85116666Y-48116666D02*
X85050000Y-48083333D01*
X85016666Y-48050000D01*
X84983333Y-47983333D01*
X84983333Y-47783333D01*
X85016666Y-47716666D01*
X85050000Y-47683333D01*
X85116666Y-47650000D01*
X85216666Y-47650000D01*
X85283333Y-47683333D01*
X85316666Y-47716666D01*
X85350000Y-47783333D01*
X85350000Y-47983333D01*
X85316666Y-48050000D01*
X85283333Y-48083333D01*
X85216666Y-48116666D01*
X85116666Y-48116666D01*
X85950000Y-48116666D02*
X85950000Y-47750000D01*
X85916666Y-47683333D01*
X85850000Y-47650000D01*
X85716666Y-47650000D01*
X85650000Y-47683333D01*
X85950000Y-48083333D02*
X85883333Y-48116666D01*
X85716666Y-48116666D01*
X85650000Y-48083333D01*
X85616666Y-48016666D01*
X85616666Y-47950000D01*
X85650000Y-47883333D01*
X85716666Y-47850000D01*
X85883333Y-47850000D01*
X85950000Y-47816666D01*
X86283333Y-48116666D02*
X86283333Y-47650000D01*
X86283333Y-47783333D02*
X86316666Y-47716666D01*
X86350000Y-47683333D01*
X86416666Y-47650000D01*
X86483333Y-47650000D01*
X87016666Y-48116666D02*
X87016666Y-47416666D01*
X87016666Y-48083333D02*
X86950000Y-48116666D01*
X86816666Y-48116666D01*
X86750000Y-48083333D01*
X86716666Y-48050000D01*
X86683333Y-47983333D01*
X86683333Y-47783333D01*
X86716666Y-47716666D01*
X86750000Y-47683333D01*
X86816666Y-47650000D01*
X86950000Y-47650000D01*
X87016666Y-47683333D01*
X64983333Y-47750000D02*
X65216666Y-47750000D01*
X65316666Y-48116666D02*
X64983333Y-48116666D01*
X64983333Y-47416666D01*
X65316666Y-47416666D01*
X65616666Y-47650000D02*
X65616666Y-48116666D01*
X65616666Y-47716666D02*
X65650000Y-47683333D01*
X65716666Y-47650000D01*
X65816666Y-47650000D01*
X65883333Y-47683333D01*
X65916666Y-47750000D01*
X65916666Y-48116666D01*
X66550000Y-48116666D02*
X66550000Y-47416666D01*
X66550000Y-48083333D02*
X66483333Y-48116666D01*
X66350000Y-48116666D01*
X66283333Y-48083333D01*
X66250000Y-48050000D01*
X66216666Y-47983333D01*
X66216666Y-47783333D01*
X66250000Y-47716666D01*
X66283333Y-47683333D01*
X66350000Y-47650000D01*
X66483333Y-47650000D01*
X66550000Y-47683333D01*
X66883333Y-48116666D02*
X66883333Y-47416666D01*
X67150000Y-47416666D01*
X67216666Y-47450000D01*
X67250000Y-47483333D01*
X67283333Y-47550000D01*
X67283333Y-47650000D01*
X67250000Y-47716666D01*
X67216666Y-47750000D01*
X67150000Y-47783333D01*
X66883333Y-47783333D01*
X67983333Y-48050000D02*
X67950000Y-48083333D01*
X67850000Y-48116666D01*
X67783333Y-48116666D01*
X67683333Y-48083333D01*
X67616666Y-48016666D01*
X67583333Y-47950000D01*
X67550000Y-47816666D01*
X67550000Y-47716666D01*
X67583333Y-47583333D01*
X67616666Y-47516666D01*
X67683333Y-47450000D01*
X67783333Y-47416666D01*
X67850000Y-47416666D01*
X67950000Y-47450000D01*
X67983333Y-47483333D01*
X68683333Y-48116666D02*
X68450000Y-47783333D01*
X68283333Y-48116666D02*
X68283333Y-47416666D01*
X68550000Y-47416666D01*
X68616666Y-47450000D01*
X68650000Y-47483333D01*
X68683333Y-47550000D01*
X68683333Y-47650000D01*
X68650000Y-47716666D01*
X68616666Y-47750000D01*
X68550000Y-47783333D01*
X68283333Y-47783333D01*
X69283333Y-48116666D02*
X69283333Y-47750000D01*
X69250000Y-47683333D01*
X69183333Y-47650000D01*
X69050000Y-47650000D01*
X68983333Y-47683333D01*
X69283333Y-48083333D02*
X69216666Y-48116666D01*
X69050000Y-48116666D01*
X68983333Y-48083333D01*
X68950000Y-48016666D01*
X68950000Y-47950000D01*
X68983333Y-47883333D01*
X69050000Y-47850000D01*
X69216666Y-47850000D01*
X69283333Y-47816666D01*
X69616666Y-48116666D02*
X69616666Y-47650000D01*
X69616666Y-47416666D02*
X69583333Y-47450000D01*
X69616666Y-47483333D01*
X69650000Y-47450000D01*
X69616666Y-47416666D01*
X69616666Y-47483333D01*
X70050000Y-48116666D02*
X69983333Y-48083333D01*
X69950000Y-48016666D01*
X69950000Y-47416666D01*
X70550000Y-47750000D02*
X70650000Y-47783333D01*
X70683333Y-47816666D01*
X70716666Y-47883333D01*
X70716666Y-47983333D01*
X70683333Y-48050000D01*
X70650000Y-48083333D01*
X70583333Y-48116666D01*
X70316666Y-48116666D01*
X70316666Y-47416666D01*
X70550000Y-47416666D01*
X70616666Y-47450000D01*
X70650000Y-47483333D01*
X70683333Y-47550000D01*
X70683333Y-47616666D01*
X70650000Y-47683333D01*
X70616666Y-47716666D01*
X70550000Y-47750000D01*
X70316666Y-47750000D01*
X71116666Y-48116666D02*
X71050000Y-48083333D01*
X71016666Y-48050000D01*
X70983333Y-47983333D01*
X70983333Y-47783333D01*
X71016666Y-47716666D01*
X71050000Y-47683333D01*
X71116666Y-47650000D01*
X71216666Y-47650000D01*
X71283333Y-47683333D01*
X71316666Y-47716666D01*
X71350000Y-47783333D01*
X71350000Y-47983333D01*
X71316666Y-48050000D01*
X71283333Y-48083333D01*
X71216666Y-48116666D01*
X71116666Y-48116666D01*
X71950000Y-48116666D02*
X71950000Y-47750000D01*
X71916666Y-47683333D01*
X71850000Y-47650000D01*
X71716666Y-47650000D01*
X71650000Y-47683333D01*
X71950000Y-48083333D02*
X71883333Y-48116666D01*
X71716666Y-48116666D01*
X71650000Y-48083333D01*
X71616666Y-48016666D01*
X71616666Y-47950000D01*
X71650000Y-47883333D01*
X71716666Y-47850000D01*
X71883333Y-47850000D01*
X71950000Y-47816666D01*
X72283333Y-48116666D02*
X72283333Y-47650000D01*
X72283333Y-47783333D02*
X72316666Y-47716666D01*
X72350000Y-47683333D01*
X72416666Y-47650000D01*
X72483333Y-47650000D01*
X73016666Y-48116666D02*
X73016666Y-47416666D01*
X73016666Y-48083333D02*
X72950000Y-48116666D01*
X72816666Y-48116666D01*
X72750000Y-48083333D01*
X72716666Y-48050000D01*
X72683333Y-47983333D01*
X72683333Y-47783333D01*
X72716666Y-47716666D01*
X72750000Y-47683333D01*
X72816666Y-47650000D01*
X72950000Y-47650000D01*
X73016666Y-47683333D01*
X36983333Y-47750000D02*
X37216666Y-47750000D01*
X37316666Y-48116666D02*
X36983333Y-48116666D01*
X36983333Y-47416666D01*
X37316666Y-47416666D01*
X37616666Y-47650000D02*
X37616666Y-48116666D01*
X37616666Y-47716666D02*
X37650000Y-47683333D01*
X37716666Y-47650000D01*
X37816666Y-47650000D01*
X37883333Y-47683333D01*
X37916666Y-47750000D01*
X37916666Y-48116666D01*
X38550000Y-48116666D02*
X38550000Y-47416666D01*
X38550000Y-48083333D02*
X38483333Y-48116666D01*
X38350000Y-48116666D01*
X38283333Y-48083333D01*
X38250000Y-48050000D01*
X38216666Y-47983333D01*
X38216666Y-47783333D01*
X38250000Y-47716666D01*
X38283333Y-47683333D01*
X38350000Y-47650000D01*
X38483333Y-47650000D01*
X38550000Y-47683333D01*
X38883333Y-48116666D02*
X38883333Y-47416666D01*
X39150000Y-47416666D01*
X39216666Y-47450000D01*
X39250000Y-47483333D01*
X39283333Y-47550000D01*
X39283333Y-47650000D01*
X39250000Y-47716666D01*
X39216666Y-47750000D01*
X39150000Y-47783333D01*
X38883333Y-47783333D01*
X39983333Y-48050000D02*
X39950000Y-48083333D01*
X39850000Y-48116666D01*
X39783333Y-48116666D01*
X39683333Y-48083333D01*
X39616666Y-48016666D01*
X39583333Y-47950000D01*
X39550000Y-47816666D01*
X39550000Y-47716666D01*
X39583333Y-47583333D01*
X39616666Y-47516666D01*
X39683333Y-47450000D01*
X39783333Y-47416666D01*
X39850000Y-47416666D01*
X39950000Y-47450000D01*
X39983333Y-47483333D01*
X40683333Y-48116666D02*
X40450000Y-47783333D01*
X40283333Y-48116666D02*
X40283333Y-47416666D01*
X40550000Y-47416666D01*
X40616666Y-47450000D01*
X40650000Y-47483333D01*
X40683333Y-47550000D01*
X40683333Y-47650000D01*
X40650000Y-47716666D01*
X40616666Y-47750000D01*
X40550000Y-47783333D01*
X40283333Y-47783333D01*
X41283333Y-48116666D02*
X41283333Y-47750000D01*
X41250000Y-47683333D01*
X41183333Y-47650000D01*
X41050000Y-47650000D01*
X40983333Y-47683333D01*
X41283333Y-48083333D02*
X41216666Y-48116666D01*
X41050000Y-48116666D01*
X40983333Y-48083333D01*
X40950000Y-48016666D01*
X40950000Y-47950000D01*
X40983333Y-47883333D01*
X41050000Y-47850000D01*
X41216666Y-47850000D01*
X41283333Y-47816666D01*
X41616666Y-48116666D02*
X41616666Y-47650000D01*
X41616666Y-47416666D02*
X41583333Y-47450000D01*
X41616666Y-47483333D01*
X41650000Y-47450000D01*
X41616666Y-47416666D01*
X41616666Y-47483333D01*
X42050000Y-48116666D02*
X41983333Y-48083333D01*
X41950000Y-48016666D01*
X41950000Y-47416666D01*
X42550000Y-47750000D02*
X42650000Y-47783333D01*
X42683333Y-47816666D01*
X42716666Y-47883333D01*
X42716666Y-47983333D01*
X42683333Y-48050000D01*
X42650000Y-48083333D01*
X42583333Y-48116666D01*
X42316666Y-48116666D01*
X42316666Y-47416666D01*
X42550000Y-47416666D01*
X42616666Y-47450000D01*
X42650000Y-47483333D01*
X42683333Y-47550000D01*
X42683333Y-47616666D01*
X42650000Y-47683333D01*
X42616666Y-47716666D01*
X42550000Y-47750000D01*
X42316666Y-47750000D01*
X43116666Y-48116666D02*
X43050000Y-48083333D01*
X43016666Y-48050000D01*
X42983333Y-47983333D01*
X42983333Y-47783333D01*
X43016666Y-47716666D01*
X43050000Y-47683333D01*
X43116666Y-47650000D01*
X43216666Y-47650000D01*
X43283333Y-47683333D01*
X43316666Y-47716666D01*
X43350000Y-47783333D01*
X43350000Y-47983333D01*
X43316666Y-48050000D01*
X43283333Y-48083333D01*
X43216666Y-48116666D01*
X43116666Y-48116666D01*
X43950000Y-48116666D02*
X43950000Y-47750000D01*
X43916666Y-47683333D01*
X43850000Y-47650000D01*
X43716666Y-47650000D01*
X43650000Y-47683333D01*
X43950000Y-48083333D02*
X43883333Y-48116666D01*
X43716666Y-48116666D01*
X43650000Y-48083333D01*
X43616666Y-48016666D01*
X43616666Y-47950000D01*
X43650000Y-47883333D01*
X43716666Y-47850000D01*
X43883333Y-47850000D01*
X43950000Y-47816666D01*
X44283333Y-48116666D02*
X44283333Y-47650000D01*
X44283333Y-47783333D02*
X44316666Y-47716666D01*
X44350000Y-47683333D01*
X44416666Y-47650000D01*
X44483333Y-47650000D01*
X45016666Y-48116666D02*
X45016666Y-47416666D01*
X45016666Y-48083333D02*
X44950000Y-48116666D01*
X44816666Y-48116666D01*
X44750000Y-48083333D01*
X44716666Y-48050000D01*
X44683333Y-47983333D01*
X44683333Y-47783333D01*
X44716666Y-47716666D01*
X44750000Y-47683333D01*
X44816666Y-47650000D01*
X44950000Y-47650000D01*
X45016666Y-47683333D01*
X64983333Y-27750000D02*
X65216666Y-27750000D01*
X65316666Y-28116666D02*
X64983333Y-28116666D01*
X64983333Y-27416666D01*
X65316666Y-27416666D01*
X65616666Y-27650000D02*
X65616666Y-28116666D01*
X65616666Y-27716666D02*
X65650000Y-27683333D01*
X65716666Y-27650000D01*
X65816666Y-27650000D01*
X65883333Y-27683333D01*
X65916666Y-27750000D01*
X65916666Y-28116666D01*
X66550000Y-28116666D02*
X66550000Y-27416666D01*
X66550000Y-28083333D02*
X66483333Y-28116666D01*
X66350000Y-28116666D01*
X66283333Y-28083333D01*
X66250000Y-28050000D01*
X66216666Y-27983333D01*
X66216666Y-27783333D01*
X66250000Y-27716666D01*
X66283333Y-27683333D01*
X66350000Y-27650000D01*
X66483333Y-27650000D01*
X66550000Y-27683333D01*
X66883333Y-28116666D02*
X66883333Y-27416666D01*
X67150000Y-27416666D01*
X67216666Y-27450000D01*
X67250000Y-27483333D01*
X67283333Y-27550000D01*
X67283333Y-27650000D01*
X67250000Y-27716666D01*
X67216666Y-27750000D01*
X67150000Y-27783333D01*
X66883333Y-27783333D01*
X67983333Y-28050000D02*
X67950000Y-28083333D01*
X67850000Y-28116666D01*
X67783333Y-28116666D01*
X67683333Y-28083333D01*
X67616666Y-28016666D01*
X67583333Y-27950000D01*
X67550000Y-27816666D01*
X67550000Y-27716666D01*
X67583333Y-27583333D01*
X67616666Y-27516666D01*
X67683333Y-27450000D01*
X67783333Y-27416666D01*
X67850000Y-27416666D01*
X67950000Y-27450000D01*
X67983333Y-27483333D01*
X68683333Y-28116666D02*
X68450000Y-27783333D01*
X68283333Y-28116666D02*
X68283333Y-27416666D01*
X68550000Y-27416666D01*
X68616666Y-27450000D01*
X68650000Y-27483333D01*
X68683333Y-27550000D01*
X68683333Y-27650000D01*
X68650000Y-27716666D01*
X68616666Y-27750000D01*
X68550000Y-27783333D01*
X68283333Y-27783333D01*
X69283333Y-28116666D02*
X69283333Y-27750000D01*
X69250000Y-27683333D01*
X69183333Y-27650000D01*
X69050000Y-27650000D01*
X68983333Y-27683333D01*
X69283333Y-28083333D02*
X69216666Y-28116666D01*
X69050000Y-28116666D01*
X68983333Y-28083333D01*
X68950000Y-28016666D01*
X68950000Y-27950000D01*
X68983333Y-27883333D01*
X69050000Y-27850000D01*
X69216666Y-27850000D01*
X69283333Y-27816666D01*
X69616666Y-28116666D02*
X69616666Y-27650000D01*
X69616666Y-27416666D02*
X69583333Y-27450000D01*
X69616666Y-27483333D01*
X69650000Y-27450000D01*
X69616666Y-27416666D01*
X69616666Y-27483333D01*
X70050000Y-28116666D02*
X69983333Y-28083333D01*
X69950000Y-28016666D01*
X69950000Y-27416666D01*
X70550000Y-27750000D02*
X70650000Y-27783333D01*
X70683333Y-27816666D01*
X70716666Y-27883333D01*
X70716666Y-27983333D01*
X70683333Y-28050000D01*
X70650000Y-28083333D01*
X70583333Y-28116666D01*
X70316666Y-28116666D01*
X70316666Y-27416666D01*
X70550000Y-27416666D01*
X70616666Y-27450000D01*
X70650000Y-27483333D01*
X70683333Y-27550000D01*
X70683333Y-27616666D01*
X70650000Y-27683333D01*
X70616666Y-27716666D01*
X70550000Y-27750000D01*
X70316666Y-27750000D01*
X71116666Y-28116666D02*
X71050000Y-28083333D01*
X71016666Y-28050000D01*
X70983333Y-27983333D01*
X70983333Y-27783333D01*
X71016666Y-27716666D01*
X71050000Y-27683333D01*
X71116666Y-27650000D01*
X71216666Y-27650000D01*
X71283333Y-27683333D01*
X71316666Y-27716666D01*
X71350000Y-27783333D01*
X71350000Y-27983333D01*
X71316666Y-28050000D01*
X71283333Y-28083333D01*
X71216666Y-28116666D01*
X71116666Y-28116666D01*
X71950000Y-28116666D02*
X71950000Y-27750000D01*
X71916666Y-27683333D01*
X71850000Y-27650000D01*
X71716666Y-27650000D01*
X71650000Y-27683333D01*
X71950000Y-28083333D02*
X71883333Y-28116666D01*
X71716666Y-28116666D01*
X71650000Y-28083333D01*
X71616666Y-28016666D01*
X71616666Y-27950000D01*
X71650000Y-27883333D01*
X71716666Y-27850000D01*
X71883333Y-27850000D01*
X71950000Y-27816666D01*
X72283333Y-28116666D02*
X72283333Y-27650000D01*
X72283333Y-27783333D02*
X72316666Y-27716666D01*
X72350000Y-27683333D01*
X72416666Y-27650000D01*
X72483333Y-27650000D01*
X73016666Y-28116666D02*
X73016666Y-27416666D01*
X73016666Y-28083333D02*
X72950000Y-28116666D01*
X72816666Y-28116666D01*
X72750000Y-28083333D01*
X72716666Y-28050000D01*
X72683333Y-27983333D01*
X72683333Y-27783333D01*
X72716666Y-27716666D01*
X72750000Y-27683333D01*
X72816666Y-27650000D01*
X72950000Y-27650000D01*
X73016666Y-27683333D01*
X50983333Y-27750000D02*
X51216666Y-27750000D01*
X51316666Y-28116666D02*
X50983333Y-28116666D01*
X50983333Y-27416666D01*
X51316666Y-27416666D01*
X51616666Y-27650000D02*
X51616666Y-28116666D01*
X51616666Y-27716666D02*
X51650000Y-27683333D01*
X51716666Y-27650000D01*
X51816666Y-27650000D01*
X51883333Y-27683333D01*
X51916666Y-27750000D01*
X51916666Y-28116666D01*
X52550000Y-28116666D02*
X52550000Y-27416666D01*
X52550000Y-28083333D02*
X52483333Y-28116666D01*
X52350000Y-28116666D01*
X52283333Y-28083333D01*
X52250000Y-28050000D01*
X52216666Y-27983333D01*
X52216666Y-27783333D01*
X52250000Y-27716666D01*
X52283333Y-27683333D01*
X52350000Y-27650000D01*
X52483333Y-27650000D01*
X52550000Y-27683333D01*
X52883333Y-28116666D02*
X52883333Y-27416666D01*
X53150000Y-27416666D01*
X53216666Y-27450000D01*
X53250000Y-27483333D01*
X53283333Y-27550000D01*
X53283333Y-27650000D01*
X53250000Y-27716666D01*
X53216666Y-27750000D01*
X53150000Y-27783333D01*
X52883333Y-27783333D01*
X53983333Y-28050000D02*
X53950000Y-28083333D01*
X53850000Y-28116666D01*
X53783333Y-28116666D01*
X53683333Y-28083333D01*
X53616666Y-28016666D01*
X53583333Y-27950000D01*
X53550000Y-27816666D01*
X53550000Y-27716666D01*
X53583333Y-27583333D01*
X53616666Y-27516666D01*
X53683333Y-27450000D01*
X53783333Y-27416666D01*
X53850000Y-27416666D01*
X53950000Y-27450000D01*
X53983333Y-27483333D01*
X54683333Y-28116666D02*
X54450000Y-27783333D01*
X54283333Y-28116666D02*
X54283333Y-27416666D01*
X54550000Y-27416666D01*
X54616666Y-27450000D01*
X54650000Y-27483333D01*
X54683333Y-27550000D01*
X54683333Y-27650000D01*
X54650000Y-27716666D01*
X54616666Y-27750000D01*
X54550000Y-27783333D01*
X54283333Y-27783333D01*
X55283333Y-28116666D02*
X55283333Y-27750000D01*
X55250000Y-27683333D01*
X55183333Y-27650000D01*
X55050000Y-27650000D01*
X54983333Y-27683333D01*
X55283333Y-28083333D02*
X55216666Y-28116666D01*
X55050000Y-28116666D01*
X54983333Y-28083333D01*
X54950000Y-28016666D01*
X54950000Y-27950000D01*
X54983333Y-27883333D01*
X55050000Y-27850000D01*
X55216666Y-27850000D01*
X55283333Y-27816666D01*
X55616666Y-28116666D02*
X55616666Y-27650000D01*
X55616666Y-27416666D02*
X55583333Y-27450000D01*
X55616666Y-27483333D01*
X55650000Y-27450000D01*
X55616666Y-27416666D01*
X55616666Y-27483333D01*
X56050000Y-28116666D02*
X55983333Y-28083333D01*
X55950000Y-28016666D01*
X55950000Y-27416666D01*
X56550000Y-27750000D02*
X56650000Y-27783333D01*
X56683333Y-27816666D01*
X56716666Y-27883333D01*
X56716666Y-27983333D01*
X56683333Y-28050000D01*
X56650000Y-28083333D01*
X56583333Y-28116666D01*
X56316666Y-28116666D01*
X56316666Y-27416666D01*
X56550000Y-27416666D01*
X56616666Y-27450000D01*
X56650000Y-27483333D01*
X56683333Y-27550000D01*
X56683333Y-27616666D01*
X56650000Y-27683333D01*
X56616666Y-27716666D01*
X56550000Y-27750000D01*
X56316666Y-27750000D01*
X57116666Y-28116666D02*
X57050000Y-28083333D01*
X57016666Y-28050000D01*
X56983333Y-27983333D01*
X56983333Y-27783333D01*
X57016666Y-27716666D01*
X57050000Y-27683333D01*
X57116666Y-27650000D01*
X57216666Y-27650000D01*
X57283333Y-27683333D01*
X57316666Y-27716666D01*
X57350000Y-27783333D01*
X57350000Y-27983333D01*
X57316666Y-28050000D01*
X57283333Y-28083333D01*
X57216666Y-28116666D01*
X57116666Y-28116666D01*
X57950000Y-28116666D02*
X57950000Y-27750000D01*
X57916666Y-27683333D01*
X57850000Y-27650000D01*
X57716666Y-27650000D01*
X57650000Y-27683333D01*
X57950000Y-28083333D02*
X57883333Y-28116666D01*
X57716666Y-28116666D01*
X57650000Y-28083333D01*
X57616666Y-28016666D01*
X57616666Y-27950000D01*
X57650000Y-27883333D01*
X57716666Y-27850000D01*
X57883333Y-27850000D01*
X57950000Y-27816666D01*
X58283333Y-28116666D02*
X58283333Y-27650000D01*
X58283333Y-27783333D02*
X58316666Y-27716666D01*
X58350000Y-27683333D01*
X58416666Y-27650000D01*
X58483333Y-27650000D01*
X59016666Y-28116666D02*
X59016666Y-27416666D01*
X59016666Y-28083333D02*
X58950000Y-28116666D01*
X58816666Y-28116666D01*
X58750000Y-28083333D01*
X58716666Y-28050000D01*
X58683333Y-27983333D01*
X58683333Y-27783333D01*
X58716666Y-27716666D01*
X58750000Y-27683333D01*
X58816666Y-27650000D01*
X58950000Y-27650000D01*
X59016666Y-27683333D01*
X8983333Y-47750000D02*
X9216666Y-47750000D01*
X9316666Y-48116666D02*
X8983333Y-48116666D01*
X8983333Y-47416666D01*
X9316666Y-47416666D01*
X9616666Y-47650000D02*
X9616666Y-48116666D01*
X9616666Y-47716666D02*
X9650000Y-47683333D01*
X9716666Y-47650000D01*
X9816666Y-47650000D01*
X9883333Y-47683333D01*
X9916666Y-47750000D01*
X9916666Y-48116666D01*
X10550000Y-48116666D02*
X10550000Y-47416666D01*
X10550000Y-48083333D02*
X10483333Y-48116666D01*
X10350000Y-48116666D01*
X10283333Y-48083333D01*
X10250000Y-48050000D01*
X10216666Y-47983333D01*
X10216666Y-47783333D01*
X10250000Y-47716666D01*
X10283333Y-47683333D01*
X10350000Y-47650000D01*
X10483333Y-47650000D01*
X10550000Y-47683333D01*
X10883333Y-48116666D02*
X10883333Y-47416666D01*
X11150000Y-47416666D01*
X11216666Y-47450000D01*
X11250000Y-47483333D01*
X11283333Y-47550000D01*
X11283333Y-47650000D01*
X11250000Y-47716666D01*
X11216666Y-47750000D01*
X11150000Y-47783333D01*
X10883333Y-47783333D01*
X11983333Y-48050000D02*
X11950000Y-48083333D01*
X11850000Y-48116666D01*
X11783333Y-48116666D01*
X11683333Y-48083333D01*
X11616666Y-48016666D01*
X11583333Y-47950000D01*
X11550000Y-47816666D01*
X11550000Y-47716666D01*
X11583333Y-47583333D01*
X11616666Y-47516666D01*
X11683333Y-47450000D01*
X11783333Y-47416666D01*
X11850000Y-47416666D01*
X11950000Y-47450000D01*
X11983333Y-47483333D01*
X12683333Y-48116666D02*
X12450000Y-47783333D01*
X12283333Y-48116666D02*
X12283333Y-47416666D01*
X12550000Y-47416666D01*
X12616666Y-47450000D01*
X12650000Y-47483333D01*
X12683333Y-47550000D01*
X12683333Y-47650000D01*
X12650000Y-47716666D01*
X12616666Y-47750000D01*
X12550000Y-47783333D01*
X12283333Y-47783333D01*
X13283333Y-48116666D02*
X13283333Y-47750000D01*
X13250000Y-47683333D01*
X13183333Y-47650000D01*
X13050000Y-47650000D01*
X12983333Y-47683333D01*
X13283333Y-48083333D02*
X13216666Y-48116666D01*
X13050000Y-48116666D01*
X12983333Y-48083333D01*
X12950000Y-48016666D01*
X12950000Y-47950000D01*
X12983333Y-47883333D01*
X13050000Y-47850000D01*
X13216666Y-47850000D01*
X13283333Y-47816666D01*
X13616666Y-48116666D02*
X13616666Y-47650000D01*
X13616666Y-47416666D02*
X13583333Y-47450000D01*
X13616666Y-47483333D01*
X13650000Y-47450000D01*
X13616666Y-47416666D01*
X13616666Y-47483333D01*
X14050000Y-48116666D02*
X13983333Y-48083333D01*
X13950000Y-48016666D01*
X13950000Y-47416666D01*
X14550000Y-47750000D02*
X14650000Y-47783333D01*
X14683333Y-47816666D01*
X14716666Y-47883333D01*
X14716666Y-47983333D01*
X14683333Y-48050000D01*
X14650000Y-48083333D01*
X14583333Y-48116666D01*
X14316666Y-48116666D01*
X14316666Y-47416666D01*
X14550000Y-47416666D01*
X14616666Y-47450000D01*
X14650000Y-47483333D01*
X14683333Y-47550000D01*
X14683333Y-47616666D01*
X14650000Y-47683333D01*
X14616666Y-47716666D01*
X14550000Y-47750000D01*
X14316666Y-47750000D01*
X15116666Y-48116666D02*
X15050000Y-48083333D01*
X15016666Y-48050000D01*
X14983333Y-47983333D01*
X14983333Y-47783333D01*
X15016666Y-47716666D01*
X15050000Y-47683333D01*
X15116666Y-47650000D01*
X15216666Y-47650000D01*
X15283333Y-47683333D01*
X15316666Y-47716666D01*
X15350000Y-47783333D01*
X15350000Y-47983333D01*
X15316666Y-48050000D01*
X15283333Y-48083333D01*
X15216666Y-48116666D01*
X15116666Y-48116666D01*
X15950000Y-48116666D02*
X15950000Y-47750000D01*
X15916666Y-47683333D01*
X15850000Y-47650000D01*
X15716666Y-47650000D01*
X15650000Y-47683333D01*
X15950000Y-48083333D02*
X15883333Y-48116666D01*
X15716666Y-48116666D01*
X15650000Y-48083333D01*
X15616666Y-48016666D01*
X15616666Y-47950000D01*
X15650000Y-47883333D01*
X15716666Y-47850000D01*
X15883333Y-47850000D01*
X15950000Y-47816666D01*
X16283333Y-48116666D02*
X16283333Y-47650000D01*
X16283333Y-47783333D02*
X16316666Y-47716666D01*
X16350000Y-47683333D01*
X16416666Y-47650000D01*
X16483333Y-47650000D01*
X17016666Y-48116666D02*
X17016666Y-47416666D01*
X17016666Y-48083333D02*
X16950000Y-48116666D01*
X16816666Y-48116666D01*
X16750000Y-48083333D01*
X16716666Y-48050000D01*
X16683333Y-47983333D01*
X16683333Y-47783333D01*
X16716666Y-47716666D01*
X16750000Y-47683333D01*
X16816666Y-47650000D01*
X16950000Y-47650000D01*
X17016666Y-47683333D01*
D11*
X36623809Y-72652380D02*
X36623809Y-71652380D01*
X37671428Y-72557142D02*
X37623809Y-72604761D01*
X37480952Y-72652380D01*
X37385714Y-72652380D01*
X37242857Y-72604761D01*
X37147619Y-72509523D01*
X37100000Y-72414285D01*
X37052380Y-72223809D01*
X37052380Y-72080952D01*
X37100000Y-71890476D01*
X37147619Y-71795238D01*
X37242857Y-71700000D01*
X37385714Y-71652380D01*
X37480952Y-71652380D01*
X37623809Y-71700000D01*
X37671428Y-71747619D01*
X38623809Y-72652380D02*
X38052380Y-72652380D01*
X38338095Y-72652380D02*
X38338095Y-71652380D01*
X38242857Y-71795238D01*
X38147619Y-71890476D01*
X38052380Y-71938095D01*
X58233333Y-32752380D02*
X57900000Y-32276190D01*
X57661904Y-32752380D02*
X57661904Y-31752380D01*
X58042857Y-31752380D01*
X58138095Y-31800000D01*
X58185714Y-31847619D01*
X58233333Y-31942857D01*
X58233333Y-32085714D01*
X58185714Y-32180952D01*
X58138095Y-32228571D01*
X58042857Y-32276190D01*
X57661904Y-32276190D01*
X59185714Y-32752380D02*
X58614285Y-32752380D01*
X58900000Y-32752380D02*
X58900000Y-31752380D01*
X58804761Y-31895238D01*
X58709523Y-31990476D01*
X58614285Y-32038095D01*
X50623809Y-72652380D02*
X50623809Y-71652380D01*
X51671428Y-72557142D02*
X51623809Y-72604761D01*
X51480952Y-72652380D01*
X51385714Y-72652380D01*
X51242857Y-72604761D01*
X51147619Y-72509523D01*
X51100000Y-72414285D01*
X51052380Y-72223809D01*
X51052380Y-72080952D01*
X51100000Y-71890476D01*
X51147619Y-71795238D01*
X51242857Y-71700000D01*
X51385714Y-71652380D01*
X51480952Y-71652380D01*
X51623809Y-71700000D01*
X51671428Y-71747619D01*
X52623809Y-72652380D02*
X52052380Y-72652380D01*
X52338095Y-72652380D02*
X52338095Y-71652380D01*
X52242857Y-71795238D01*
X52147619Y-71890476D01*
X52052380Y-71938095D01*
X54361904Y-33252380D02*
X54361904Y-32252380D01*
X54600000Y-32252380D01*
X54742857Y-32300000D01*
X54838095Y-32395238D01*
X54885714Y-32490476D01*
X54933333Y-32680952D01*
X54933333Y-32823809D01*
X54885714Y-33014285D01*
X54838095Y-33109523D01*
X54742857Y-33204761D01*
X54600000Y-33252380D01*
X54361904Y-33252380D01*
X55266666Y-32252380D02*
X55885714Y-32252380D01*
X55552380Y-32633333D01*
X55695238Y-32633333D01*
X55790476Y-32680952D01*
X55838095Y-32728571D01*
X55885714Y-32823809D01*
X55885714Y-33061904D01*
X55838095Y-33157142D01*
X55790476Y-33204761D01*
X55695238Y-33252380D01*
X55409523Y-33252380D01*
X55314285Y-33204761D01*
X55266666Y-33157142D01*
X30233333Y-12752380D02*
X29900000Y-12276190D01*
X29661904Y-12752380D02*
X29661904Y-11752380D01*
X30042857Y-11752380D01*
X30138095Y-11800000D01*
X30185714Y-11847619D01*
X30233333Y-11942857D01*
X30233333Y-12085714D01*
X30185714Y-12180952D01*
X30138095Y-12228571D01*
X30042857Y-12276190D01*
X29661904Y-12276190D01*
X31185714Y-12752380D02*
X30614285Y-12752380D01*
X30900000Y-12752380D02*
X30900000Y-11752380D01*
X30804761Y-11895238D01*
X30709523Y-11990476D01*
X30614285Y-12038095D01*
X72233333Y-72752380D02*
X71900000Y-72276190D01*
X71661904Y-72752380D02*
X71661904Y-71752380D01*
X72042857Y-71752380D01*
X72138095Y-71800000D01*
X72185714Y-71847619D01*
X72233333Y-71942857D01*
X72233333Y-72085714D01*
X72185714Y-72180952D01*
X72138095Y-72228571D01*
X72042857Y-72276190D01*
X71661904Y-72276190D01*
X73185714Y-72752380D02*
X72614285Y-72752380D01*
X72900000Y-72752380D02*
X72900000Y-71752380D01*
X72804761Y-71895238D01*
X72709523Y-71990476D01*
X72614285Y-72038095D01*
X60452380Y-39438095D02*
X59452380Y-39438095D01*
X59452380Y-39200000D01*
X59500000Y-39057142D01*
X59595238Y-38961904D01*
X59690476Y-38914285D01*
X59880952Y-38866666D01*
X60023809Y-38866666D01*
X60214285Y-38914285D01*
X60309523Y-38961904D01*
X60404761Y-39057142D01*
X60452380Y-39200000D01*
X60452380Y-39438095D01*
X60452380Y-37914285D02*
X60452380Y-38485714D01*
X60452380Y-38200000D02*
X59452380Y-38200000D01*
X59595238Y-38295238D01*
X59690476Y-38390476D01*
X59738095Y-38485714D01*
X36623809Y-52652380D02*
X36623809Y-51652380D01*
X37671428Y-52557142D02*
X37623809Y-52604761D01*
X37480952Y-52652380D01*
X37385714Y-52652380D01*
X37242857Y-52604761D01*
X37147619Y-52509523D01*
X37100000Y-52414285D01*
X37052380Y-52223809D01*
X37052380Y-52080952D01*
X37100000Y-51890476D01*
X37147619Y-51795238D01*
X37242857Y-51700000D01*
X37385714Y-51652380D01*
X37480952Y-51652380D01*
X37623809Y-51700000D01*
X37671428Y-51747619D01*
X38623809Y-52652380D02*
X38052380Y-52652380D01*
X38338095Y-52652380D02*
X38338095Y-51652380D01*
X38242857Y-51795238D01*
X38147619Y-51890476D01*
X38052380Y-51938095D01*
X64623809Y-52652380D02*
X64623809Y-51652380D01*
X65671428Y-52557142D02*
X65623809Y-52604761D01*
X65480952Y-52652380D01*
X65385714Y-52652380D01*
X65242857Y-52604761D01*
X65147619Y-52509523D01*
X65100000Y-52414285D01*
X65052380Y-52223809D01*
X65052380Y-52080952D01*
X65100000Y-51890476D01*
X65147619Y-51795238D01*
X65242857Y-51700000D01*
X65385714Y-51652380D01*
X65480952Y-51652380D01*
X65623809Y-51700000D01*
X65671428Y-51747619D01*
X66623809Y-52652380D02*
X66052380Y-52652380D01*
X66338095Y-52652380D02*
X66338095Y-51652380D01*
X66242857Y-51795238D01*
X66147619Y-51890476D01*
X66052380Y-51938095D01*
X44233333Y-32752380D02*
X43900000Y-32276190D01*
X43661904Y-32752380D02*
X43661904Y-31752380D01*
X44042857Y-31752380D01*
X44138095Y-31800000D01*
X44185714Y-31847619D01*
X44233333Y-31942857D01*
X44233333Y-32085714D01*
X44185714Y-32180952D01*
X44138095Y-32228571D01*
X44042857Y-32276190D01*
X43661904Y-32276190D01*
X45185714Y-32752380D02*
X44614285Y-32752380D01*
X44900000Y-32752380D02*
X44900000Y-31752380D01*
X44804761Y-31895238D01*
X44709523Y-31990476D01*
X44614285Y-32038095D01*
X72233333Y-32752380D02*
X71900000Y-32276190D01*
X71661904Y-32752380D02*
X71661904Y-31752380D01*
X72042857Y-31752380D01*
X72138095Y-31800000D01*
X72185714Y-31847619D01*
X72233333Y-31942857D01*
X72233333Y-32085714D01*
X72185714Y-32180952D01*
X72138095Y-32228571D01*
X72042857Y-32276190D01*
X71661904Y-32276190D01*
X73185714Y-32752380D02*
X72614285Y-32752380D01*
X72900000Y-32752380D02*
X72900000Y-31752380D01*
X72804761Y-31895238D01*
X72709523Y-31990476D01*
X72614285Y-32038095D01*
X40361904Y-13252380D02*
X40361904Y-12252380D01*
X40600000Y-12252380D01*
X40742857Y-12300000D01*
X40838095Y-12395238D01*
X40885714Y-12490476D01*
X40933333Y-12680952D01*
X40933333Y-12823809D01*
X40885714Y-13014285D01*
X40838095Y-13109523D01*
X40742857Y-13204761D01*
X40600000Y-13252380D01*
X40361904Y-13252380D01*
X41266666Y-12252380D02*
X41885714Y-12252380D01*
X41552380Y-12633333D01*
X41695238Y-12633333D01*
X41790476Y-12680952D01*
X41838095Y-12728571D01*
X41885714Y-12823809D01*
X41885714Y-13061904D01*
X41838095Y-13157142D01*
X41790476Y-13204761D01*
X41695238Y-13252380D01*
X41409523Y-13252380D01*
X41314285Y-13204761D01*
X41266666Y-13157142D01*
X36452380Y-79438095D02*
X35452380Y-79438095D01*
X35452380Y-79200000D01*
X35500000Y-79057142D01*
X35595238Y-78961904D01*
X35690476Y-78914285D01*
X35880952Y-78866666D01*
X36023809Y-78866666D01*
X36214285Y-78914285D01*
X36309523Y-78961904D01*
X36404761Y-79057142D01*
X36452380Y-79200000D01*
X36452380Y-79438095D01*
X35547619Y-78485714D02*
X35500000Y-78438095D01*
X35452380Y-78342857D01*
X35452380Y-78104761D01*
X35500000Y-78009523D01*
X35547619Y-77961904D01*
X35642857Y-77914285D01*
X35738095Y-77914285D01*
X35880952Y-77961904D01*
X36452380Y-78533333D01*
X36452380Y-77914285D01*
X16233333Y-72752380D02*
X15900000Y-72276190D01*
X15661904Y-72752380D02*
X15661904Y-71752380D01*
X16042857Y-71752380D01*
X16138095Y-71800000D01*
X16185714Y-71847619D01*
X16233333Y-71942857D01*
X16233333Y-72085714D01*
X16185714Y-72180952D01*
X16138095Y-72228571D01*
X16042857Y-72276190D01*
X15661904Y-72276190D01*
X17185714Y-72752380D02*
X16614285Y-72752380D01*
X16900000Y-72752380D02*
X16900000Y-71752380D01*
X16804761Y-71895238D01*
X16709523Y-71990476D01*
X16614285Y-72038095D01*
X26361904Y-33252380D02*
X26361904Y-32252380D01*
X26600000Y-32252380D01*
X26742857Y-32300000D01*
X26838095Y-32395238D01*
X26885714Y-32490476D01*
X26933333Y-32680952D01*
X26933333Y-32823809D01*
X26885714Y-33014285D01*
X26838095Y-33109523D01*
X26742857Y-33204761D01*
X26600000Y-33252380D01*
X26361904Y-33252380D01*
X27266666Y-32252380D02*
X27885714Y-32252380D01*
X27552380Y-32633333D01*
X27695238Y-32633333D01*
X27790476Y-32680952D01*
X27838095Y-32728571D01*
X27885714Y-32823809D01*
X27885714Y-33061904D01*
X27838095Y-33157142D01*
X27790476Y-33204761D01*
X27695238Y-33252380D01*
X27409523Y-33252380D01*
X27314285Y-33204761D01*
X27266666Y-33157142D01*
X74452380Y-59438095D02*
X73452380Y-59438095D01*
X73452380Y-59200000D01*
X73500000Y-59057142D01*
X73595238Y-58961904D01*
X73690476Y-58914285D01*
X73880952Y-58866666D01*
X74023809Y-58866666D01*
X74214285Y-58914285D01*
X74309523Y-58961904D01*
X74404761Y-59057142D01*
X74452380Y-59200000D01*
X74452380Y-59438095D01*
X74452380Y-57914285D02*
X74452380Y-58485714D01*
X74452380Y-58200000D02*
X73452380Y-58200000D01*
X73595238Y-58295238D01*
X73690476Y-58390476D01*
X73738095Y-58485714D01*
X22623809Y-32652380D02*
X22623809Y-31652380D01*
X23671428Y-32557142D02*
X23623809Y-32604761D01*
X23480952Y-32652380D01*
X23385714Y-32652380D01*
X23242857Y-32604761D01*
X23147619Y-32509523D01*
X23100000Y-32414285D01*
X23052380Y-32223809D01*
X23052380Y-32080952D01*
X23100000Y-31890476D01*
X23147619Y-31795238D01*
X23242857Y-31700000D01*
X23385714Y-31652380D01*
X23480952Y-31652380D01*
X23623809Y-31700000D01*
X23671428Y-31747619D01*
X24623809Y-32652380D02*
X24052380Y-32652380D01*
X24338095Y-32652380D02*
X24338095Y-31652380D01*
X24242857Y-31795238D01*
X24147619Y-31890476D01*
X24052380Y-31938095D01*
X12361904Y-13252380D02*
X12361904Y-12252380D01*
X12600000Y-12252380D01*
X12742857Y-12300000D01*
X12838095Y-12395238D01*
X12885714Y-12490476D01*
X12933333Y-12680952D01*
X12933333Y-12823809D01*
X12885714Y-13014285D01*
X12838095Y-13109523D01*
X12742857Y-13204761D01*
X12600000Y-13252380D01*
X12361904Y-13252380D01*
X13266666Y-12252380D02*
X13885714Y-12252380D01*
X13552380Y-12633333D01*
X13695238Y-12633333D01*
X13790476Y-12680952D01*
X13838095Y-12728571D01*
X13885714Y-12823809D01*
X13885714Y-13061904D01*
X13838095Y-13157142D01*
X13790476Y-13204761D01*
X13695238Y-13252380D01*
X13409523Y-13252380D01*
X13314285Y-13204761D01*
X13266666Y-13157142D01*
X72233333Y-12752380D02*
X71900000Y-12276190D01*
X71661904Y-12752380D02*
X71661904Y-11752380D01*
X72042857Y-11752380D01*
X72138095Y-11800000D01*
X72185714Y-11847619D01*
X72233333Y-11942857D01*
X72233333Y-12085714D01*
X72185714Y-12180952D01*
X72138095Y-12228571D01*
X72042857Y-12276190D01*
X71661904Y-12276190D01*
X73185714Y-12752380D02*
X72614285Y-12752380D01*
X72900000Y-12752380D02*
X72900000Y-11752380D01*
X72804761Y-11895238D01*
X72709523Y-11990476D01*
X72614285Y-12038095D01*
X46452380Y-39438095D02*
X45452380Y-39438095D01*
X45452380Y-39200000D01*
X45500000Y-39057142D01*
X45595238Y-38961904D01*
X45690476Y-38914285D01*
X45880952Y-38866666D01*
X46023809Y-38866666D01*
X46214285Y-38914285D01*
X46309523Y-38961904D01*
X46404761Y-39057142D01*
X46452380Y-39200000D01*
X46452380Y-39438095D01*
X46452380Y-37914285D02*
X46452380Y-38485714D01*
X46452380Y-38200000D02*
X45452380Y-38200000D01*
X45595238Y-38295238D01*
X45690476Y-38390476D01*
X45738095Y-38485714D01*
X44233333Y-12752380D02*
X43900000Y-12276190D01*
X43661904Y-12752380D02*
X43661904Y-11752380D01*
X44042857Y-11752380D01*
X44138095Y-11800000D01*
X44185714Y-11847619D01*
X44233333Y-11942857D01*
X44233333Y-12085714D01*
X44185714Y-12180952D01*
X44138095Y-12228571D01*
X44042857Y-12276190D01*
X43661904Y-12276190D01*
X45185714Y-12752380D02*
X44614285Y-12752380D01*
X44900000Y-12752380D02*
X44900000Y-11752380D01*
X44804761Y-11895238D01*
X44709523Y-11990476D01*
X44614285Y-12038095D01*
X18452380Y-39438095D02*
X17452380Y-39438095D01*
X17452380Y-39200000D01*
X17500000Y-39057142D01*
X17595238Y-38961904D01*
X17690476Y-38914285D01*
X17880952Y-38866666D01*
X18023809Y-38866666D01*
X18214285Y-38914285D01*
X18309523Y-38961904D01*
X18404761Y-39057142D01*
X18452380Y-39200000D01*
X18452380Y-39438095D01*
X18452380Y-37914285D02*
X18452380Y-38485714D01*
X18452380Y-38200000D02*
X17452380Y-38200000D01*
X17595238Y-38295238D01*
X17690476Y-38390476D01*
X17738095Y-38485714D01*
X78623809Y-72652380D02*
X78623809Y-71652380D01*
X79671428Y-72557142D02*
X79623809Y-72604761D01*
X79480952Y-72652380D01*
X79385714Y-72652380D01*
X79242857Y-72604761D01*
X79147619Y-72509523D01*
X79100000Y-72414285D01*
X79052380Y-72223809D01*
X79052380Y-72080952D01*
X79100000Y-71890476D01*
X79147619Y-71795238D01*
X79242857Y-71700000D01*
X79385714Y-71652380D01*
X79480952Y-71652380D01*
X79623809Y-71700000D01*
X79671428Y-71747619D01*
X80623809Y-72652380D02*
X80052380Y-72652380D01*
X80338095Y-72652380D02*
X80338095Y-71652380D01*
X80242857Y-71795238D01*
X80147619Y-71890476D01*
X80052380Y-71938095D01*
X40361904Y-33252380D02*
X40361904Y-32252380D01*
X40600000Y-32252380D01*
X40742857Y-32300000D01*
X40838095Y-32395238D01*
X40885714Y-32490476D01*
X40933333Y-32680952D01*
X40933333Y-32823809D01*
X40885714Y-33014285D01*
X40838095Y-33109523D01*
X40742857Y-33204761D01*
X40600000Y-33252380D01*
X40361904Y-33252380D01*
X41266666Y-32252380D02*
X41885714Y-32252380D01*
X41552380Y-32633333D01*
X41695238Y-32633333D01*
X41790476Y-32680952D01*
X41838095Y-32728571D01*
X41885714Y-32823809D01*
X41885714Y-33061904D01*
X41838095Y-33157142D01*
X41790476Y-33204761D01*
X41695238Y-33252380D01*
X41409523Y-33252380D01*
X41314285Y-33204761D01*
X41266666Y-33157142D01*
X78452380Y-59438095D02*
X77452380Y-59438095D01*
X77452380Y-59200000D01*
X77500000Y-59057142D01*
X77595238Y-58961904D01*
X77690476Y-58914285D01*
X77880952Y-58866666D01*
X78023809Y-58866666D01*
X78214285Y-58914285D01*
X78309523Y-58961904D01*
X78404761Y-59057142D01*
X78452380Y-59200000D01*
X78452380Y-59438095D01*
X77547619Y-58485714D02*
X77500000Y-58438095D01*
X77452380Y-58342857D01*
X77452380Y-58104761D01*
X77500000Y-58009523D01*
X77547619Y-57961904D01*
X77642857Y-57914285D01*
X77738095Y-57914285D01*
X77880952Y-57961904D01*
X78452380Y-58533333D01*
X78452380Y-57914285D01*
X30233333Y-32752380D02*
X29900000Y-32276190D01*
X29661904Y-32752380D02*
X29661904Y-31752380D01*
X30042857Y-31752380D01*
X30138095Y-31800000D01*
X30185714Y-31847619D01*
X30233333Y-31942857D01*
X30233333Y-32085714D01*
X30185714Y-32180952D01*
X30138095Y-32228571D01*
X30042857Y-32276190D01*
X29661904Y-32276190D01*
X31185714Y-32752380D02*
X30614285Y-32752380D01*
X30900000Y-32752380D02*
X30900000Y-31752380D01*
X30804761Y-31895238D01*
X30709523Y-31990476D01*
X30614285Y-32038095D01*
X58233333Y-72752380D02*
X57900000Y-72276190D01*
X57661904Y-72752380D02*
X57661904Y-71752380D01*
X58042857Y-71752380D01*
X58138095Y-71800000D01*
X58185714Y-71847619D01*
X58233333Y-71942857D01*
X58233333Y-72085714D01*
X58185714Y-72180952D01*
X58138095Y-72228571D01*
X58042857Y-72276190D01*
X57661904Y-72276190D01*
X59185714Y-72752380D02*
X58614285Y-72752380D01*
X58900000Y-72752380D02*
X58900000Y-71752380D01*
X58804761Y-71895238D01*
X58709523Y-71990476D01*
X58614285Y-72038095D01*
X64452380Y-59438095D02*
X63452380Y-59438095D01*
X63452380Y-59200000D01*
X63500000Y-59057142D01*
X63595238Y-58961904D01*
X63690476Y-58914285D01*
X63880952Y-58866666D01*
X64023809Y-58866666D01*
X64214285Y-58914285D01*
X64309523Y-58961904D01*
X64404761Y-59057142D01*
X64452380Y-59200000D01*
X64452380Y-59438095D01*
X63547619Y-58485714D02*
X63500000Y-58438095D01*
X63452380Y-58342857D01*
X63452380Y-58104761D01*
X63500000Y-58009523D01*
X63547619Y-57961904D01*
X63642857Y-57914285D01*
X63738095Y-57914285D01*
X63880952Y-57961904D01*
X64452380Y-58533333D01*
X64452380Y-57914285D01*
X16233333Y-52752380D02*
X15900000Y-52276190D01*
X15661904Y-52752380D02*
X15661904Y-51752380D01*
X16042857Y-51752380D01*
X16138095Y-51800000D01*
X16185714Y-51847619D01*
X16233333Y-51942857D01*
X16233333Y-52085714D01*
X16185714Y-52180952D01*
X16138095Y-52228571D01*
X16042857Y-52276190D01*
X15661904Y-52276190D01*
X17185714Y-52752380D02*
X16614285Y-52752380D01*
X16900000Y-52752380D02*
X16900000Y-51752380D01*
X16804761Y-51895238D01*
X16709523Y-51990476D01*
X16614285Y-52038095D01*
X36452380Y-39438095D02*
X35452380Y-39438095D01*
X35452380Y-39200000D01*
X35500000Y-39057142D01*
X35595238Y-38961904D01*
X35690476Y-38914285D01*
X35880952Y-38866666D01*
X36023809Y-38866666D01*
X36214285Y-38914285D01*
X36309523Y-38961904D01*
X36404761Y-39057142D01*
X36452380Y-39200000D01*
X36452380Y-39438095D01*
X35547619Y-38485714D02*
X35500000Y-38438095D01*
X35452380Y-38342857D01*
X35452380Y-38104761D01*
X35500000Y-38009523D01*
X35547619Y-37961904D01*
X35642857Y-37914285D01*
X35738095Y-37914285D01*
X35880952Y-37961904D01*
X36452380Y-38533333D01*
X36452380Y-37914285D01*
X22623809Y-72652380D02*
X22623809Y-71652380D01*
X23671428Y-72557142D02*
X23623809Y-72604761D01*
X23480952Y-72652380D01*
X23385714Y-72652380D01*
X23242857Y-72604761D01*
X23147619Y-72509523D01*
X23100000Y-72414285D01*
X23052380Y-72223809D01*
X23052380Y-72080952D01*
X23100000Y-71890476D01*
X23147619Y-71795238D01*
X23242857Y-71700000D01*
X23385714Y-71652380D01*
X23480952Y-71652380D01*
X23623809Y-71700000D01*
X23671428Y-71747619D01*
X24623809Y-72652380D02*
X24052380Y-72652380D01*
X24338095Y-72652380D02*
X24338095Y-71652380D01*
X24242857Y-71795238D01*
X24147619Y-71890476D01*
X24052380Y-71938095D01*
X60452380Y-19438095D02*
X59452380Y-19438095D01*
X59452380Y-19200000D01*
X59500000Y-19057142D01*
X59595238Y-18961904D01*
X59690476Y-18914285D01*
X59880952Y-18866666D01*
X60023809Y-18866666D01*
X60214285Y-18914285D01*
X60309523Y-18961904D01*
X60404761Y-19057142D01*
X60452380Y-19200000D01*
X60452380Y-19438095D01*
X60452380Y-17914285D02*
X60452380Y-18485714D01*
X60452380Y-18200000D02*
X59452380Y-18200000D01*
X59595238Y-18295238D01*
X59690476Y-18390476D01*
X59738095Y-18485714D01*
X30233333Y-52752380D02*
X29900000Y-52276190D01*
X29661904Y-52752380D02*
X29661904Y-51752380D01*
X30042857Y-51752380D01*
X30138095Y-51800000D01*
X30185714Y-51847619D01*
X30233333Y-51942857D01*
X30233333Y-52085714D01*
X30185714Y-52180952D01*
X30138095Y-52228571D01*
X30042857Y-52276190D01*
X29661904Y-52276190D01*
X31185714Y-52752380D02*
X30614285Y-52752380D01*
X30900000Y-52752380D02*
X30900000Y-51752380D01*
X30804761Y-51895238D01*
X30709523Y-51990476D01*
X30614285Y-52038095D01*
X78623809Y-12652380D02*
X78623809Y-11652380D01*
X79671428Y-12557142D02*
X79623809Y-12604761D01*
X79480952Y-12652380D01*
X79385714Y-12652380D01*
X79242857Y-12604761D01*
X79147619Y-12509523D01*
X79100000Y-12414285D01*
X79052380Y-12223809D01*
X79052380Y-12080952D01*
X79100000Y-11890476D01*
X79147619Y-11795238D01*
X79242857Y-11700000D01*
X79385714Y-11652380D01*
X79480952Y-11652380D01*
X79623809Y-11700000D01*
X79671428Y-11747619D01*
X80623809Y-12652380D02*
X80052380Y-12652380D01*
X80338095Y-12652380D02*
X80338095Y-11652380D01*
X80242857Y-11795238D01*
X80147619Y-11890476D01*
X80052380Y-11938095D01*
X82361904Y-53252380D02*
X82361904Y-52252380D01*
X82600000Y-52252380D01*
X82742857Y-52300000D01*
X82838095Y-52395238D01*
X82885714Y-52490476D01*
X82933333Y-52680952D01*
X82933333Y-52823809D01*
X82885714Y-53014285D01*
X82838095Y-53109523D01*
X82742857Y-53204761D01*
X82600000Y-53252380D01*
X82361904Y-53252380D01*
X83266666Y-52252380D02*
X83885714Y-52252380D01*
X83552380Y-52633333D01*
X83695238Y-52633333D01*
X83790476Y-52680952D01*
X83838095Y-52728571D01*
X83885714Y-52823809D01*
X83885714Y-53061904D01*
X83838095Y-53157142D01*
X83790476Y-53204761D01*
X83695238Y-53252380D01*
X83409523Y-53252380D01*
X83314285Y-53204761D01*
X83266666Y-53157142D01*
X46452380Y-79438095D02*
X45452380Y-79438095D01*
X45452380Y-79200000D01*
X45500000Y-79057142D01*
X45595238Y-78961904D01*
X45690476Y-78914285D01*
X45880952Y-78866666D01*
X46023809Y-78866666D01*
X46214285Y-78914285D01*
X46309523Y-78961904D01*
X46404761Y-79057142D01*
X46452380Y-79200000D01*
X46452380Y-79438095D01*
X46452380Y-77914285D02*
X46452380Y-78485714D01*
X46452380Y-78200000D02*
X45452380Y-78200000D01*
X45595238Y-78295238D01*
X45690476Y-78390476D01*
X45738095Y-78485714D01*
X68361904Y-73252380D02*
X68361904Y-72252380D01*
X68600000Y-72252380D01*
X68742857Y-72300000D01*
X68838095Y-72395238D01*
X68885714Y-72490476D01*
X68933333Y-72680952D01*
X68933333Y-72823809D01*
X68885714Y-73014285D01*
X68838095Y-73109523D01*
X68742857Y-73204761D01*
X68600000Y-73252380D01*
X68361904Y-73252380D01*
X69266666Y-72252380D02*
X69885714Y-72252380D01*
X69552380Y-72633333D01*
X69695238Y-72633333D01*
X69790476Y-72680952D01*
X69838095Y-72728571D01*
X69885714Y-72823809D01*
X69885714Y-73061904D01*
X69838095Y-73157142D01*
X69790476Y-73204761D01*
X69695238Y-73252380D01*
X69409523Y-73252380D01*
X69314285Y-73204761D01*
X69266666Y-73157142D01*
X60452380Y-79438095D02*
X59452380Y-79438095D01*
X59452380Y-79200000D01*
X59500000Y-79057142D01*
X59595238Y-78961904D01*
X59690476Y-78914285D01*
X59880952Y-78866666D01*
X60023809Y-78866666D01*
X60214285Y-78914285D01*
X60309523Y-78961904D01*
X60404761Y-79057142D01*
X60452380Y-79200000D01*
X60452380Y-79438095D01*
X60452380Y-77914285D02*
X60452380Y-78485714D01*
X60452380Y-78200000D02*
X59452380Y-78200000D01*
X59595238Y-78295238D01*
X59690476Y-78390476D01*
X59738095Y-78485714D01*
X8452380Y-39438095D02*
X7452380Y-39438095D01*
X7452380Y-39200000D01*
X7500000Y-39057142D01*
X7595238Y-38961904D01*
X7690476Y-38914285D01*
X7880952Y-38866666D01*
X8023809Y-38866666D01*
X8214285Y-38914285D01*
X8309523Y-38961904D01*
X8404761Y-39057142D01*
X8452380Y-39200000D01*
X8452380Y-39438095D01*
X7547619Y-38485714D02*
X7500000Y-38438095D01*
X7452380Y-38342857D01*
X7452380Y-38104761D01*
X7500000Y-38009523D01*
X7547619Y-37961904D01*
X7642857Y-37914285D01*
X7738095Y-37914285D01*
X7880952Y-37961904D01*
X8452380Y-38533333D01*
X8452380Y-37914285D01*
X82361904Y-33252380D02*
X82361904Y-32252380D01*
X82600000Y-32252380D01*
X82742857Y-32300000D01*
X82838095Y-32395238D01*
X82885714Y-32490476D01*
X82933333Y-32680952D01*
X82933333Y-32823809D01*
X82885714Y-33014285D01*
X82838095Y-33109523D01*
X82742857Y-33204761D01*
X82600000Y-33252380D01*
X82361904Y-33252380D01*
X83266666Y-32252380D02*
X83885714Y-32252380D01*
X83552380Y-32633333D01*
X83695238Y-32633333D01*
X83790476Y-32680952D01*
X83838095Y-32728571D01*
X83885714Y-32823809D01*
X83885714Y-33061904D01*
X83838095Y-33157142D01*
X83790476Y-33204761D01*
X83695238Y-33252380D01*
X83409523Y-33252380D01*
X83314285Y-33204761D01*
X83266666Y-33157142D01*
X72233333Y-52752380D02*
X71900000Y-52276190D01*
X71661904Y-52752380D02*
X71661904Y-51752380D01*
X72042857Y-51752380D01*
X72138095Y-51800000D01*
X72185714Y-51847619D01*
X72233333Y-51942857D01*
X72233333Y-52085714D01*
X72185714Y-52180952D01*
X72138095Y-52228571D01*
X72042857Y-52276190D01*
X71661904Y-52276190D01*
X73185714Y-52752380D02*
X72614285Y-52752380D01*
X72900000Y-52752380D02*
X72900000Y-51752380D01*
X72804761Y-51895238D01*
X72709523Y-51990476D01*
X72614285Y-52038095D01*
X78452380Y-19438095D02*
X77452380Y-19438095D01*
X77452380Y-19200000D01*
X77500000Y-19057142D01*
X77595238Y-18961904D01*
X77690476Y-18914285D01*
X77880952Y-18866666D01*
X78023809Y-18866666D01*
X78214285Y-18914285D01*
X78309523Y-18961904D01*
X78404761Y-19057142D01*
X78452380Y-19200000D01*
X78452380Y-19438095D01*
X77547619Y-18485714D02*
X77500000Y-18438095D01*
X77452380Y-18342857D01*
X77452380Y-18104761D01*
X77500000Y-18009523D01*
X77547619Y-17961904D01*
X77642857Y-17914285D01*
X77738095Y-17914285D01*
X77880952Y-17961904D01*
X78452380Y-18533333D01*
X78452380Y-17914285D01*
X64623809Y-72652380D02*
X64623809Y-71652380D01*
X65671428Y-72557142D02*
X65623809Y-72604761D01*
X65480952Y-72652380D01*
X65385714Y-72652380D01*
X65242857Y-72604761D01*
X65147619Y-72509523D01*
X65100000Y-72414285D01*
X65052380Y-72223809D01*
X65052380Y-72080952D01*
X65100000Y-71890476D01*
X65147619Y-71795238D01*
X65242857Y-71700000D01*
X65385714Y-71652380D01*
X65480952Y-71652380D01*
X65623809Y-71700000D01*
X65671428Y-71747619D01*
X66623809Y-72652380D02*
X66052380Y-72652380D01*
X66338095Y-72652380D02*
X66338095Y-71652380D01*
X66242857Y-71795238D01*
X66147619Y-71890476D01*
X66052380Y-71938095D01*
X12361904Y-73252380D02*
X12361904Y-72252380D01*
X12600000Y-72252380D01*
X12742857Y-72300000D01*
X12838095Y-72395238D01*
X12885714Y-72490476D01*
X12933333Y-72680952D01*
X12933333Y-72823809D01*
X12885714Y-73014285D01*
X12838095Y-73109523D01*
X12742857Y-73204761D01*
X12600000Y-73252380D01*
X12361904Y-73252380D01*
X13266666Y-72252380D02*
X13885714Y-72252380D01*
X13552380Y-72633333D01*
X13695238Y-72633333D01*
X13790476Y-72680952D01*
X13838095Y-72728571D01*
X13885714Y-72823809D01*
X13885714Y-73061904D01*
X13838095Y-73157142D01*
X13790476Y-73204761D01*
X13695238Y-73252380D01*
X13409523Y-73252380D01*
X13314285Y-73204761D01*
X13266666Y-73157142D01*
X78623809Y-52652380D02*
X78623809Y-51652380D01*
X79671428Y-52557142D02*
X79623809Y-52604761D01*
X79480952Y-52652380D01*
X79385714Y-52652380D01*
X79242857Y-52604761D01*
X79147619Y-52509523D01*
X79100000Y-52414285D01*
X79052380Y-52223809D01*
X79052380Y-52080952D01*
X79100000Y-51890476D01*
X79147619Y-51795238D01*
X79242857Y-51700000D01*
X79385714Y-51652380D01*
X79480952Y-51652380D01*
X79623809Y-51700000D01*
X79671428Y-51747619D01*
X80623809Y-52652380D02*
X80052380Y-52652380D01*
X80338095Y-52652380D02*
X80338095Y-51652380D01*
X80242857Y-51795238D01*
X80147619Y-51890476D01*
X80052380Y-51938095D01*
X86233333Y-52752380D02*
X85900000Y-52276190D01*
X85661904Y-52752380D02*
X85661904Y-51752380D01*
X86042857Y-51752380D01*
X86138095Y-51800000D01*
X86185714Y-51847619D01*
X86233333Y-51942857D01*
X86233333Y-52085714D01*
X86185714Y-52180952D01*
X86138095Y-52228571D01*
X86042857Y-52276190D01*
X85661904Y-52276190D01*
X87185714Y-52752380D02*
X86614285Y-52752380D01*
X86900000Y-52752380D02*
X86900000Y-51752380D01*
X86804761Y-51895238D01*
X86709523Y-51990476D01*
X86614285Y-52038095D01*
X46452380Y-19438095D02*
X45452380Y-19438095D01*
X45452380Y-19200000D01*
X45500000Y-19057142D01*
X45595238Y-18961904D01*
X45690476Y-18914285D01*
X45880952Y-18866666D01*
X46023809Y-18866666D01*
X46214285Y-18914285D01*
X46309523Y-18961904D01*
X46404761Y-19057142D01*
X46452380Y-19200000D01*
X46452380Y-19438095D01*
X46452380Y-17914285D02*
X46452380Y-18485714D01*
X46452380Y-18200000D02*
X45452380Y-18200000D01*
X45595238Y-18295238D01*
X45690476Y-18390476D01*
X45738095Y-18485714D01*
X8452380Y-79438095D02*
X7452380Y-79438095D01*
X7452380Y-79200000D01*
X7500000Y-79057142D01*
X7595238Y-78961904D01*
X7690476Y-78914285D01*
X7880952Y-78866666D01*
X8023809Y-78866666D01*
X8214285Y-78914285D01*
X8309523Y-78961904D01*
X8404761Y-79057142D01*
X8452380Y-79200000D01*
X8452380Y-79438095D01*
X7547619Y-78485714D02*
X7500000Y-78438095D01*
X7452380Y-78342857D01*
X7452380Y-78104761D01*
X7500000Y-78009523D01*
X7547619Y-77961904D01*
X7642857Y-77914285D01*
X7738095Y-77914285D01*
X7880952Y-77961904D01*
X8452380Y-78533333D01*
X8452380Y-77914285D01*
X32452380Y-59438095D02*
X31452380Y-59438095D01*
X31452380Y-59200000D01*
X31500000Y-59057142D01*
X31595238Y-58961904D01*
X31690476Y-58914285D01*
X31880952Y-58866666D01*
X32023809Y-58866666D01*
X32214285Y-58914285D01*
X32309523Y-58961904D01*
X32404761Y-59057142D01*
X32452380Y-59200000D01*
X32452380Y-59438095D01*
X32452380Y-57914285D02*
X32452380Y-58485714D01*
X32452380Y-58200000D02*
X31452380Y-58200000D01*
X31595238Y-58295238D01*
X31690476Y-58390476D01*
X31738095Y-58485714D01*
X82361904Y-13252380D02*
X82361904Y-12252380D01*
X82600000Y-12252380D01*
X82742857Y-12300000D01*
X82838095Y-12395238D01*
X82885714Y-12490476D01*
X82933333Y-12680952D01*
X82933333Y-12823809D01*
X82885714Y-13014285D01*
X82838095Y-13109523D01*
X82742857Y-13204761D01*
X82600000Y-13252380D01*
X82361904Y-13252380D01*
X83266666Y-12252380D02*
X83885714Y-12252380D01*
X83552380Y-12633333D01*
X83695238Y-12633333D01*
X83790476Y-12680952D01*
X83838095Y-12728571D01*
X83885714Y-12823809D01*
X83885714Y-13061904D01*
X83838095Y-13157142D01*
X83790476Y-13204761D01*
X83695238Y-13252380D01*
X83409523Y-13252380D01*
X83314285Y-13204761D01*
X83266666Y-13157142D01*
X78452380Y-39438095D02*
X77452380Y-39438095D01*
X77452380Y-39200000D01*
X77500000Y-39057142D01*
X77595238Y-38961904D01*
X77690476Y-38914285D01*
X77880952Y-38866666D01*
X78023809Y-38866666D01*
X78214285Y-38914285D01*
X78309523Y-38961904D01*
X78404761Y-39057142D01*
X78452380Y-39200000D01*
X78452380Y-39438095D01*
X77547619Y-38485714D02*
X77500000Y-38438095D01*
X77452380Y-38342857D01*
X77452380Y-38104761D01*
X77500000Y-38009523D01*
X77547619Y-37961904D01*
X77642857Y-37914285D01*
X77738095Y-37914285D01*
X77880952Y-37961904D01*
X78452380Y-38533333D01*
X78452380Y-37914285D01*
X78452380Y-79438095D02*
X77452380Y-79438095D01*
X77452380Y-79200000D01*
X77500000Y-79057142D01*
X77595238Y-78961904D01*
X77690476Y-78914285D01*
X77880952Y-78866666D01*
X78023809Y-78866666D01*
X78214285Y-78914285D01*
X78309523Y-78961904D01*
X78404761Y-79057142D01*
X78452380Y-79200000D01*
X78452380Y-79438095D01*
X77547619Y-78485714D02*
X77500000Y-78438095D01*
X77452380Y-78342857D01*
X77452380Y-78104761D01*
X77500000Y-78009523D01*
X77547619Y-77961904D01*
X77642857Y-77914285D01*
X77738095Y-77914285D01*
X77880952Y-77961904D01*
X78452380Y-78533333D01*
X78452380Y-77914285D01*
X40361904Y-73252380D02*
X40361904Y-72252380D01*
X40600000Y-72252380D01*
X40742857Y-72300000D01*
X40838095Y-72395238D01*
X40885714Y-72490476D01*
X40933333Y-72680952D01*
X40933333Y-72823809D01*
X40885714Y-73014285D01*
X40838095Y-73109523D01*
X40742857Y-73204761D01*
X40600000Y-73252380D01*
X40361904Y-73252380D01*
X41266666Y-72252380D02*
X41885714Y-72252380D01*
X41552380Y-72633333D01*
X41695238Y-72633333D01*
X41790476Y-72680952D01*
X41838095Y-72728571D01*
X41885714Y-72823809D01*
X41885714Y-73061904D01*
X41838095Y-73157142D01*
X41790476Y-73204761D01*
X41695238Y-73252380D01*
X41409523Y-73252380D01*
X41314285Y-73204761D01*
X41266666Y-73157142D01*
X50452380Y-39438095D02*
X49452380Y-39438095D01*
X49452380Y-39200000D01*
X49500000Y-39057142D01*
X49595238Y-38961904D01*
X49690476Y-38914285D01*
X49880952Y-38866666D01*
X50023809Y-38866666D01*
X50214285Y-38914285D01*
X50309523Y-38961904D01*
X50404761Y-39057142D01*
X50452380Y-39200000D01*
X50452380Y-39438095D01*
X49547619Y-38485714D02*
X49500000Y-38438095D01*
X49452380Y-38342857D01*
X49452380Y-38104761D01*
X49500000Y-38009523D01*
X49547619Y-37961904D01*
X49642857Y-37914285D01*
X49738095Y-37914285D01*
X49880952Y-37961904D01*
X50452380Y-38533333D01*
X50452380Y-37914285D01*
X18452380Y-19438095D02*
X17452380Y-19438095D01*
X17452380Y-19200000D01*
X17500000Y-19057142D01*
X17595238Y-18961904D01*
X17690476Y-18914285D01*
X17880952Y-18866666D01*
X18023809Y-18866666D01*
X18214285Y-18914285D01*
X18309523Y-18961904D01*
X18404761Y-19057142D01*
X18452380Y-19200000D01*
X18452380Y-19438095D01*
X18452380Y-17914285D02*
X18452380Y-18485714D01*
X18452380Y-18200000D02*
X17452380Y-18200000D01*
X17595238Y-18295238D01*
X17690476Y-18390476D01*
X17738095Y-18485714D01*
X54361904Y-73252380D02*
X54361904Y-72252380D01*
X54600000Y-72252380D01*
X54742857Y-72300000D01*
X54838095Y-72395238D01*
X54885714Y-72490476D01*
X54933333Y-72680952D01*
X54933333Y-72823809D01*
X54885714Y-73014285D01*
X54838095Y-73109523D01*
X54742857Y-73204761D01*
X54600000Y-73252380D01*
X54361904Y-73252380D01*
X55266666Y-72252380D02*
X55885714Y-72252380D01*
X55552380Y-72633333D01*
X55695238Y-72633333D01*
X55790476Y-72680952D01*
X55838095Y-72728571D01*
X55885714Y-72823809D01*
X55885714Y-73061904D01*
X55838095Y-73157142D01*
X55790476Y-73204761D01*
X55695238Y-73252380D01*
X55409523Y-73252380D01*
X55314285Y-73204761D01*
X55266666Y-73157142D01*
X50452380Y-79438095D02*
X49452380Y-79438095D01*
X49452380Y-79200000D01*
X49500000Y-79057142D01*
X49595238Y-78961904D01*
X49690476Y-78914285D01*
X49880952Y-78866666D01*
X50023809Y-78866666D01*
X50214285Y-78914285D01*
X50309523Y-78961904D01*
X50404761Y-79057142D01*
X50452380Y-79200000D01*
X50452380Y-79438095D01*
X49547619Y-78485714D02*
X49500000Y-78438095D01*
X49452380Y-78342857D01*
X49452380Y-78104761D01*
X49500000Y-78009523D01*
X49547619Y-77961904D01*
X49642857Y-77914285D01*
X49738095Y-77914285D01*
X49880952Y-77961904D01*
X50452380Y-78533333D01*
X50452380Y-77914285D01*
X22452380Y-79438095D02*
X21452380Y-79438095D01*
X21452380Y-79200000D01*
X21500000Y-79057142D01*
X21595238Y-78961904D01*
X21690476Y-78914285D01*
X21880952Y-78866666D01*
X22023809Y-78866666D01*
X22214285Y-78914285D01*
X22309523Y-78961904D01*
X22404761Y-79057142D01*
X22452380Y-79200000D01*
X22452380Y-79438095D01*
X21547619Y-78485714D02*
X21500000Y-78438095D01*
X21452380Y-78342857D01*
X21452380Y-78104761D01*
X21500000Y-78009523D01*
X21547619Y-77961904D01*
X21642857Y-77914285D01*
X21738095Y-77914285D01*
X21880952Y-77961904D01*
X22452380Y-78533333D01*
X22452380Y-77914285D01*
X54361904Y-13252380D02*
X54361904Y-12252380D01*
X54600000Y-12252380D01*
X54742857Y-12300000D01*
X54838095Y-12395238D01*
X54885714Y-12490476D01*
X54933333Y-12680952D01*
X54933333Y-12823809D01*
X54885714Y-13014285D01*
X54838095Y-13109523D01*
X54742857Y-13204761D01*
X54600000Y-13252380D01*
X54361904Y-13252380D01*
X55266666Y-12252380D02*
X55885714Y-12252380D01*
X55552380Y-12633333D01*
X55695238Y-12633333D01*
X55790476Y-12680952D01*
X55838095Y-12728571D01*
X55885714Y-12823809D01*
X55885714Y-13061904D01*
X55838095Y-13157142D01*
X55790476Y-13204761D01*
X55695238Y-13252380D01*
X55409523Y-13252380D01*
X55314285Y-13204761D01*
X55266666Y-13157142D01*
X44233333Y-72752380D02*
X43900000Y-72276190D01*
X43661904Y-72752380D02*
X43661904Y-71752380D01*
X44042857Y-71752380D01*
X44138095Y-71800000D01*
X44185714Y-71847619D01*
X44233333Y-71942857D01*
X44233333Y-72085714D01*
X44185714Y-72180952D01*
X44138095Y-72228571D01*
X44042857Y-72276190D01*
X43661904Y-72276190D01*
X45185714Y-72752380D02*
X44614285Y-72752380D01*
X44900000Y-72752380D02*
X44900000Y-71752380D01*
X44804761Y-71895238D01*
X44709523Y-71990476D01*
X44614285Y-72038095D01*
X86233333Y-72752380D02*
X85900000Y-72276190D01*
X85661904Y-72752380D02*
X85661904Y-71752380D01*
X86042857Y-71752380D01*
X86138095Y-71800000D01*
X86185714Y-71847619D01*
X86233333Y-71942857D01*
X86233333Y-72085714D01*
X86185714Y-72180952D01*
X86138095Y-72228571D01*
X86042857Y-72276190D01*
X85661904Y-72276190D01*
X87185714Y-72752380D02*
X86614285Y-72752380D01*
X86900000Y-72752380D02*
X86900000Y-71752380D01*
X86804761Y-71895238D01*
X86709523Y-71990476D01*
X86614285Y-72038095D01*
X68361904Y-13252380D02*
X68361904Y-12252380D01*
X68600000Y-12252380D01*
X68742857Y-12300000D01*
X68838095Y-12395238D01*
X68885714Y-12490476D01*
X68933333Y-12680952D01*
X68933333Y-12823809D01*
X68885714Y-13014285D01*
X68838095Y-13109523D01*
X68742857Y-13204761D01*
X68600000Y-13252380D01*
X68361904Y-13252380D01*
X69266666Y-12252380D02*
X69885714Y-12252380D01*
X69552380Y-12633333D01*
X69695238Y-12633333D01*
X69790476Y-12680952D01*
X69838095Y-12728571D01*
X69885714Y-12823809D01*
X69885714Y-13061904D01*
X69838095Y-13157142D01*
X69790476Y-13204761D01*
X69695238Y-13252380D01*
X69409523Y-13252380D01*
X69314285Y-13204761D01*
X69266666Y-13157142D01*
X44233333Y-52752380D02*
X43900000Y-52276190D01*
X43661904Y-52752380D02*
X43661904Y-51752380D01*
X44042857Y-51752380D01*
X44138095Y-51800000D01*
X44185714Y-51847619D01*
X44233333Y-51942857D01*
X44233333Y-52085714D01*
X44185714Y-52180952D01*
X44138095Y-52228571D01*
X44042857Y-52276190D01*
X43661904Y-52276190D01*
X45185714Y-52752380D02*
X44614285Y-52752380D01*
X44900000Y-52752380D02*
X44900000Y-51752380D01*
X44804761Y-51895238D01*
X44709523Y-51990476D01*
X44614285Y-52038095D01*
X8623809Y-32652380D02*
X8623809Y-31652380D01*
X9671428Y-32557142D02*
X9623809Y-32604761D01*
X9480952Y-32652380D01*
X9385714Y-32652380D01*
X9242857Y-32604761D01*
X9147619Y-32509523D01*
X9100000Y-32414285D01*
X9052380Y-32223809D01*
X9052380Y-32080952D01*
X9100000Y-31890476D01*
X9147619Y-31795238D01*
X9242857Y-31700000D01*
X9385714Y-31652380D01*
X9480952Y-31652380D01*
X9623809Y-31700000D01*
X9671428Y-31747619D01*
X10623809Y-32652380D02*
X10052380Y-32652380D01*
X10338095Y-32652380D02*
X10338095Y-31652380D01*
X10242857Y-31795238D01*
X10147619Y-31890476D01*
X10052380Y-31938095D01*
X50623809Y-32652380D02*
X50623809Y-31652380D01*
X51671428Y-32557142D02*
X51623809Y-32604761D01*
X51480952Y-32652380D01*
X51385714Y-32652380D01*
X51242857Y-32604761D01*
X51147619Y-32509523D01*
X51100000Y-32414285D01*
X51052380Y-32223809D01*
X51052380Y-32080952D01*
X51100000Y-31890476D01*
X51147619Y-31795238D01*
X51242857Y-31700000D01*
X51385714Y-31652380D01*
X51480952Y-31652380D01*
X51623809Y-31700000D01*
X51671428Y-31747619D01*
X52623809Y-32652380D02*
X52052380Y-32652380D01*
X52338095Y-32652380D02*
X52338095Y-31652380D01*
X52242857Y-31795238D01*
X52147619Y-31890476D01*
X52052380Y-31938095D01*
X18452380Y-79438095D02*
X17452380Y-79438095D01*
X17452380Y-79200000D01*
X17500000Y-79057142D01*
X17595238Y-78961904D01*
X17690476Y-78914285D01*
X17880952Y-78866666D01*
X18023809Y-78866666D01*
X18214285Y-78914285D01*
X18309523Y-78961904D01*
X18404761Y-79057142D01*
X18452380Y-79200000D01*
X18452380Y-79438095D01*
X18452380Y-77914285D02*
X18452380Y-78485714D01*
X18452380Y-78200000D02*
X17452380Y-78200000D01*
X17595238Y-78295238D01*
X17690476Y-78390476D01*
X17738095Y-78485714D01*
X50452380Y-59438095D02*
X49452380Y-59438095D01*
X49452380Y-59200000D01*
X49500000Y-59057142D01*
X49595238Y-58961904D01*
X49690476Y-58914285D01*
X49880952Y-58866666D01*
X50023809Y-58866666D01*
X50214285Y-58914285D01*
X50309523Y-58961904D01*
X50404761Y-59057142D01*
X50452380Y-59200000D01*
X50452380Y-59438095D01*
X49547619Y-58485714D02*
X49500000Y-58438095D01*
X49452380Y-58342857D01*
X49452380Y-58104761D01*
X49500000Y-58009523D01*
X49547619Y-57961904D01*
X49642857Y-57914285D01*
X49738095Y-57914285D01*
X49880952Y-57961904D01*
X50452380Y-58533333D01*
X50452380Y-57914285D01*
X88452380Y-79438095D02*
X87452380Y-79438095D01*
X87452380Y-79200000D01*
X87500000Y-79057142D01*
X87595238Y-78961904D01*
X87690476Y-78914285D01*
X87880952Y-78866666D01*
X88023809Y-78866666D01*
X88214285Y-78914285D01*
X88309523Y-78961904D01*
X88404761Y-79057142D01*
X88452380Y-79200000D01*
X88452380Y-79438095D01*
X88452380Y-77914285D02*
X88452380Y-78485714D01*
X88452380Y-78200000D02*
X87452380Y-78200000D01*
X87595238Y-78295238D01*
X87690476Y-78390476D01*
X87738095Y-78485714D01*
X88452380Y-39438095D02*
X87452380Y-39438095D01*
X87452380Y-39200000D01*
X87500000Y-39057142D01*
X87595238Y-38961904D01*
X87690476Y-38914285D01*
X87880952Y-38866666D01*
X88023809Y-38866666D01*
X88214285Y-38914285D01*
X88309523Y-38961904D01*
X88404761Y-39057142D01*
X88452380Y-39200000D01*
X88452380Y-39438095D01*
X88452380Y-37914285D02*
X88452380Y-38485714D01*
X88452380Y-38200000D02*
X87452380Y-38200000D01*
X87595238Y-38295238D01*
X87690476Y-38390476D01*
X87738095Y-38485714D01*
X18452380Y-59438095D02*
X17452380Y-59438095D01*
X17452380Y-59200000D01*
X17500000Y-59057142D01*
X17595238Y-58961904D01*
X17690476Y-58914285D01*
X17880952Y-58866666D01*
X18023809Y-58866666D01*
X18214285Y-58914285D01*
X18309523Y-58961904D01*
X18404761Y-59057142D01*
X18452380Y-59200000D01*
X18452380Y-59438095D01*
X18452380Y-57914285D02*
X18452380Y-58485714D01*
X18452380Y-58200000D02*
X17452380Y-58200000D01*
X17595238Y-58295238D01*
X17690476Y-58390476D01*
X17738095Y-58485714D01*
X22452380Y-39438095D02*
X21452380Y-39438095D01*
X21452380Y-39200000D01*
X21500000Y-39057142D01*
X21595238Y-38961904D01*
X21690476Y-38914285D01*
X21880952Y-38866666D01*
X22023809Y-38866666D01*
X22214285Y-38914285D01*
X22309523Y-38961904D01*
X22404761Y-39057142D01*
X22452380Y-39200000D01*
X22452380Y-39438095D01*
X21547619Y-38485714D02*
X21500000Y-38438095D01*
X21452380Y-38342857D01*
X21452380Y-38104761D01*
X21500000Y-38009523D01*
X21547619Y-37961904D01*
X21642857Y-37914285D01*
X21738095Y-37914285D01*
X21880952Y-37961904D01*
X22452380Y-38533333D01*
X22452380Y-37914285D01*
X68361904Y-33252380D02*
X68361904Y-32252380D01*
X68600000Y-32252380D01*
X68742857Y-32300000D01*
X68838095Y-32395238D01*
X68885714Y-32490476D01*
X68933333Y-32680952D01*
X68933333Y-32823809D01*
X68885714Y-33014285D01*
X68838095Y-33109523D01*
X68742857Y-33204761D01*
X68600000Y-33252380D01*
X68361904Y-33252380D01*
X69266666Y-32252380D02*
X69885714Y-32252380D01*
X69552380Y-32633333D01*
X69695238Y-32633333D01*
X69790476Y-32680952D01*
X69838095Y-32728571D01*
X69885714Y-32823809D01*
X69885714Y-33061904D01*
X69838095Y-33157142D01*
X69790476Y-33204761D01*
X69695238Y-33252380D01*
X69409523Y-33252380D01*
X69314285Y-33204761D01*
X69266666Y-33157142D01*
X64452380Y-39438095D02*
X63452380Y-39438095D01*
X63452380Y-39200000D01*
X63500000Y-39057142D01*
X63595238Y-38961904D01*
X63690476Y-38914285D01*
X63880952Y-38866666D01*
X64023809Y-38866666D01*
X64214285Y-38914285D01*
X64309523Y-38961904D01*
X64404761Y-39057142D01*
X64452380Y-39200000D01*
X64452380Y-39438095D01*
X63547619Y-38485714D02*
X63500000Y-38438095D01*
X63452380Y-38342857D01*
X63452380Y-38104761D01*
X63500000Y-38009523D01*
X63547619Y-37961904D01*
X63642857Y-37914285D01*
X63738095Y-37914285D01*
X63880952Y-37961904D01*
X64452380Y-38533333D01*
X64452380Y-37914285D01*
X74452380Y-19438095D02*
X73452380Y-19438095D01*
X73452380Y-19200000D01*
X73500000Y-19057142D01*
X73595238Y-18961904D01*
X73690476Y-18914285D01*
X73880952Y-18866666D01*
X74023809Y-18866666D01*
X74214285Y-18914285D01*
X74309523Y-18961904D01*
X74404761Y-19057142D01*
X74452380Y-19200000D01*
X74452380Y-19438095D01*
X74452380Y-17914285D02*
X74452380Y-18485714D01*
X74452380Y-18200000D02*
X73452380Y-18200000D01*
X73595238Y-18295238D01*
X73690476Y-18390476D01*
X73738095Y-18485714D01*
X58233333Y-12752380D02*
X57900000Y-12276190D01*
X57661904Y-12752380D02*
X57661904Y-11752380D01*
X58042857Y-11752380D01*
X58138095Y-11800000D01*
X58185714Y-11847619D01*
X58233333Y-11942857D01*
X58233333Y-12085714D01*
X58185714Y-12180952D01*
X58138095Y-12228571D01*
X58042857Y-12276190D01*
X57661904Y-12276190D01*
X59185714Y-12752380D02*
X58614285Y-12752380D01*
X58900000Y-12752380D02*
X58900000Y-11752380D01*
X58804761Y-11895238D01*
X58709523Y-11990476D01*
X58614285Y-12038095D01*
X54361904Y-53252380D02*
X54361904Y-52252380D01*
X54600000Y-52252380D01*
X54742857Y-52300000D01*
X54838095Y-52395238D01*
X54885714Y-52490476D01*
X54933333Y-52680952D01*
X54933333Y-52823809D01*
X54885714Y-53014285D01*
X54838095Y-53109523D01*
X54742857Y-53204761D01*
X54600000Y-53252380D01*
X54361904Y-53252380D01*
X55266666Y-52252380D02*
X55885714Y-52252380D01*
X55552380Y-52633333D01*
X55695238Y-52633333D01*
X55790476Y-52680952D01*
X55838095Y-52728571D01*
X55885714Y-52823809D01*
X55885714Y-53061904D01*
X55838095Y-53157142D01*
X55790476Y-53204761D01*
X55695238Y-53252380D01*
X55409523Y-53252380D01*
X55314285Y-53204761D01*
X55266666Y-53157142D01*
X86233333Y-12752380D02*
X85900000Y-12276190D01*
X85661904Y-12752380D02*
X85661904Y-11752380D01*
X86042857Y-11752380D01*
X86138095Y-11800000D01*
X86185714Y-11847619D01*
X86233333Y-11942857D01*
X86233333Y-12085714D01*
X86185714Y-12180952D01*
X86138095Y-12228571D01*
X86042857Y-12276190D01*
X85661904Y-12276190D01*
X87185714Y-12752380D02*
X86614285Y-12752380D01*
X86900000Y-12752380D02*
X86900000Y-11752380D01*
X86804761Y-11895238D01*
X86709523Y-11990476D01*
X86614285Y-12038095D01*
X64623809Y-12652380D02*
X64623809Y-11652380D01*
X65671428Y-12557142D02*
X65623809Y-12604761D01*
X65480952Y-12652380D01*
X65385714Y-12652380D01*
X65242857Y-12604761D01*
X65147619Y-12509523D01*
X65100000Y-12414285D01*
X65052380Y-12223809D01*
X65052380Y-12080952D01*
X65100000Y-11890476D01*
X65147619Y-11795238D01*
X65242857Y-11700000D01*
X65385714Y-11652380D01*
X65480952Y-11652380D01*
X65623809Y-11700000D01*
X65671428Y-11747619D01*
X66623809Y-12652380D02*
X66052380Y-12652380D01*
X66338095Y-12652380D02*
X66338095Y-11652380D01*
X66242857Y-11795238D01*
X66147619Y-11890476D01*
X66052380Y-11938095D01*
X58233333Y-52752380D02*
X57900000Y-52276190D01*
X57661904Y-52752380D02*
X57661904Y-51752380D01*
X58042857Y-51752380D01*
X58138095Y-51800000D01*
X58185714Y-51847619D01*
X58233333Y-51942857D01*
X58233333Y-52085714D01*
X58185714Y-52180952D01*
X58138095Y-52228571D01*
X58042857Y-52276190D01*
X57661904Y-52276190D01*
X59185714Y-52752380D02*
X58614285Y-52752380D01*
X58900000Y-52752380D02*
X58900000Y-51752380D01*
X58804761Y-51895238D01*
X58709523Y-51990476D01*
X58614285Y-52038095D01*
X64623809Y-32652380D02*
X64623809Y-31652380D01*
X65671428Y-32557142D02*
X65623809Y-32604761D01*
X65480952Y-32652380D01*
X65385714Y-32652380D01*
X65242857Y-32604761D01*
X65147619Y-32509523D01*
X65100000Y-32414285D01*
X65052380Y-32223809D01*
X65052380Y-32080952D01*
X65100000Y-31890476D01*
X65147619Y-31795238D01*
X65242857Y-31700000D01*
X65385714Y-31652380D01*
X65480952Y-31652380D01*
X65623809Y-31700000D01*
X65671428Y-31747619D01*
X66623809Y-32652380D02*
X66052380Y-32652380D01*
X66338095Y-32652380D02*
X66338095Y-31652380D01*
X66242857Y-31795238D01*
X66147619Y-31890476D01*
X66052380Y-31938095D01*
X64452380Y-79438095D02*
X63452380Y-79438095D01*
X63452380Y-79200000D01*
X63500000Y-79057142D01*
X63595238Y-78961904D01*
X63690476Y-78914285D01*
X63880952Y-78866666D01*
X64023809Y-78866666D01*
X64214285Y-78914285D01*
X64309523Y-78961904D01*
X64404761Y-79057142D01*
X64452380Y-79200000D01*
X64452380Y-79438095D01*
X63547619Y-78485714D02*
X63500000Y-78438095D01*
X63452380Y-78342857D01*
X63452380Y-78104761D01*
X63500000Y-78009523D01*
X63547619Y-77961904D01*
X63642857Y-77914285D01*
X63738095Y-77914285D01*
X63880952Y-77961904D01*
X64452380Y-78533333D01*
X64452380Y-77914285D01*
X26361904Y-73252380D02*
X26361904Y-72252380D01*
X26600000Y-72252380D01*
X26742857Y-72300000D01*
X26838095Y-72395238D01*
X26885714Y-72490476D01*
X26933333Y-72680952D01*
X26933333Y-72823809D01*
X26885714Y-73014285D01*
X26838095Y-73109523D01*
X26742857Y-73204761D01*
X26600000Y-73252380D01*
X26361904Y-73252380D01*
X27266666Y-72252380D02*
X27885714Y-72252380D01*
X27552380Y-72633333D01*
X27695238Y-72633333D01*
X27790476Y-72680952D01*
X27838095Y-72728571D01*
X27885714Y-72823809D01*
X27885714Y-73061904D01*
X27838095Y-73157142D01*
X27790476Y-73204761D01*
X27695238Y-73252380D01*
X27409523Y-73252380D01*
X27314285Y-73204761D01*
X27266666Y-73157142D01*
X60452380Y-59438095D02*
X59452380Y-59438095D01*
X59452380Y-59200000D01*
X59500000Y-59057142D01*
X59595238Y-58961904D01*
X59690476Y-58914285D01*
X59880952Y-58866666D01*
X60023809Y-58866666D01*
X60214285Y-58914285D01*
X60309523Y-58961904D01*
X60404761Y-59057142D01*
X60452380Y-59200000D01*
X60452380Y-59438095D01*
X60452380Y-57914285D02*
X60452380Y-58485714D01*
X60452380Y-58200000D02*
X59452380Y-58200000D01*
X59595238Y-58295238D01*
X59690476Y-58390476D01*
X59738095Y-58485714D01*
X12361904Y-53252380D02*
X12361904Y-52252380D01*
X12600000Y-52252380D01*
X12742857Y-52300000D01*
X12838095Y-52395238D01*
X12885714Y-52490476D01*
X12933333Y-52680952D01*
X12933333Y-52823809D01*
X12885714Y-53014285D01*
X12838095Y-53109523D01*
X12742857Y-53204761D01*
X12600000Y-53252380D01*
X12361904Y-53252380D01*
X13266666Y-52252380D02*
X13885714Y-52252380D01*
X13552380Y-52633333D01*
X13695238Y-52633333D01*
X13790476Y-52680952D01*
X13838095Y-52728571D01*
X13885714Y-52823809D01*
X13885714Y-53061904D01*
X13838095Y-53157142D01*
X13790476Y-53204761D01*
X13695238Y-53252380D01*
X13409523Y-53252380D01*
X13314285Y-53204761D01*
X13266666Y-53157142D01*
X36623809Y-12652380D02*
X36623809Y-11652380D01*
X37671428Y-12557142D02*
X37623809Y-12604761D01*
X37480952Y-12652380D01*
X37385714Y-12652380D01*
X37242857Y-12604761D01*
X37147619Y-12509523D01*
X37100000Y-12414285D01*
X37052380Y-12223809D01*
X37052380Y-12080952D01*
X37100000Y-11890476D01*
X37147619Y-11795238D01*
X37242857Y-11700000D01*
X37385714Y-11652380D01*
X37480952Y-11652380D01*
X37623809Y-11700000D01*
X37671428Y-11747619D01*
X38623809Y-12652380D02*
X38052380Y-12652380D01*
X38338095Y-12652380D02*
X38338095Y-11652380D01*
X38242857Y-11795238D01*
X38147619Y-11890476D01*
X38052380Y-11938095D01*
X68361904Y-53252380D02*
X68361904Y-52252380D01*
X68600000Y-52252380D01*
X68742857Y-52300000D01*
X68838095Y-52395238D01*
X68885714Y-52490476D01*
X68933333Y-52680952D01*
X68933333Y-52823809D01*
X68885714Y-53014285D01*
X68838095Y-53109523D01*
X68742857Y-53204761D01*
X68600000Y-53252380D01*
X68361904Y-53252380D01*
X69266666Y-52252380D02*
X69885714Y-52252380D01*
X69552380Y-52633333D01*
X69695238Y-52633333D01*
X69790476Y-52680952D01*
X69838095Y-52728571D01*
X69885714Y-52823809D01*
X69885714Y-53061904D01*
X69838095Y-53157142D01*
X69790476Y-53204761D01*
X69695238Y-53252380D01*
X69409523Y-53252380D01*
X69314285Y-53204761D01*
X69266666Y-53157142D01*
X88452380Y-59438095D02*
X87452380Y-59438095D01*
X87452380Y-59200000D01*
X87500000Y-59057142D01*
X87595238Y-58961904D01*
X87690476Y-58914285D01*
X87880952Y-58866666D01*
X88023809Y-58866666D01*
X88214285Y-58914285D01*
X88309523Y-58961904D01*
X88404761Y-59057142D01*
X88452380Y-59200000D01*
X88452380Y-59438095D01*
X88452380Y-57914285D02*
X88452380Y-58485714D01*
X88452380Y-58200000D02*
X87452380Y-58200000D01*
X87595238Y-58295238D01*
X87690476Y-58390476D01*
X87738095Y-58485714D01*
X8623809Y-52652380D02*
X8623809Y-51652380D01*
X9671428Y-52557142D02*
X9623809Y-52604761D01*
X9480952Y-52652380D01*
X9385714Y-52652380D01*
X9242857Y-52604761D01*
X9147619Y-52509523D01*
X9100000Y-52414285D01*
X9052380Y-52223809D01*
X9052380Y-52080952D01*
X9100000Y-51890476D01*
X9147619Y-51795238D01*
X9242857Y-51700000D01*
X9385714Y-51652380D01*
X9480952Y-51652380D01*
X9623809Y-51700000D01*
X9671428Y-51747619D01*
X10623809Y-52652380D02*
X10052380Y-52652380D01*
X10338095Y-52652380D02*
X10338095Y-51652380D01*
X10242857Y-51795238D01*
X10147619Y-51890476D01*
X10052380Y-51938095D01*
X36452380Y-19438095D02*
X35452380Y-19438095D01*
X35452380Y-19200000D01*
X35500000Y-19057142D01*
X35595238Y-18961904D01*
X35690476Y-18914285D01*
X35880952Y-18866666D01*
X36023809Y-18866666D01*
X36214285Y-18914285D01*
X36309523Y-18961904D01*
X36404761Y-19057142D01*
X36452380Y-19200000D01*
X36452380Y-19438095D01*
X35547619Y-18485714D02*
X35500000Y-18438095D01*
X35452380Y-18342857D01*
X35452380Y-18104761D01*
X35500000Y-18009523D01*
X35547619Y-17961904D01*
X35642857Y-17914285D01*
X35738095Y-17914285D01*
X35880952Y-17961904D01*
X36452380Y-18533333D01*
X36452380Y-17914285D01*
X22623809Y-12652380D02*
X22623809Y-11652380D01*
X23671428Y-12557142D02*
X23623809Y-12604761D01*
X23480952Y-12652380D01*
X23385714Y-12652380D01*
X23242857Y-12604761D01*
X23147619Y-12509523D01*
X23100000Y-12414285D01*
X23052380Y-12223809D01*
X23052380Y-12080952D01*
X23100000Y-11890476D01*
X23147619Y-11795238D01*
X23242857Y-11700000D01*
X23385714Y-11652380D01*
X23480952Y-11652380D01*
X23623809Y-11700000D01*
X23671428Y-11747619D01*
X24623809Y-12652380D02*
X24052380Y-12652380D01*
X24338095Y-12652380D02*
X24338095Y-11652380D01*
X24242857Y-11795238D01*
X24147619Y-11890476D01*
X24052380Y-11938095D01*
X40361904Y-53252380D02*
X40361904Y-52252380D01*
X40600000Y-52252380D01*
X40742857Y-52300000D01*
X40838095Y-52395238D01*
X40885714Y-52490476D01*
X40933333Y-52680952D01*
X40933333Y-52823809D01*
X40885714Y-53014285D01*
X40838095Y-53109523D01*
X40742857Y-53204761D01*
X40600000Y-53252380D01*
X40361904Y-53252380D01*
X41266666Y-52252380D02*
X41885714Y-52252380D01*
X41552380Y-52633333D01*
X41695238Y-52633333D01*
X41790476Y-52680952D01*
X41838095Y-52728571D01*
X41885714Y-52823809D01*
X41885714Y-53061904D01*
X41838095Y-53157142D01*
X41790476Y-53204761D01*
X41695238Y-53252380D01*
X41409523Y-53252380D01*
X41314285Y-53204761D01*
X41266666Y-53157142D01*
X30233333Y-72752380D02*
X29900000Y-72276190D01*
X29661904Y-72752380D02*
X29661904Y-71752380D01*
X30042857Y-71752380D01*
X30138095Y-71800000D01*
X30185714Y-71847619D01*
X30233333Y-71942857D01*
X30233333Y-72085714D01*
X30185714Y-72180952D01*
X30138095Y-72228571D01*
X30042857Y-72276190D01*
X29661904Y-72276190D01*
X31185714Y-72752380D02*
X30614285Y-72752380D01*
X30900000Y-72752380D02*
X30900000Y-71752380D01*
X30804761Y-71895238D01*
X30709523Y-71990476D01*
X30614285Y-72038095D01*
X64452380Y-19438095D02*
X63452380Y-19438095D01*
X63452380Y-19200000D01*
X63500000Y-19057142D01*
X63595238Y-18961904D01*
X63690476Y-18914285D01*
X63880952Y-18866666D01*
X64023809Y-18866666D01*
X64214285Y-18914285D01*
X64309523Y-18961904D01*
X64404761Y-19057142D01*
X64452380Y-19200000D01*
X64452380Y-19438095D01*
X63547619Y-18485714D02*
X63500000Y-18438095D01*
X63452380Y-18342857D01*
X63452380Y-18104761D01*
X63500000Y-18009523D01*
X63547619Y-17961904D01*
X63642857Y-17914285D01*
X63738095Y-17914285D01*
X63880952Y-17961904D01*
X64452380Y-18533333D01*
X64452380Y-17914285D01*
X50623809Y-12652380D02*
X50623809Y-11652380D01*
X51671428Y-12557142D02*
X51623809Y-12604761D01*
X51480952Y-12652380D01*
X51385714Y-12652380D01*
X51242857Y-12604761D01*
X51147619Y-12509523D01*
X51100000Y-12414285D01*
X51052380Y-12223809D01*
X51052380Y-12080952D01*
X51100000Y-11890476D01*
X51147619Y-11795238D01*
X51242857Y-11700000D01*
X51385714Y-11652380D01*
X51480952Y-11652380D01*
X51623809Y-11700000D01*
X51671428Y-11747619D01*
X52623809Y-12652380D02*
X52052380Y-12652380D01*
X52338095Y-12652380D02*
X52338095Y-11652380D01*
X52242857Y-11795238D01*
X52147619Y-11890476D01*
X52052380Y-11938095D01*
X74452380Y-39438095D02*
X73452380Y-39438095D01*
X73452380Y-39200000D01*
X73500000Y-39057142D01*
X73595238Y-38961904D01*
X73690476Y-38914285D01*
X73880952Y-38866666D01*
X74023809Y-38866666D01*
X74214285Y-38914285D01*
X74309523Y-38961904D01*
X74404761Y-39057142D01*
X74452380Y-39200000D01*
X74452380Y-39438095D01*
X74452380Y-37914285D02*
X74452380Y-38485714D01*
X74452380Y-38200000D02*
X73452380Y-38200000D01*
X73595238Y-38295238D01*
X73690476Y-38390476D01*
X73738095Y-38485714D01*
X8452380Y-59438095D02*
X7452380Y-59438095D01*
X7452380Y-59200000D01*
X7500000Y-59057142D01*
X7595238Y-58961904D01*
X7690476Y-58914285D01*
X7880952Y-58866666D01*
X8023809Y-58866666D01*
X8214285Y-58914285D01*
X8309523Y-58961904D01*
X8404761Y-59057142D01*
X8452380Y-59200000D01*
X8452380Y-59438095D01*
X7547619Y-58485714D02*
X7500000Y-58438095D01*
X7452380Y-58342857D01*
X7452380Y-58104761D01*
X7500000Y-58009523D01*
X7547619Y-57961904D01*
X7642857Y-57914285D01*
X7738095Y-57914285D01*
X7880952Y-57961904D01*
X8452380Y-58533333D01*
X8452380Y-57914285D01*
X12361904Y-33252380D02*
X12361904Y-32252380D01*
X12600000Y-32252380D01*
X12742857Y-32300000D01*
X12838095Y-32395238D01*
X12885714Y-32490476D01*
X12933333Y-32680952D01*
X12933333Y-32823809D01*
X12885714Y-33014285D01*
X12838095Y-33109523D01*
X12742857Y-33204761D01*
X12600000Y-33252380D01*
X12361904Y-33252380D01*
X13266666Y-32252380D02*
X13885714Y-32252380D01*
X13552380Y-32633333D01*
X13695238Y-32633333D01*
X13790476Y-32680952D01*
X13838095Y-32728571D01*
X13885714Y-32823809D01*
X13885714Y-33061904D01*
X13838095Y-33157142D01*
X13790476Y-33204761D01*
X13695238Y-33252380D01*
X13409523Y-33252380D01*
X13314285Y-33204761D01*
X13266666Y-33157142D01*
X22623809Y-52652380D02*
X22623809Y-51652380D01*
X23671428Y-52557142D02*
X23623809Y-52604761D01*
X23480952Y-52652380D01*
X23385714Y-52652380D01*
X23242857Y-52604761D01*
X23147619Y-52509523D01*
X23100000Y-52414285D01*
X23052380Y-52223809D01*
X23052380Y-52080952D01*
X23100000Y-51890476D01*
X23147619Y-51795238D01*
X23242857Y-51700000D01*
X23385714Y-51652380D01*
X23480952Y-51652380D01*
X23623809Y-51700000D01*
X23671428Y-51747619D01*
X24623809Y-52652380D02*
X24052380Y-52652380D01*
X24338095Y-52652380D02*
X24338095Y-51652380D01*
X24242857Y-51795238D01*
X24147619Y-51890476D01*
X24052380Y-51938095D01*
X36623809Y-32652380D02*
X36623809Y-31652380D01*
X37671428Y-32557142D02*
X37623809Y-32604761D01*
X37480952Y-32652380D01*
X37385714Y-32652380D01*
X37242857Y-32604761D01*
X37147619Y-32509523D01*
X37100000Y-32414285D01*
X37052380Y-32223809D01*
X37052380Y-32080952D01*
X37100000Y-31890476D01*
X37147619Y-31795238D01*
X37242857Y-31700000D01*
X37385714Y-31652380D01*
X37480952Y-31652380D01*
X37623809Y-31700000D01*
X37671428Y-31747619D01*
X38623809Y-32652380D02*
X38052380Y-32652380D01*
X38338095Y-32652380D02*
X38338095Y-31652380D01*
X38242857Y-31795238D01*
X38147619Y-31890476D01*
X38052380Y-31938095D01*
X74452380Y-79438095D02*
X73452380Y-79438095D01*
X73452380Y-79200000D01*
X73500000Y-79057142D01*
X73595238Y-78961904D01*
X73690476Y-78914285D01*
X73880952Y-78866666D01*
X74023809Y-78866666D01*
X74214285Y-78914285D01*
X74309523Y-78961904D01*
X74404761Y-79057142D01*
X74452380Y-79200000D01*
X74452380Y-79438095D01*
X74452380Y-77914285D02*
X74452380Y-78485714D01*
X74452380Y-78200000D02*
X73452380Y-78200000D01*
X73595238Y-78295238D01*
X73690476Y-78390476D01*
X73738095Y-78485714D01*
X50623809Y-52652380D02*
X50623809Y-51652380D01*
X51671428Y-52557142D02*
X51623809Y-52604761D01*
X51480952Y-52652380D01*
X51385714Y-52652380D01*
X51242857Y-52604761D01*
X51147619Y-52509523D01*
X51100000Y-52414285D01*
X51052380Y-52223809D01*
X51052380Y-52080952D01*
X51100000Y-51890476D01*
X51147619Y-51795238D01*
X51242857Y-51700000D01*
X51385714Y-51652380D01*
X51480952Y-51652380D01*
X51623809Y-51700000D01*
X51671428Y-51747619D01*
X52623809Y-52652380D02*
X52052380Y-52652380D01*
X52338095Y-52652380D02*
X52338095Y-51652380D01*
X52242857Y-51795238D01*
X52147619Y-51890476D01*
X52052380Y-51938095D01*
X36452380Y-59438095D02*
X35452380Y-59438095D01*
X35452380Y-59200000D01*
X35500000Y-59057142D01*
X35595238Y-58961904D01*
X35690476Y-58914285D01*
X35880952Y-58866666D01*
X36023809Y-58866666D01*
X36214285Y-58914285D01*
X36309523Y-58961904D01*
X36404761Y-59057142D01*
X36452380Y-59200000D01*
X36452380Y-59438095D01*
X35547619Y-58485714D02*
X35500000Y-58438095D01*
X35452380Y-58342857D01*
X35452380Y-58104761D01*
X35500000Y-58009523D01*
X35547619Y-57961904D01*
X35642857Y-57914285D01*
X35738095Y-57914285D01*
X35880952Y-57961904D01*
X36452380Y-58533333D01*
X36452380Y-57914285D01*
X78623809Y-32652380D02*
X78623809Y-31652380D01*
X79671428Y-32557142D02*
X79623809Y-32604761D01*
X79480952Y-32652380D01*
X79385714Y-32652380D01*
X79242857Y-32604761D01*
X79147619Y-32509523D01*
X79100000Y-32414285D01*
X79052380Y-32223809D01*
X79052380Y-32080952D01*
X79100000Y-31890476D01*
X79147619Y-31795238D01*
X79242857Y-31700000D01*
X79385714Y-31652380D01*
X79480952Y-31652380D01*
X79623809Y-31700000D01*
X79671428Y-31747619D01*
X80623809Y-32652380D02*
X80052380Y-32652380D01*
X80338095Y-32652380D02*
X80338095Y-31652380D01*
X80242857Y-31795238D01*
X80147619Y-31890476D01*
X80052380Y-31938095D01*
X16233333Y-12752380D02*
X15900000Y-12276190D01*
X15661904Y-12752380D02*
X15661904Y-11752380D01*
X16042857Y-11752380D01*
X16138095Y-11800000D01*
X16185714Y-11847619D01*
X16233333Y-11942857D01*
X16233333Y-12085714D01*
X16185714Y-12180952D01*
X16138095Y-12228571D01*
X16042857Y-12276190D01*
X15661904Y-12276190D01*
X17185714Y-12752380D02*
X16614285Y-12752380D01*
X16900000Y-12752380D02*
X16900000Y-11752380D01*
X16804761Y-11895238D01*
X16709523Y-11990476D01*
X16614285Y-12038095D01*
X82361904Y-73252380D02*
X82361904Y-72252380D01*
X82600000Y-72252380D01*
X82742857Y-72300000D01*
X82838095Y-72395238D01*
X82885714Y-72490476D01*
X82933333Y-72680952D01*
X82933333Y-72823809D01*
X82885714Y-73014285D01*
X82838095Y-73109523D01*
X82742857Y-73204761D01*
X82600000Y-73252380D01*
X82361904Y-73252380D01*
X83266666Y-72252380D02*
X83885714Y-72252380D01*
X83552380Y-72633333D01*
X83695238Y-72633333D01*
X83790476Y-72680952D01*
X83838095Y-72728571D01*
X83885714Y-72823809D01*
X83885714Y-73061904D01*
X83838095Y-73157142D01*
X83790476Y-73204761D01*
X83695238Y-73252380D01*
X83409523Y-73252380D01*
X83314285Y-73204761D01*
X83266666Y-73157142D01*
X8623809Y-12652380D02*
X8623809Y-11652380D01*
X9671428Y-12557142D02*
X9623809Y-12604761D01*
X9480952Y-12652380D01*
X9385714Y-12652380D01*
X9242857Y-12604761D01*
X9147619Y-12509523D01*
X9100000Y-12414285D01*
X9052380Y-12223809D01*
X9052380Y-12080952D01*
X9100000Y-11890476D01*
X9147619Y-11795238D01*
X9242857Y-11700000D01*
X9385714Y-11652380D01*
X9480952Y-11652380D01*
X9623809Y-11700000D01*
X9671428Y-11747619D01*
X10623809Y-12652380D02*
X10052380Y-12652380D01*
X10338095Y-12652380D02*
X10338095Y-11652380D01*
X10242857Y-11795238D01*
X10147619Y-11890476D01*
X10052380Y-11938095D01*
X32452380Y-39438095D02*
X31452380Y-39438095D01*
X31452380Y-39200000D01*
X31500000Y-39057142D01*
X31595238Y-38961904D01*
X31690476Y-38914285D01*
X31880952Y-38866666D01*
X32023809Y-38866666D01*
X32214285Y-38914285D01*
X32309523Y-38961904D01*
X32404761Y-39057142D01*
X32452380Y-39200000D01*
X32452380Y-39438095D01*
X32452380Y-37914285D02*
X32452380Y-38485714D01*
X32452380Y-38200000D02*
X31452380Y-38200000D01*
X31595238Y-38295238D01*
X31690476Y-38390476D01*
X31738095Y-38485714D01*
X50452380Y-19438095D02*
X49452380Y-19438095D01*
X49452380Y-19200000D01*
X49500000Y-19057142D01*
X49595238Y-18961904D01*
X49690476Y-18914285D01*
X49880952Y-18866666D01*
X50023809Y-18866666D01*
X50214285Y-18914285D01*
X50309523Y-18961904D01*
X50404761Y-19057142D01*
X50452380Y-19200000D01*
X50452380Y-19438095D01*
X49547619Y-18485714D02*
X49500000Y-18438095D01*
X49452380Y-18342857D01*
X49452380Y-18104761D01*
X49500000Y-18009523D01*
X49547619Y-17961904D01*
X49642857Y-17914285D01*
X49738095Y-17914285D01*
X49880952Y-17961904D01*
X50452380Y-18533333D01*
X50452380Y-17914285D01*
X86233333Y-32752380D02*
X85900000Y-32276190D01*
X85661904Y-32752380D02*
X85661904Y-31752380D01*
X86042857Y-31752380D01*
X86138095Y-31800000D01*
X86185714Y-31847619D01*
X86233333Y-31942857D01*
X86233333Y-32085714D01*
X86185714Y-32180952D01*
X86138095Y-32228571D01*
X86042857Y-32276190D01*
X85661904Y-32276190D01*
X87185714Y-32752380D02*
X86614285Y-32752380D01*
X86900000Y-32752380D02*
X86900000Y-31752380D01*
X86804761Y-31895238D01*
X86709523Y-31990476D01*
X86614285Y-32038095D01*
X32452380Y-79438095D02*
X31452380Y-79438095D01*
X31452380Y-79200000D01*
X31500000Y-79057142D01*
X31595238Y-78961904D01*
X31690476Y-78914285D01*
X31880952Y-78866666D01*
X32023809Y-78866666D01*
X32214285Y-78914285D01*
X32309523Y-78961904D01*
X32404761Y-79057142D01*
X32452380Y-79200000D01*
X32452380Y-79438095D01*
X32452380Y-77914285D02*
X32452380Y-78485714D01*
X32452380Y-78200000D02*
X31452380Y-78200000D01*
X31595238Y-78295238D01*
X31690476Y-78390476D01*
X31738095Y-78485714D01*
X88452380Y-19438095D02*
X87452380Y-19438095D01*
X87452380Y-19200000D01*
X87500000Y-19057142D01*
X87595238Y-18961904D01*
X87690476Y-18914285D01*
X87880952Y-18866666D01*
X88023809Y-18866666D01*
X88214285Y-18914285D01*
X88309523Y-18961904D01*
X88404761Y-19057142D01*
X88452380Y-19200000D01*
X88452380Y-19438095D01*
X88452380Y-17914285D02*
X88452380Y-18485714D01*
X88452380Y-18200000D02*
X87452380Y-18200000D01*
X87595238Y-18295238D01*
X87690476Y-18390476D01*
X87738095Y-18485714D01*
X32452380Y-19438095D02*
X31452380Y-19438095D01*
X31452380Y-19200000D01*
X31500000Y-19057142D01*
X31595238Y-18961904D01*
X31690476Y-18914285D01*
X31880952Y-18866666D01*
X32023809Y-18866666D01*
X32214285Y-18914285D01*
X32309523Y-18961904D01*
X32404761Y-19057142D01*
X32452380Y-19200000D01*
X32452380Y-19438095D01*
X32452380Y-17914285D02*
X32452380Y-18485714D01*
X32452380Y-18200000D02*
X31452380Y-18200000D01*
X31595238Y-18295238D01*
X31690476Y-18390476D01*
X31738095Y-18485714D01*
X46452380Y-59438095D02*
X45452380Y-59438095D01*
X45452380Y-59200000D01*
X45500000Y-59057142D01*
X45595238Y-58961904D01*
X45690476Y-58914285D01*
X45880952Y-58866666D01*
X46023809Y-58866666D01*
X46214285Y-58914285D01*
X46309523Y-58961904D01*
X46404761Y-59057142D01*
X46452380Y-59200000D01*
X46452380Y-59438095D01*
X46452380Y-57914285D02*
X46452380Y-58485714D01*
X46452380Y-58200000D02*
X45452380Y-58200000D01*
X45595238Y-58295238D01*
X45690476Y-58390476D01*
X45738095Y-58485714D01*
X16233333Y-32752380D02*
X15900000Y-32276190D01*
X15661904Y-32752380D02*
X15661904Y-31752380D01*
X16042857Y-31752380D01*
X16138095Y-31800000D01*
X16185714Y-31847619D01*
X16233333Y-31942857D01*
X16233333Y-32085714D01*
X16185714Y-32180952D01*
X16138095Y-32228571D01*
X16042857Y-32276190D01*
X15661904Y-32276190D01*
X17185714Y-32752380D02*
X16614285Y-32752380D01*
X16900000Y-32752380D02*
X16900000Y-31752380D01*
X16804761Y-31895238D01*
X16709523Y-31990476D01*
X16614285Y-32038095D01*
X26361904Y-53252380D02*
X26361904Y-52252380D01*
X26600000Y-52252380D01*
X26742857Y-52300000D01*
X26838095Y-52395238D01*
X26885714Y-52490476D01*
X26933333Y-52680952D01*
X26933333Y-52823809D01*
X26885714Y-53014285D01*
X26838095Y-53109523D01*
X26742857Y-53204761D01*
X26600000Y-53252380D01*
X26361904Y-53252380D01*
X27266666Y-52252380D02*
X27885714Y-52252380D01*
X27552380Y-52633333D01*
X27695238Y-52633333D01*
X27790476Y-52680952D01*
X27838095Y-52728571D01*
X27885714Y-52823809D01*
X27885714Y-53061904D01*
X27838095Y-53157142D01*
X27790476Y-53204761D01*
X27695238Y-53252380D01*
X27409523Y-53252380D01*
X27314285Y-53204761D01*
X27266666Y-53157142D01*
X22452380Y-19438095D02*
X21452380Y-19438095D01*
X21452380Y-19200000D01*
X21500000Y-19057142D01*
X21595238Y-18961904D01*
X21690476Y-18914285D01*
X21880952Y-18866666D01*
X22023809Y-18866666D01*
X22214285Y-18914285D01*
X22309523Y-18961904D01*
X22404761Y-19057142D01*
X22452380Y-19200000D01*
X22452380Y-19438095D01*
X21547619Y-18485714D02*
X21500000Y-18438095D01*
X21452380Y-18342857D01*
X21452380Y-18104761D01*
X21500000Y-18009523D01*
X21547619Y-17961904D01*
X21642857Y-17914285D01*
X21738095Y-17914285D01*
X21880952Y-17961904D01*
X22452380Y-18533333D01*
X22452380Y-17914285D01*
X26361904Y-13252380D02*
X26361904Y-12252380D01*
X26600000Y-12252380D01*
X26742857Y-12300000D01*
X26838095Y-12395238D01*
X26885714Y-12490476D01*
X26933333Y-12680952D01*
X26933333Y-12823809D01*
X26885714Y-13014285D01*
X26838095Y-13109523D01*
X26742857Y-13204761D01*
X26600000Y-13252380D01*
X26361904Y-13252380D01*
X27266666Y-12252380D02*
X27885714Y-12252380D01*
X27552380Y-12633333D01*
X27695238Y-12633333D01*
X27790476Y-12680952D01*
X27838095Y-12728571D01*
X27885714Y-12823809D01*
X27885714Y-13061904D01*
X27838095Y-13157142D01*
X27790476Y-13204761D01*
X27695238Y-13252380D01*
X27409523Y-13252380D01*
X27314285Y-13204761D01*
X27266666Y-13157142D01*
X8623809Y-72652380D02*
X8623809Y-71652380D01*
X9671428Y-72557142D02*
X9623809Y-72604761D01*
X9480952Y-72652380D01*
X9385714Y-72652380D01*
X9242857Y-72604761D01*
X9147619Y-72509523D01*
X9100000Y-72414285D01*
X9052380Y-72223809D01*
X9052380Y-72080952D01*
X9100000Y-71890476D01*
X9147619Y-71795238D01*
X9242857Y-71700000D01*
X9385714Y-71652380D01*
X9480952Y-71652380D01*
X9623809Y-71700000D01*
X9671428Y-71747619D01*
X10623809Y-72652380D02*
X10052380Y-72652380D01*
X10338095Y-72652380D02*
X10338095Y-71652380D01*
X10242857Y-71795238D01*
X10147619Y-71890476D01*
X10052380Y-71938095D01*
X8452380Y-19438095D02*
X7452380Y-19438095D01*
X7452380Y-19200000D01*
X7500000Y-19057142D01*
X7595238Y-18961904D01*
X7690476Y-18914285D01*
X7880952Y-18866666D01*
X8023809Y-18866666D01*
X8214285Y-18914285D01*
X8309523Y-18961904D01*
X8404761Y-19057142D01*
X8452380Y-19200000D01*
X8452380Y-19438095D01*
X7547619Y-18485714D02*
X7500000Y-18438095D01*
X7452380Y-18342857D01*
X7452380Y-18104761D01*
X7500000Y-18009523D01*
X7547619Y-17961904D01*
X7642857Y-17914285D01*
X7738095Y-17914285D01*
X7880952Y-17961904D01*
X8452380Y-18533333D01*
X8452380Y-17914285D01*
X22452380Y-59438095D02*
X21452380Y-59438095D01*
X21452380Y-59200000D01*
X21500000Y-59057142D01*
X21595238Y-58961904D01*
X21690476Y-58914285D01*
X21880952Y-58866666D01*
X22023809Y-58866666D01*
X22214285Y-58914285D01*
X22309523Y-58961904D01*
X22404761Y-59057142D01*
X22452380Y-59200000D01*
X22452380Y-59438095D01*
X21547619Y-58485714D02*
X21500000Y-58438095D01*
X21452380Y-58342857D01*
X21452380Y-58104761D01*
X21500000Y-58009523D01*
X21547619Y-57961904D01*
X21642857Y-57914285D01*
X21738095Y-57914285D01*
X21880952Y-57961904D01*
X22452380Y-58533333D01*
X22452380Y-57914285D01*
D12*
X39000000Y-73110000D02*
X36200000Y-73110000D01*
X39760000Y-74890000D02*
X36200000Y-74890000D01*
D13*
X57672936Y-33090000D02*
X59127064Y-33090000D01*
X57672936Y-34910000D02*
X59127064Y-34910000D01*
D12*
X53000000Y-73110000D02*
X50200000Y-73110000D01*
X53760000Y-74890000D02*
X50200000Y-74890000D01*
D13*
X54000000Y-31960000D02*
X56685000Y-31960000D01*
X56685000Y-31960000D02*
X56685000Y-30040000D01*
X56685000Y-30040000D02*
X54000000Y-30040000D01*
X29672936Y-14910000D02*
X31127064Y-14910000D01*
X29672936Y-13090000D02*
X31127064Y-13090000D01*
X71672936Y-73090000D02*
X73127064Y-73090000D01*
X71672936Y-74910000D02*
X73127064Y-74910000D01*
X58500000Y-35740000D02*
X56825000Y-35740000D01*
X58500000Y-35740000D02*
X59150000Y-35740000D01*
X58500000Y-38860000D02*
X57850000Y-38860000D01*
X58500000Y-38860000D02*
X59150000Y-38860000D01*
D12*
X39760000Y-54890000D02*
X36200000Y-54890000D01*
X39000000Y-53110000D02*
X36200000Y-53110000D01*
X67000000Y-53110000D02*
X64200000Y-53110000D01*
X67760000Y-54890000D02*
X64200000Y-54890000D01*
D13*
X43672936Y-33090000D02*
X45127064Y-33090000D01*
X43672936Y-34910000D02*
X45127064Y-34910000D01*
X71672936Y-33090000D02*
X73127064Y-33090000D01*
X71672936Y-34910000D02*
X73127064Y-34910000D01*
X42685000Y-10040000D02*
X40000000Y-10040000D01*
X42685000Y-11960000D02*
X42685000Y-10040000D01*
X40000000Y-11960000D02*
X42685000Y-11960000D01*
X37500000Y-75740000D02*
X36850000Y-75740000D01*
X37500000Y-75740000D02*
X38150000Y-75740000D01*
X37500000Y-78860000D02*
X36850000Y-78860000D01*
X37500000Y-78860000D02*
X39175000Y-78860000D01*
X15672936Y-74910000D02*
X17127064Y-74910000D01*
X15672936Y-73090000D02*
X17127064Y-73090000D01*
X28685000Y-30040000D02*
X26000000Y-30040000D01*
X28685000Y-31960000D02*
X28685000Y-30040000D01*
X26000000Y-31960000D02*
X28685000Y-31960000D01*
X72500000Y-58860000D02*
X73150000Y-58860000D01*
X72500000Y-55740000D02*
X73150000Y-55740000D01*
X72500000Y-58860000D02*
X71850000Y-58860000D01*
X72500000Y-55740000D02*
X70825000Y-55740000D01*
D12*
X25000000Y-33110000D02*
X22200000Y-33110000D01*
X25760000Y-34890000D02*
X22200000Y-34890000D01*
D13*
X14685000Y-11960000D02*
X14685000Y-10040000D01*
X14685000Y-10040000D02*
X12000000Y-10040000D01*
X12000000Y-11960000D02*
X14685000Y-11960000D01*
X71672936Y-14910000D02*
X73127064Y-14910000D01*
X71672936Y-13090000D02*
X73127064Y-13090000D01*
X44500000Y-38860000D02*
X45150000Y-38860000D01*
X44500000Y-38860000D02*
X43850000Y-38860000D01*
X44500000Y-35740000D02*
X45150000Y-35740000D01*
X44500000Y-35740000D02*
X42825000Y-35740000D01*
X43672936Y-14910000D02*
X45127064Y-14910000D01*
X43672936Y-13090000D02*
X45127064Y-13090000D01*
X16500000Y-38860000D02*
X17150000Y-38860000D01*
X16500000Y-35740000D02*
X17150000Y-35740000D01*
X16500000Y-35740000D02*
X14825000Y-35740000D01*
X16500000Y-38860000D02*
X15850000Y-38860000D01*
D12*
X81000000Y-73110000D02*
X78200000Y-73110000D01*
X81760000Y-74890000D02*
X78200000Y-74890000D01*
D13*
X42685000Y-30040000D02*
X40000000Y-30040000D01*
X42685000Y-31960000D02*
X42685000Y-30040000D01*
X40000000Y-31960000D02*
X42685000Y-31960000D01*
X79500000Y-55740000D02*
X78850000Y-55740000D01*
X79500000Y-58860000D02*
X81175000Y-58860000D01*
X79500000Y-55740000D02*
X80150000Y-55740000D01*
X79500000Y-58860000D02*
X78850000Y-58860000D01*
X29672936Y-33090000D02*
X31127064Y-33090000D01*
X29672936Y-34910000D02*
X31127064Y-34910000D01*
X57672936Y-74910000D02*
X59127064Y-74910000D01*
X57672936Y-73090000D02*
X59127064Y-73090000D01*
X65500000Y-58860000D02*
X67175000Y-58860000D01*
X65500000Y-58860000D02*
X64850000Y-58860000D01*
X65500000Y-55740000D02*
X64850000Y-55740000D01*
X65500000Y-55740000D02*
X66150000Y-55740000D01*
X15672936Y-54910000D02*
X17127064Y-54910000D01*
X15672936Y-53090000D02*
X17127064Y-53090000D01*
X37500000Y-35740000D02*
X38150000Y-35740000D01*
X37500000Y-38860000D02*
X39175000Y-38860000D01*
X37500000Y-38860000D02*
X36850000Y-38860000D01*
X37500000Y-35740000D02*
X36850000Y-35740000D01*
D12*
X25760000Y-74890000D02*
X22200000Y-74890000D01*
X25000000Y-73110000D02*
X22200000Y-73110000D01*
D13*
X58500000Y-18860000D02*
X59150000Y-18860000D01*
X58500000Y-15740000D02*
X56825000Y-15740000D01*
X58500000Y-18860000D02*
X57850000Y-18860000D01*
X58500000Y-15740000D02*
X59150000Y-15740000D01*
X29672936Y-54910000D02*
X31127064Y-54910000D01*
X29672936Y-53090000D02*
X31127064Y-53090000D01*
D12*
X81760000Y-14890000D02*
X78200000Y-14890000D01*
X81000000Y-13110000D02*
X78200000Y-13110000D01*
D13*
X84685000Y-51960000D02*
X84685000Y-50040000D01*
X84685000Y-50040000D02*
X82000000Y-50040000D01*
X82000000Y-51960000D02*
X84685000Y-51960000D01*
X44500000Y-75740000D02*
X45150000Y-75740000D01*
X44500000Y-75740000D02*
X42825000Y-75740000D01*
X44500000Y-78860000D02*
X45150000Y-78860000D01*
X44500000Y-78860000D02*
X43850000Y-78860000D01*
X68000000Y-71960000D02*
X70685000Y-71960000D01*
X70685000Y-71960000D02*
X70685000Y-70040000D01*
X70685000Y-70040000D02*
X68000000Y-70040000D01*
X58500000Y-75740000D02*
X56825000Y-75740000D01*
X58500000Y-75740000D02*
X59150000Y-75740000D01*
X58500000Y-78860000D02*
X59150000Y-78860000D01*
X58500000Y-78860000D02*
X57850000Y-78860000D01*
X9500000Y-35740000D02*
X8850000Y-35740000D01*
X9500000Y-35740000D02*
X10150000Y-35740000D01*
X9500000Y-38860000D02*
X11175000Y-38860000D01*
X9500000Y-38860000D02*
X8850000Y-38860000D01*
X82000000Y-31960000D02*
X84685000Y-31960000D01*
X84685000Y-31960000D02*
X84685000Y-30040000D01*
X84685000Y-30040000D02*
X82000000Y-30040000D01*
X71672936Y-53090000D02*
X73127064Y-53090000D01*
X71672936Y-54910000D02*
X73127064Y-54910000D01*
X79500000Y-18860000D02*
X78850000Y-18860000D01*
X79500000Y-15740000D02*
X78850000Y-15740000D01*
X79500000Y-15740000D02*
X80150000Y-15740000D01*
X79500000Y-18860000D02*
X81175000Y-18860000D01*
D12*
X67760000Y-74890000D02*
X64200000Y-74890000D01*
X67000000Y-73110000D02*
X64200000Y-73110000D01*
D13*
X14685000Y-70040000D02*
X12000000Y-70040000D01*
X12000000Y-71960000D02*
X14685000Y-71960000D01*
X14685000Y-71960000D02*
X14685000Y-70040000D01*
D12*
X81760000Y-54890000D02*
X78200000Y-54890000D01*
X81000000Y-53110000D02*
X78200000Y-53110000D01*
D13*
X85672936Y-54910000D02*
X87127064Y-54910000D01*
X85672936Y-53090000D02*
X87127064Y-53090000D01*
X44500000Y-15740000D02*
X45150000Y-15740000D01*
X44500000Y-18860000D02*
X43850000Y-18860000D01*
X44500000Y-15740000D02*
X42825000Y-15740000D01*
X44500000Y-18860000D02*
X45150000Y-18860000D01*
X9500000Y-78860000D02*
X8850000Y-78860000D01*
X9500000Y-75740000D02*
X8850000Y-75740000D01*
X9500000Y-75740000D02*
X10150000Y-75740000D01*
X9500000Y-78860000D02*
X11175000Y-78860000D01*
X30500000Y-58860000D02*
X31150000Y-58860000D01*
X30500000Y-55740000D02*
X28825000Y-55740000D01*
X30500000Y-58860000D02*
X29850000Y-58860000D01*
X30500000Y-55740000D02*
X31150000Y-55740000D01*
X84685000Y-11960000D02*
X84685000Y-10040000D01*
X82000000Y-11960000D02*
X84685000Y-11960000D01*
X84685000Y-10040000D02*
X82000000Y-10040000D01*
X79500000Y-38860000D02*
X81175000Y-38860000D01*
X79500000Y-35740000D02*
X78850000Y-35740000D01*
X79500000Y-35740000D02*
X80150000Y-35740000D01*
X79500000Y-38860000D02*
X78850000Y-38860000D01*
X79500000Y-75740000D02*
X80150000Y-75740000D01*
X79500000Y-78860000D02*
X78850000Y-78860000D01*
X79500000Y-78860000D02*
X81175000Y-78860000D01*
X79500000Y-75740000D02*
X78850000Y-75740000D01*
X42685000Y-70040000D02*
X40000000Y-70040000D01*
X42685000Y-71960000D02*
X42685000Y-70040000D01*
X40000000Y-71960000D02*
X42685000Y-71960000D01*
X51500000Y-38860000D02*
X53175000Y-38860000D01*
X51500000Y-35740000D02*
X52150000Y-35740000D01*
X51500000Y-35740000D02*
X50850000Y-35740000D01*
X51500000Y-38860000D02*
X50850000Y-38860000D01*
X16500000Y-18860000D02*
X15850000Y-18860000D01*
X16500000Y-18860000D02*
X17150000Y-18860000D01*
X16500000Y-15740000D02*
X14825000Y-15740000D01*
X16500000Y-15740000D02*
X17150000Y-15740000D01*
X56685000Y-71960000D02*
X56685000Y-70040000D01*
X54000000Y-71960000D02*
X56685000Y-71960000D01*
X56685000Y-70040000D02*
X54000000Y-70040000D01*
X51500000Y-75740000D02*
X50850000Y-75740000D01*
X51500000Y-78860000D02*
X50850000Y-78860000D01*
X51500000Y-78860000D02*
X53175000Y-78860000D01*
X51500000Y-75740000D02*
X52150000Y-75740000D01*
X23500000Y-75740000D02*
X24150000Y-75740000D01*
X23500000Y-78860000D02*
X22850000Y-78860000D01*
X23500000Y-75740000D02*
X22850000Y-75740000D01*
X23500000Y-78860000D02*
X25175000Y-78860000D01*
X54000000Y-11960000D02*
X56685000Y-11960000D01*
X56685000Y-10040000D02*
X54000000Y-10040000D01*
X56685000Y-11960000D02*
X56685000Y-10040000D01*
X43672936Y-73090000D02*
X45127064Y-73090000D01*
X43672936Y-74910000D02*
X45127064Y-74910000D01*
X85672936Y-74910000D02*
X87127064Y-74910000D01*
X85672936Y-73090000D02*
X87127064Y-73090000D01*
X70685000Y-11960000D02*
X70685000Y-10040000D01*
X68000000Y-11960000D02*
X70685000Y-11960000D01*
X70685000Y-10040000D02*
X68000000Y-10040000D01*
X43672936Y-53090000D02*
X45127064Y-53090000D01*
X43672936Y-54910000D02*
X45127064Y-54910000D01*
D12*
X11760000Y-34890000D02*
X8200000Y-34890000D01*
X11000000Y-33110000D02*
X8200000Y-33110000D01*
X53000000Y-33110000D02*
X50200000Y-33110000D01*
X53760000Y-34890000D02*
X50200000Y-34890000D01*
D13*
X16500000Y-78860000D02*
X15850000Y-78860000D01*
X16500000Y-75740000D02*
X17150000Y-75740000D01*
X16500000Y-78860000D02*
X17150000Y-78860000D01*
X16500000Y-75740000D02*
X14825000Y-75740000D01*
X51500000Y-55740000D02*
X50850000Y-55740000D01*
X51500000Y-55740000D02*
X52150000Y-55740000D01*
X51500000Y-58860000D02*
X53175000Y-58860000D01*
X51500000Y-58860000D02*
X50850000Y-58860000D01*
X86500000Y-78860000D02*
X85850000Y-78860000D01*
X86500000Y-78860000D02*
X87150000Y-78860000D01*
X86500000Y-75740000D02*
X87150000Y-75740000D01*
X86500000Y-75740000D02*
X84825000Y-75740000D01*
X86500000Y-38860000D02*
X85850000Y-38860000D01*
X86500000Y-35740000D02*
X87150000Y-35740000D01*
X86500000Y-35740000D02*
X84825000Y-35740000D01*
X86500000Y-38860000D02*
X87150000Y-38860000D01*
X16500000Y-55740000D02*
X14825000Y-55740000D01*
X16500000Y-58860000D02*
X17150000Y-58860000D01*
X16500000Y-58860000D02*
X15850000Y-58860000D01*
X16500000Y-55740000D02*
X17150000Y-55740000D01*
X23500000Y-38860000D02*
X22850000Y-38860000D01*
X23500000Y-35740000D02*
X22850000Y-35740000D01*
X23500000Y-35740000D02*
X24150000Y-35740000D01*
X23500000Y-38860000D02*
X25175000Y-38860000D01*
X70685000Y-30040000D02*
X68000000Y-30040000D01*
X68000000Y-31960000D02*
X70685000Y-31960000D01*
X70685000Y-31960000D02*
X70685000Y-30040000D01*
X65500000Y-38860000D02*
X67175000Y-38860000D01*
X65500000Y-38860000D02*
X64850000Y-38860000D01*
X65500000Y-35740000D02*
X66150000Y-35740000D01*
X65500000Y-35740000D02*
X64850000Y-35740000D01*
X72500000Y-18860000D02*
X71850000Y-18860000D01*
X72500000Y-15740000D02*
X73150000Y-15740000D01*
X72500000Y-18860000D02*
X73150000Y-18860000D01*
X72500000Y-15740000D02*
X70825000Y-15740000D01*
X57672936Y-14910000D02*
X59127064Y-14910000D01*
X57672936Y-13090000D02*
X59127064Y-13090000D01*
X56685000Y-50040000D02*
X54000000Y-50040000D01*
X54000000Y-51960000D02*
X56685000Y-51960000D01*
X56685000Y-51960000D02*
X56685000Y-50040000D01*
X85672936Y-13090000D02*
X87127064Y-13090000D01*
X85672936Y-14910000D02*
X87127064Y-14910000D01*
D12*
X67760000Y-14890000D02*
X64200000Y-14890000D01*
X67000000Y-13110000D02*
X64200000Y-13110000D01*
D13*
X57672936Y-54910000D02*
X59127064Y-54910000D01*
X57672936Y-53090000D02*
X59127064Y-53090000D01*
D12*
X67760000Y-34890000D02*
X64200000Y-34890000D01*
X67000000Y-33110000D02*
X64200000Y-33110000D01*
D13*
X65500000Y-75740000D02*
X66150000Y-75740000D01*
X65500000Y-78860000D02*
X67175000Y-78860000D01*
X65500000Y-78860000D02*
X64850000Y-78860000D01*
X65500000Y-75740000D02*
X64850000Y-75740000D01*
X28685000Y-70040000D02*
X26000000Y-70040000D01*
X26000000Y-71960000D02*
X28685000Y-71960000D01*
X28685000Y-71960000D02*
X28685000Y-70040000D01*
X58500000Y-55740000D02*
X56825000Y-55740000D01*
X58500000Y-58860000D02*
X57850000Y-58860000D01*
X58500000Y-58860000D02*
X59150000Y-58860000D01*
X58500000Y-55740000D02*
X59150000Y-55740000D01*
X12000000Y-51960000D02*
X14685000Y-51960000D01*
X14685000Y-50040000D02*
X12000000Y-50040000D01*
X14685000Y-51960000D02*
X14685000Y-50040000D01*
D12*
X39000000Y-13110000D02*
X36200000Y-13110000D01*
X39760000Y-14890000D02*
X36200000Y-14890000D01*
D13*
X70685000Y-51960000D02*
X70685000Y-50040000D01*
X68000000Y-51960000D02*
X70685000Y-51960000D01*
X70685000Y-50040000D02*
X68000000Y-50040000D01*
X86500000Y-55740000D02*
X87150000Y-55740000D01*
X86500000Y-55740000D02*
X84825000Y-55740000D01*
X86500000Y-58860000D02*
X85850000Y-58860000D01*
X86500000Y-58860000D02*
X87150000Y-58860000D01*
D12*
X11760000Y-54890000D02*
X8200000Y-54890000D01*
X11000000Y-53110000D02*
X8200000Y-53110000D01*
D13*
X37500000Y-18860000D02*
X39175000Y-18860000D01*
X37500000Y-18860000D02*
X36850000Y-18860000D01*
X37500000Y-15740000D02*
X36850000Y-15740000D01*
X37500000Y-15740000D02*
X38150000Y-15740000D01*
D12*
X25760000Y-14890000D02*
X22200000Y-14890000D01*
X25000000Y-13110000D02*
X22200000Y-13110000D01*
D13*
X40000000Y-51960000D02*
X42685000Y-51960000D01*
X42685000Y-50040000D02*
X40000000Y-50040000D01*
X42685000Y-51960000D02*
X42685000Y-50040000D01*
X29672936Y-74910000D02*
X31127064Y-74910000D01*
X29672936Y-73090000D02*
X31127064Y-73090000D01*
X65500000Y-15740000D02*
X66150000Y-15740000D01*
X65500000Y-18860000D02*
X64850000Y-18860000D01*
X65500000Y-18860000D02*
X67175000Y-18860000D01*
X65500000Y-15740000D02*
X64850000Y-15740000D01*
D12*
X53000000Y-13110000D02*
X50200000Y-13110000D01*
X53760000Y-14890000D02*
X50200000Y-14890000D01*
D13*
X72500000Y-35740000D02*
X73150000Y-35740000D01*
X72500000Y-35740000D02*
X70825000Y-35740000D01*
X72500000Y-38860000D02*
X71850000Y-38860000D01*
X72500000Y-38860000D02*
X73150000Y-38860000D01*
X9500000Y-55740000D02*
X8850000Y-55740000D01*
X9500000Y-58860000D02*
X11175000Y-58860000D01*
X9500000Y-58860000D02*
X8850000Y-58860000D01*
X9500000Y-55740000D02*
X10150000Y-55740000D01*
X14685000Y-31960000D02*
X14685000Y-30040000D01*
X14685000Y-30040000D02*
X12000000Y-30040000D01*
X12000000Y-31960000D02*
X14685000Y-31960000D01*
D12*
X25000000Y-53110000D02*
X22200000Y-53110000D01*
X25760000Y-54890000D02*
X22200000Y-54890000D01*
X39760000Y-34890000D02*
X36200000Y-34890000D01*
X39000000Y-33110000D02*
X36200000Y-33110000D01*
D13*
X72500000Y-75740000D02*
X70825000Y-75740000D01*
X72500000Y-75740000D02*
X73150000Y-75740000D01*
X72500000Y-78860000D02*
X71850000Y-78860000D01*
X72500000Y-78860000D02*
X73150000Y-78860000D01*
D12*
X53000000Y-53110000D02*
X50200000Y-53110000D01*
X53760000Y-54890000D02*
X50200000Y-54890000D01*
D13*
X37500000Y-55740000D02*
X36850000Y-55740000D01*
X37500000Y-58860000D02*
X36850000Y-58860000D01*
X37500000Y-58860000D02*
X39175000Y-58860000D01*
X37500000Y-55740000D02*
X38150000Y-55740000D01*
D12*
X81000000Y-33110000D02*
X78200000Y-33110000D01*
X81760000Y-34890000D02*
X78200000Y-34890000D01*
D13*
X15672936Y-14910000D02*
X17127064Y-14910000D01*
X15672936Y-13090000D02*
X17127064Y-13090000D01*
X84685000Y-70040000D02*
X82000000Y-70040000D01*
X82000000Y-71960000D02*
X84685000Y-71960000D01*
X84685000Y-71960000D02*
X84685000Y-70040000D01*
D12*
X11000000Y-13110000D02*
X8200000Y-13110000D01*
X11760000Y-14890000D02*
X8200000Y-14890000D01*
D13*
X30500000Y-35740000D02*
X28825000Y-35740000D01*
X30500000Y-38860000D02*
X31150000Y-38860000D01*
X30500000Y-38860000D02*
X29850000Y-38860000D01*
X30500000Y-35740000D02*
X31150000Y-35740000D01*
X51500000Y-18860000D02*
X50850000Y-18860000D01*
X51500000Y-15740000D02*
X50850000Y-15740000D01*
X51500000Y-18860000D02*
X53175000Y-18860000D01*
X51500000Y-15740000D02*
X52150000Y-15740000D01*
X85672936Y-33090000D02*
X87127064Y-33090000D01*
X85672936Y-34910000D02*
X87127064Y-34910000D01*
X30500000Y-78860000D02*
X31150000Y-78860000D01*
X30500000Y-78860000D02*
X29850000Y-78860000D01*
X30500000Y-75740000D02*
X28825000Y-75740000D01*
X30500000Y-75740000D02*
X31150000Y-75740000D01*
X86500000Y-18860000D02*
X85850000Y-18860000D01*
X86500000Y-15740000D02*
X87150000Y-15740000D01*
X86500000Y-18860000D02*
X87150000Y-18860000D01*
X86500000Y-15740000D02*
X84825000Y-15740000D01*
X30500000Y-18860000D02*
X29850000Y-18860000D01*
X30500000Y-15740000D02*
X31150000Y-15740000D01*
X30500000Y-15740000D02*
X28825000Y-15740000D01*
X30500000Y-18860000D02*
X31150000Y-18860000D01*
X44500000Y-55740000D02*
X45150000Y-55740000D01*
X44500000Y-55740000D02*
X42825000Y-55740000D01*
X44500000Y-58860000D02*
X45150000Y-58860000D01*
X44500000Y-58860000D02*
X43850000Y-58860000D01*
X15672936Y-33090000D02*
X17127064Y-33090000D01*
X15672936Y-34910000D02*
X17127064Y-34910000D01*
X26000000Y-51960000D02*
X28685000Y-51960000D01*
X28685000Y-50040000D02*
X26000000Y-50040000D01*
X28685000Y-51960000D02*
X28685000Y-50040000D01*
X23500000Y-15740000D02*
X22850000Y-15740000D01*
X23500000Y-18860000D02*
X25175000Y-18860000D01*
X23500000Y-18860000D02*
X22850000Y-18860000D01*
X23500000Y-15740000D02*
X24150000Y-15740000D01*
X26000000Y-11960000D02*
X28685000Y-11960000D01*
X28685000Y-11960000D02*
X28685000Y-10040000D01*
X28685000Y-10040000D02*
X26000000Y-10040000D01*
D12*
X11760000Y-74890000D02*
X8200000Y-74890000D01*
X11000000Y-73110000D02*
X8200000Y-73110000D01*
D13*
X9500000Y-18860000D02*
X11175000Y-18860000D01*
X9500000Y-15740000D02*
X10150000Y-15740000D01*
X9500000Y-15740000D02*
X8850000Y-15740000D01*
X9500000Y-18860000D02*
X8850000Y-18860000D01*
X23500000Y-58860000D02*
X22850000Y-58860000D01*
X23500000Y-55740000D02*
X24150000Y-55740000D01*
X23500000Y-55740000D02*
X22850000Y-55740000D01*
X23500000Y-58860000D02*
X25175000Y-58860000D01*
M02*
