G04 #@! TF.GenerationSoftware,KiCad,Pcbnew,(6.0.9)*
G04 #@! TF.CreationDate,2022-12-08T09:34:55+09:00*
G04 #@! TF.ProjectId,EndPCRailBoard-PNLZ,456e6450-4352-4616-996c-426f6172642d,rev?*
G04 #@! TF.SameCoordinates,PX3938700PY1c9c380*
G04 #@! TF.FileFunction,Soldermask,Top*
G04 #@! TF.FilePolarity,Negative*
%FSLAX46Y46*%
G04 Gerber Fmt 4.6, Leading zero omitted, Abs format (unit mm)*
G04 Created by KiCad (PCBNEW (6.0.9)) date 2022-12-08 09:34:55*
%MOMM*%
%LPD*%
G01*
G04 APERTURE LIST*
G04 Aperture macros list*
%AMRoundRect*
0 Rectangle with rounded corners*
0 $1 Rounding radius*
0 $2 $3 $4 $5 $6 $7 $8 $9 X,Y pos of 4 corners*
0 Add a 4 corners polygon primitive as box body*
4,1,4,$2,$3,$4,$5,$6,$7,$8,$9,$2,$3,0*
0 Add four circle primitives for the rounded corners*
1,1,$1+$1,$2,$3*
1,1,$1+$1,$4,$5*
1,1,$1+$1,$6,$7*
1,1,$1+$1,$8,$9*
0 Add four rect primitives between the rounded corners*
20,1,$1+$1,$2,$3,$4,$5,0*
20,1,$1+$1,$4,$5,$6,$7,0*
20,1,$1+$1,$6,$7,$8,$9,0*
20,1,$1+$1,$8,$9,$2,$3,0*%
G04 Aperture macros list end*
%ADD10R,1.120000X1.270000*%
%ADD11C,0.500000*%
%ADD12C,1.000000*%
%ADD13R,3.000000X5.000000*%
%ADD14RoundRect,0.250000X-0.312500X-0.625000X0.312500X-0.625000X0.312500X0.625000X-0.312500X0.625000X0*%
%ADD15RoundRect,0.243750X0.243750X0.456250X-0.243750X0.456250X-0.243750X-0.456250X0.243750X-0.456250X0*%
%ADD16C,3.200000*%
%ADD17RoundRect,0.150000X-0.587500X-0.150000X0.587500X-0.150000X0.587500X0.150000X-0.587500X0.150000X0*%
%ADD18RoundRect,0.150000X0.587500X0.150000X-0.587500X0.150000X-0.587500X-0.150000X0.587500X-0.150000X0*%
G04 APERTURE END LIST*
D10*
X39200000Y-74000000D03*
X36000000Y-74000000D03*
D11*
X74750000Y-39000000D03*
D12*
X17500000Y-68700000D03*
D11*
X77250000Y-75000000D03*
X13000000Y-44750000D03*
X85000000Y-64750000D03*
X88750000Y-17000000D03*
D13*
X78800000Y-42200000D03*
D11*
X26000000Y-64750000D03*
X88750000Y-13000000D03*
X81000000Y-7250000D03*
X7250000Y-34000000D03*
X93500000Y-85000000D03*
X60750000Y-37000000D03*
X68000000Y-64750000D03*
D12*
X64500000Y-48700000D03*
D11*
X49250000Y-35000000D03*
X49250000Y-18000000D03*
X71000000Y-47250000D03*
D12*
X50500000Y-28700000D03*
D11*
X83000000Y-67250000D03*
X49250000Y-34000000D03*
X77250000Y-79000000D03*
D14*
X56937500Y-34000000D03*
X59862500Y-34000000D03*
D11*
X63250000Y-19000000D03*
X80000000Y-47250000D03*
X52000000Y-67250000D03*
X74750000Y-58000000D03*
X27000000Y-7250000D03*
D10*
X53200000Y-74000000D03*
X50000000Y-74000000D03*
D11*
X77250000Y-36000000D03*
X35250000Y-36000000D03*
X54000000Y-7250000D03*
X80000000Y-84750000D03*
X84000000Y-67250000D03*
X71000000Y-64750000D03*
X70000000Y-27250000D03*
D12*
X31500000Y-28700000D03*
D11*
X52000000Y-44750000D03*
D15*
X55937500Y-31000000D03*
X54062500Y-31000000D03*
D14*
X28937500Y-14000000D03*
X31862500Y-14000000D03*
D13*
X50800000Y-62200000D03*
D11*
X39000000Y-27250000D03*
D14*
X70937500Y-74000000D03*
X73862500Y-74000000D03*
D13*
X45200000Y-82200000D03*
D16*
X13000000Y-22500000D03*
D13*
X87200000Y-22200000D03*
X64800000Y-62200000D03*
D11*
X35250000Y-58000000D03*
X77250000Y-17000000D03*
X21250000Y-35000000D03*
X46750000Y-18000000D03*
D17*
X57562500Y-36350000D03*
X57562500Y-38250000D03*
X59437500Y-37300000D03*
D11*
X88750000Y-58000000D03*
X82000000Y-24750000D03*
X70000000Y-44750000D03*
X25000000Y-47250000D03*
X25000000Y-24750000D03*
X30000000Y-44750000D03*
D10*
X39200000Y-54000000D03*
X36000000Y-54000000D03*
D11*
X41000000Y-47250000D03*
D10*
X67200000Y-54000000D03*
X64000000Y-54000000D03*
D14*
X42937500Y-34000000D03*
X45862500Y-34000000D03*
D11*
X52000000Y-84750000D03*
X86000000Y-64750000D03*
X12000000Y-44750000D03*
X11000000Y-67250000D03*
X32750000Y-33000000D03*
X74750000Y-19000000D03*
X21250000Y-18000000D03*
X52000000Y-27250000D03*
X46750000Y-38000000D03*
D14*
X70937500Y-34000000D03*
X73862500Y-34000000D03*
D11*
X83000000Y-44750000D03*
X70000000Y-67250000D03*
D15*
X41937500Y-11000000D03*
X40062500Y-11000000D03*
D11*
X77250000Y-56000000D03*
D16*
X13000000Y-42500000D03*
D11*
X63250000Y-37000000D03*
X74750000Y-55000000D03*
X28000000Y-27250000D03*
X10000000Y-24750000D03*
D18*
X38437500Y-78250000D03*
X38437500Y-76350000D03*
X36562500Y-77300000D03*
D11*
X32750000Y-18000000D03*
X85000000Y-7250000D03*
D14*
X14937500Y-74000000D03*
X17862500Y-74000000D03*
D11*
X54000000Y-44750000D03*
X10000000Y-7250000D03*
X18750000Y-15000000D03*
X15000000Y-24750000D03*
X18750000Y-36000000D03*
X11000000Y-24750000D03*
D15*
X27937500Y-31000000D03*
X26062500Y-31000000D03*
D11*
X27000000Y-24750000D03*
X25000000Y-84750000D03*
D17*
X71562500Y-56350000D03*
X71562500Y-58250000D03*
X73437500Y-57300000D03*
D11*
X67000000Y-27250000D03*
X49250000Y-77000000D03*
D13*
X59200000Y-22200000D03*
D11*
X71000000Y-84750000D03*
X56000000Y-24750000D03*
D10*
X25200000Y-34000000D03*
X22000000Y-34000000D03*
D11*
X18750000Y-79000000D03*
X7250000Y-39000000D03*
D16*
X27000000Y-22500000D03*
D11*
X52000000Y-47250000D03*
X21250000Y-37000000D03*
X21250000Y-58000000D03*
X21250000Y-56000000D03*
D13*
X59200000Y-62200000D03*
D11*
X18750000Y-17000000D03*
D15*
X13937500Y-11000000D03*
X12062500Y-11000000D03*
D14*
X70937500Y-14000000D03*
X73862500Y-14000000D03*
D11*
X77250000Y-14000000D03*
D13*
X36800000Y-42200000D03*
D11*
X58000000Y-84750000D03*
X70000000Y-84750000D03*
X44000000Y-67250000D03*
X30000000Y-27250000D03*
D17*
X43562500Y-36350000D03*
X43562500Y-38250000D03*
X45437500Y-37300000D03*
D13*
X22800000Y-82200000D03*
D14*
X42937500Y-14000000D03*
X45862500Y-14000000D03*
D11*
X71000000Y-7250000D03*
X68000000Y-24750000D03*
X35250000Y-14000000D03*
X35250000Y-54000000D03*
X88750000Y-53000000D03*
X85000000Y-84750000D03*
X63250000Y-53000000D03*
X12000000Y-84750000D03*
X74750000Y-77000000D03*
D12*
X45500000Y-68700000D03*
D17*
X15562500Y-36350000D03*
X15562500Y-38250000D03*
X17437500Y-37300000D03*
D10*
X81200000Y-74000000D03*
X78000000Y-74000000D03*
D11*
X81000000Y-44750000D03*
X46750000Y-36000000D03*
D15*
X41937500Y-31000000D03*
X40062500Y-31000000D03*
D11*
X46750000Y-17000000D03*
X56000000Y-44750000D03*
X10000000Y-64750000D03*
X18750000Y-75000000D03*
X25000000Y-67250000D03*
X80000000Y-7250000D03*
X56000000Y-67250000D03*
X24000000Y-24750000D03*
X27000000Y-67250000D03*
D18*
X80437500Y-58250000D03*
X80437500Y-56350000D03*
X78562500Y-57300000D03*
D11*
X74750000Y-36000000D03*
X40000000Y-44750000D03*
D14*
X28937500Y-34000000D03*
X31862500Y-34000000D03*
D11*
X88750000Y-19000000D03*
D12*
X87500000Y-8700000D03*
D11*
X69000000Y-27250000D03*
X7250000Y-59000000D03*
X63250000Y-75000000D03*
D14*
X56937500Y-74000000D03*
X59862500Y-74000000D03*
D11*
X35250000Y-17000000D03*
X60750000Y-35000000D03*
X49250000Y-15000000D03*
D16*
X27000000Y-42500000D03*
D11*
X72000000Y-24750000D03*
X66000000Y-47250000D03*
X26000000Y-24750000D03*
X52000000Y-64750000D03*
D18*
X66437500Y-58250000D03*
X66437500Y-56350000D03*
X64562500Y-57300000D03*
D11*
X29000000Y-64750000D03*
X49250000Y-78000000D03*
X18750000Y-77000000D03*
X13000000Y-64750000D03*
X7250000Y-37000000D03*
X32750000Y-76000000D03*
X21250000Y-15000000D03*
X77250000Y-13000000D03*
X25000000Y-7250000D03*
X35250000Y-33000000D03*
X41000000Y-27250000D03*
X38000000Y-67250000D03*
X21250000Y-57000000D03*
X88750000Y-78000000D03*
X58000000Y-64750000D03*
X49250000Y-36000000D03*
X43000000Y-27250000D03*
D14*
X14937500Y-54000000D03*
X17862500Y-54000000D03*
D18*
X38437500Y-38250000D03*
X38437500Y-36350000D03*
X36562500Y-37300000D03*
D11*
X74750000Y-59000000D03*
X46750000Y-79000000D03*
D10*
X25200000Y-74000000D03*
X22000000Y-74000000D03*
D17*
X57562500Y-16350000D03*
X57562500Y-18250000D03*
X59437500Y-17300000D03*
D13*
X22800000Y-22200000D03*
D11*
X68000000Y-44750000D03*
X85000000Y-67250000D03*
D14*
X28937500Y-54000000D03*
X31862500Y-54000000D03*
D11*
X26000000Y-44750000D03*
X57000000Y-47250000D03*
X63250000Y-36000000D03*
D13*
X87200000Y-62200000D03*
D11*
X29000000Y-44750000D03*
X49250000Y-16000000D03*
X49250000Y-14000000D03*
X46750000Y-56000000D03*
D10*
X81200000Y-14000000D03*
X78000000Y-14000000D03*
D11*
X46750000Y-16000000D03*
X32750000Y-57000000D03*
X42000000Y-24750000D03*
X42000000Y-44750000D03*
X28000000Y-67250000D03*
X42000000Y-67250000D03*
X11000000Y-84750000D03*
D13*
X45200000Y-62200000D03*
D11*
X74750000Y-38000000D03*
X7250000Y-55000000D03*
X80000000Y-24750000D03*
X53000000Y-44750000D03*
X57000000Y-64750000D03*
D15*
X83937500Y-51000000D03*
X82062500Y-51000000D03*
D11*
X60750000Y-36000000D03*
X84000000Y-24750000D03*
X49250000Y-13000000D03*
X32750000Y-77000000D03*
X77250000Y-54000000D03*
X35250000Y-19000000D03*
X16000000Y-84750000D03*
X46750000Y-78000000D03*
X39000000Y-47250000D03*
X21250000Y-76000000D03*
D13*
X36800000Y-22200000D03*
D11*
X40000000Y-84750000D03*
X84000000Y-27250000D03*
X88750000Y-34000000D03*
X72000000Y-27250000D03*
D17*
X43562500Y-76350000D03*
X43562500Y-78250000D03*
X45437500Y-77300000D03*
D11*
X66000000Y-84750000D03*
X12000000Y-24750000D03*
D16*
X55000000Y-82500000D03*
D11*
X21250000Y-19000000D03*
X11000000Y-64750000D03*
X18750000Y-34000000D03*
X63250000Y-38000000D03*
X35250000Y-79000000D03*
X18750000Y-13000000D03*
D15*
X69937500Y-71000000D03*
X68062500Y-71000000D03*
D11*
X80000000Y-27250000D03*
X88750000Y-54000000D03*
X60750000Y-34000000D03*
X43000000Y-44750000D03*
X15000000Y-84750000D03*
X94500000Y-7000000D03*
X46750000Y-75000000D03*
D12*
X87500000Y-68700000D03*
D11*
X11000000Y-47250000D03*
X1500000Y-85000000D03*
X35250000Y-34000000D03*
X41000000Y-7250000D03*
X18750000Y-37000000D03*
X24000000Y-64750000D03*
X32750000Y-15000000D03*
X49250000Y-57000000D03*
D16*
X69000000Y-22500000D03*
D11*
X60750000Y-15000000D03*
X1500000Y-7000000D03*
X18750000Y-53000000D03*
X7250000Y-58000000D03*
X63250000Y-15000000D03*
X86000000Y-24750000D03*
X18750000Y-74000000D03*
X77250000Y-16000000D03*
D12*
X78500000Y-68700000D03*
D11*
X30000000Y-67250000D03*
X42000000Y-47250000D03*
D17*
X57562500Y-76350000D03*
X57562500Y-78250000D03*
X59437500Y-77300000D03*
D11*
X57000000Y-84750000D03*
X83000000Y-64750000D03*
X7250000Y-35000000D03*
X60750000Y-13000000D03*
X77250000Y-35000000D03*
X53000000Y-27250000D03*
X53000000Y-67250000D03*
X41000000Y-67250000D03*
X94500000Y-85000000D03*
D12*
X50500000Y-8700000D03*
D18*
X10437500Y-38250000D03*
X10437500Y-36350000D03*
X8562500Y-37300000D03*
D11*
X28000000Y-64750000D03*
X27000000Y-84750000D03*
D16*
X55000000Y-22500000D03*
D11*
X77250000Y-58000000D03*
X12000000Y-67250000D03*
D15*
X83937500Y-31000000D03*
X82062500Y-31000000D03*
D13*
X78800000Y-62200000D03*
D11*
X88750000Y-18000000D03*
X49250000Y-55000000D03*
X29000000Y-84750000D03*
X72000000Y-44750000D03*
X57000000Y-27250000D03*
X84000000Y-44750000D03*
D14*
X70937500Y-54000000D03*
X73862500Y-54000000D03*
D11*
X63250000Y-54000000D03*
X55000000Y-67250000D03*
X2500000Y-85000000D03*
X39000000Y-44750000D03*
X10000000Y-47250000D03*
X55000000Y-44750000D03*
X74750000Y-56000000D03*
X60750000Y-38000000D03*
X46750000Y-74000000D03*
D12*
X73500000Y-48700000D03*
D11*
X38000000Y-27250000D03*
X55000000Y-64750000D03*
X21250000Y-59000000D03*
X72000000Y-64750000D03*
X32750000Y-75000000D03*
X15000000Y-7250000D03*
D12*
X36500000Y-8700000D03*
D11*
X63250000Y-74000000D03*
X44000000Y-64750000D03*
D12*
X87500000Y-28700000D03*
D18*
X80437500Y-18250000D03*
X80437500Y-16350000D03*
X78562500Y-17300000D03*
D16*
X55000000Y-62500000D03*
D11*
X21250000Y-54000000D03*
D10*
X67200000Y-74000000D03*
X64000000Y-74000000D03*
D11*
X24000000Y-27250000D03*
X16000000Y-27250000D03*
X21250000Y-39000000D03*
X7250000Y-16000000D03*
X69000000Y-47250000D03*
X67000000Y-7250000D03*
X46750000Y-34000000D03*
X58000000Y-67250000D03*
X7250000Y-18000000D03*
D13*
X17200000Y-82200000D03*
D15*
X13937500Y-71000000D03*
X12062500Y-71000000D03*
D12*
X36500000Y-28700000D03*
D11*
X56000000Y-84750000D03*
X7250000Y-77000000D03*
X32750000Y-58000000D03*
X54000000Y-47250000D03*
X18750000Y-54000000D03*
X80000000Y-64750000D03*
X55000000Y-27250000D03*
D10*
X81200000Y-54000000D03*
X78000000Y-54000000D03*
D14*
X84937500Y-54000000D03*
X87862500Y-54000000D03*
D11*
X83000000Y-27250000D03*
D17*
X43562500Y-16350000D03*
X43562500Y-18250000D03*
X45437500Y-17300000D03*
D11*
X29000000Y-67250000D03*
X46750000Y-76000000D03*
X60750000Y-77000000D03*
X29000000Y-7250000D03*
X85000000Y-47250000D03*
X13000000Y-84750000D03*
D13*
X8800000Y-42200000D03*
D18*
X10437500Y-78250000D03*
X10437500Y-76350000D03*
X8562500Y-77300000D03*
D11*
X93500000Y-7000000D03*
X7250000Y-57000000D03*
D17*
X29562500Y-56350000D03*
X29562500Y-58250000D03*
X31437500Y-57300000D03*
D15*
X83937500Y-11000000D03*
X82062500Y-11000000D03*
D11*
X66000000Y-67250000D03*
X30000000Y-84750000D03*
X15000000Y-47250000D03*
X84000000Y-84750000D03*
X18750000Y-14000000D03*
X81000000Y-67250000D03*
X60750000Y-19000000D03*
X82000000Y-44750000D03*
D13*
X64800000Y-22200000D03*
D11*
X54000000Y-27250000D03*
X69000000Y-44750000D03*
X43000000Y-67250000D03*
X63250000Y-58000000D03*
X43000000Y-84750000D03*
X35250000Y-57000000D03*
X14000000Y-27250000D03*
X54000000Y-67250000D03*
X21250000Y-79000000D03*
D18*
X80437500Y-38250000D03*
X80437500Y-36350000D03*
X78562500Y-37300000D03*
D12*
X73500000Y-68700000D03*
D11*
X10000000Y-27250000D03*
X25000000Y-64750000D03*
X35250000Y-39000000D03*
D12*
X78500000Y-28700000D03*
X50500000Y-68700000D03*
D11*
X26000000Y-27250000D03*
X60750000Y-56000000D03*
D13*
X64800000Y-42200000D03*
D11*
X74750000Y-73000000D03*
X88750000Y-59000000D03*
D18*
X80437500Y-78250000D03*
X80437500Y-76350000D03*
X78562500Y-77300000D03*
D13*
X73200000Y-42200000D03*
D15*
X41937500Y-71000000D03*
X40062500Y-71000000D03*
D18*
X52437500Y-38250000D03*
X52437500Y-36350000D03*
X50562500Y-37300000D03*
D11*
X21250000Y-75000000D03*
D17*
X15562500Y-16350000D03*
X15562500Y-18250000D03*
X17437500Y-17300000D03*
D11*
X42000000Y-7250000D03*
X81000000Y-47250000D03*
X60750000Y-14000000D03*
X83000000Y-47250000D03*
D15*
X55937500Y-71000000D03*
X54062500Y-71000000D03*
D18*
X52437500Y-78250000D03*
X52437500Y-76350000D03*
X50562500Y-77300000D03*
D11*
X30000000Y-24750000D03*
X7250000Y-38000000D03*
D18*
X24437500Y-78250000D03*
X24437500Y-76350000D03*
X22562500Y-77300000D03*
D11*
X77250000Y-78000000D03*
D15*
X55937500Y-11000000D03*
X54062500Y-11000000D03*
D11*
X35250000Y-35000000D03*
X77250000Y-38000000D03*
X55000000Y-7250000D03*
X32750000Y-35000000D03*
D14*
X42937500Y-74000000D03*
X45862500Y-74000000D03*
D11*
X57000000Y-44750000D03*
D14*
X84937500Y-74000000D03*
X87862500Y-74000000D03*
D15*
X69937500Y-11000000D03*
X68062500Y-11000000D03*
D14*
X42937500Y-54000000D03*
X45862500Y-54000000D03*
D11*
X66000000Y-44750000D03*
X38000000Y-64750000D03*
D12*
X59500000Y-48700000D03*
D11*
X84000000Y-64750000D03*
X26000000Y-47250000D03*
D13*
X17200000Y-42200000D03*
D11*
X7250000Y-13000000D03*
X60750000Y-59000000D03*
D10*
X11200000Y-34000000D03*
X8000000Y-34000000D03*
D11*
X56000000Y-27250000D03*
D10*
X53200000Y-34000000D03*
X50000000Y-34000000D03*
D11*
X43000000Y-7250000D03*
X46750000Y-54000000D03*
X49250000Y-73000000D03*
D17*
X15562500Y-76350000D03*
X15562500Y-78250000D03*
X17437500Y-77300000D03*
D11*
X49250000Y-38000000D03*
X32750000Y-13000000D03*
X63250000Y-14000000D03*
D13*
X78800000Y-22200000D03*
D11*
X13000000Y-27250000D03*
X66000000Y-27250000D03*
X46750000Y-35000000D03*
D18*
X52437500Y-58250000D03*
X52437500Y-56350000D03*
X50562500Y-57300000D03*
D11*
X88750000Y-35000000D03*
X11000000Y-44750000D03*
D17*
X85562500Y-76350000D03*
X85562500Y-78250000D03*
X87437500Y-77300000D03*
X85562500Y-36350000D03*
X85562500Y-38250000D03*
X87437500Y-37300000D03*
D11*
X46750000Y-14000000D03*
D13*
X87200000Y-82200000D03*
D12*
X8500000Y-28700000D03*
D11*
X54000000Y-64750000D03*
X16000000Y-47250000D03*
X60750000Y-39000000D03*
X88750000Y-39000000D03*
X52000000Y-24750000D03*
D17*
X15562500Y-56350000D03*
X15562500Y-58250000D03*
X17437500Y-57300000D03*
D16*
X69000000Y-42500000D03*
D11*
X35250000Y-59000000D03*
X63250000Y-77000000D03*
X66000000Y-64750000D03*
D12*
X31500000Y-8700000D03*
D11*
X56000000Y-64750000D03*
D18*
X24437500Y-38250000D03*
X24437500Y-36350000D03*
X22562500Y-37300000D03*
D11*
X28000000Y-84750000D03*
D16*
X27000000Y-62500000D03*
D11*
X43000000Y-47250000D03*
X7250000Y-53000000D03*
D15*
X69937500Y-31000000D03*
X68062500Y-31000000D03*
D11*
X88750000Y-14000000D03*
D13*
X50800000Y-42200000D03*
D11*
X26000000Y-7250000D03*
X70000000Y-24750000D03*
D18*
X66437500Y-38250000D03*
X66437500Y-36350000D03*
X64562500Y-37300000D03*
D11*
X86000000Y-47250000D03*
X54000000Y-24750000D03*
X30000000Y-47250000D03*
X35250000Y-18000000D03*
X74750000Y-13000000D03*
X77250000Y-18000000D03*
X83000000Y-7250000D03*
D17*
X71562500Y-16350000D03*
X71562500Y-18250000D03*
X73437500Y-17300000D03*
D11*
X46750000Y-77000000D03*
X60750000Y-58000000D03*
D16*
X13000000Y-62500000D03*
D11*
X39000000Y-64750000D03*
D16*
X83000000Y-82500000D03*
D11*
X68000000Y-47250000D03*
X77250000Y-33000000D03*
X21250000Y-77000000D03*
X91500000Y-85000000D03*
D16*
X41000000Y-22500000D03*
D11*
X63250000Y-18000000D03*
D14*
X56937500Y-14000000D03*
X59862500Y-14000000D03*
D15*
X55937500Y-51000000D03*
X54062500Y-51000000D03*
D11*
X7250000Y-74000000D03*
X95500000Y-85000000D03*
X40000000Y-64750000D03*
X14000000Y-44750000D03*
X81000000Y-84750000D03*
X21250000Y-16000000D03*
X18750000Y-76000000D03*
X53000000Y-47250000D03*
X63250000Y-35000000D03*
X85000000Y-44750000D03*
X67000000Y-47250000D03*
X63250000Y-57000000D03*
X63250000Y-16000000D03*
D14*
X84937500Y-14000000D03*
X87862500Y-14000000D03*
D10*
X67200000Y-14000000D03*
X64000000Y-14000000D03*
D11*
X69000000Y-7250000D03*
X32750000Y-59000000D03*
X35250000Y-16000000D03*
D14*
X56937500Y-54000000D03*
X59862500Y-54000000D03*
D11*
X46750000Y-33000000D03*
X77250000Y-57000000D03*
X14000000Y-24750000D03*
X21250000Y-53000000D03*
X26000000Y-84750000D03*
D10*
X67200000Y-34000000D03*
X64000000Y-34000000D03*
D11*
X63250000Y-33000000D03*
X82000000Y-64750000D03*
X66000000Y-24750000D03*
D12*
X73500000Y-28700000D03*
D11*
X60750000Y-16000000D03*
D18*
X66437500Y-78250000D03*
X66437500Y-76350000D03*
X64562500Y-77300000D03*
D11*
X32750000Y-79000000D03*
X41000000Y-84750000D03*
D15*
X27937500Y-71000000D03*
X26062500Y-71000000D03*
D11*
X77250000Y-53000000D03*
D12*
X22500000Y-8700000D03*
D11*
X7250000Y-56000000D03*
X63250000Y-34000000D03*
X35250000Y-73000000D03*
X55000000Y-84750000D03*
D17*
X57562500Y-56350000D03*
X57562500Y-58250000D03*
X59437500Y-57300000D03*
D13*
X64800000Y-82200000D03*
D11*
X32750000Y-53000000D03*
D13*
X50800000Y-82200000D03*
D11*
X15000000Y-67250000D03*
X15000000Y-27250000D03*
X68000000Y-67250000D03*
X54000000Y-84750000D03*
X60750000Y-78000000D03*
X81000000Y-64750000D03*
X63250000Y-73000000D03*
D13*
X36800000Y-62200000D03*
D11*
X13000000Y-47250000D03*
X74750000Y-17000000D03*
D15*
X13937500Y-51000000D03*
X12062500Y-51000000D03*
D11*
X49250000Y-37000000D03*
X58000000Y-27250000D03*
D13*
X87200000Y-42200000D03*
D11*
X18750000Y-16000000D03*
X85000000Y-27250000D03*
X46750000Y-39000000D03*
X57000000Y-67250000D03*
D12*
X64500000Y-68700000D03*
D11*
X7250000Y-79000000D03*
D13*
X22800000Y-42200000D03*
D11*
X18750000Y-33000000D03*
X88750000Y-15000000D03*
X56000000Y-7250000D03*
D10*
X39200000Y-14000000D03*
X36000000Y-14000000D03*
D11*
X88750000Y-16000000D03*
D13*
X8800000Y-22200000D03*
D11*
X63250000Y-78000000D03*
X14000000Y-67250000D03*
X74750000Y-54000000D03*
X63250000Y-17000000D03*
X82000000Y-27250000D03*
D15*
X69937500Y-51000000D03*
X68062500Y-51000000D03*
D11*
X80000000Y-67250000D03*
X88750000Y-37000000D03*
X77250000Y-39000000D03*
X24000000Y-84750000D03*
X63250000Y-79000000D03*
X21250000Y-13000000D03*
D12*
X31500000Y-68700000D03*
D17*
X85562500Y-56350000D03*
X85562500Y-58250000D03*
X87437500Y-57300000D03*
D16*
X83000000Y-22500000D03*
D12*
X73500000Y-8700000D03*
D11*
X46750000Y-73000000D03*
X39000000Y-7250000D03*
X53000000Y-7250000D03*
X49250000Y-53000000D03*
X4500000Y-85000000D03*
X77250000Y-76000000D03*
X38000000Y-47250000D03*
X21250000Y-33000000D03*
D10*
X11200000Y-54000000D03*
X8000000Y-54000000D03*
D11*
X68000000Y-7250000D03*
X10000000Y-84750000D03*
X69000000Y-64750000D03*
X60750000Y-57000000D03*
X67000000Y-64750000D03*
X60750000Y-33000000D03*
D13*
X31200000Y-22200000D03*
D12*
X64500000Y-8700000D03*
D18*
X38437500Y-18250000D03*
X38437500Y-16350000D03*
X36562500Y-17300000D03*
D11*
X32750000Y-34000000D03*
D13*
X17200000Y-22200000D03*
D11*
X83000000Y-24750000D03*
X38000000Y-24750000D03*
X25000000Y-27250000D03*
X14000000Y-47250000D03*
X40000000Y-47250000D03*
X21250000Y-55000000D03*
X70000000Y-64750000D03*
X16000000Y-64750000D03*
X18750000Y-56000000D03*
X40000000Y-67250000D03*
X84000000Y-47250000D03*
X12000000Y-47250000D03*
X7250000Y-36000000D03*
X91500000Y-7000000D03*
D13*
X73200000Y-22200000D03*
D10*
X25200000Y-14000000D03*
X22000000Y-14000000D03*
D12*
X8500000Y-48700000D03*
D11*
X2500000Y-7000000D03*
X21250000Y-73000000D03*
X84000000Y-7250000D03*
X24000000Y-67250000D03*
D15*
X41937500Y-51000000D03*
X40062500Y-51000000D03*
D11*
X44000000Y-84750000D03*
X82000000Y-84750000D03*
X71000000Y-44750000D03*
X7250000Y-19000000D03*
D12*
X78500000Y-8700000D03*
D14*
X28937500Y-74000000D03*
X31862500Y-74000000D03*
D16*
X55000000Y-42500000D03*
D11*
X7250000Y-17000000D03*
X83000000Y-84750000D03*
D12*
X22500000Y-68700000D03*
D11*
X74750000Y-37000000D03*
X10000000Y-67250000D03*
X28000000Y-44750000D03*
X24000000Y-44750000D03*
D18*
X66437500Y-18250000D03*
X66437500Y-16350000D03*
X64562500Y-17300000D03*
D11*
X82000000Y-7250000D03*
X60750000Y-75000000D03*
X55000000Y-24750000D03*
D12*
X17500000Y-48700000D03*
D11*
X46750000Y-37000000D03*
X11000000Y-27250000D03*
X71000000Y-24750000D03*
X16000000Y-7250000D03*
D10*
X53200000Y-14000000D03*
X50000000Y-14000000D03*
D11*
X74750000Y-15000000D03*
X42000000Y-27250000D03*
D16*
X41000000Y-42500000D03*
D11*
X67000000Y-44750000D03*
X46750000Y-59000000D03*
X13000000Y-7250000D03*
X52000000Y-7250000D03*
X35250000Y-53000000D03*
X18750000Y-38000000D03*
D13*
X36800000Y-82200000D03*
D17*
X71562500Y-36350000D03*
X71562500Y-38250000D03*
X73437500Y-37300000D03*
D11*
X68000000Y-27250000D03*
X46750000Y-57000000D03*
X16000000Y-67250000D03*
D13*
X8800000Y-82200000D03*
D11*
X74750000Y-34000000D03*
D16*
X69000000Y-62500000D03*
D11*
X41000000Y-24750000D03*
X29000000Y-24750000D03*
X63250000Y-55000000D03*
D18*
X10437500Y-58250000D03*
X10437500Y-56350000D03*
X8562500Y-57300000D03*
D11*
X88750000Y-57000000D03*
X44000000Y-7250000D03*
X86000000Y-84750000D03*
X80000000Y-44750000D03*
X82000000Y-67250000D03*
X16000000Y-24750000D03*
X66000000Y-7250000D03*
X15000000Y-44750000D03*
X60750000Y-76000000D03*
X18750000Y-19000000D03*
X46750000Y-15000000D03*
D13*
X45200000Y-42200000D03*
D11*
X58000000Y-7250000D03*
X38000000Y-84750000D03*
X60750000Y-73000000D03*
X32750000Y-36000000D03*
D13*
X22800000Y-62200000D03*
D11*
X32750000Y-14000000D03*
X27000000Y-47250000D03*
X25000000Y-44750000D03*
X7250000Y-73000000D03*
X35250000Y-13000000D03*
D15*
X13937500Y-31000000D03*
X12062500Y-31000000D03*
D11*
X49250000Y-19000000D03*
X24000000Y-7250000D03*
X35250000Y-78000000D03*
D13*
X59200000Y-42200000D03*
D11*
X63250000Y-56000000D03*
X74750000Y-76000000D03*
X21250000Y-74000000D03*
X77250000Y-34000000D03*
X12000000Y-64750000D03*
X500000Y-85000000D03*
D16*
X27000000Y-82500000D03*
D10*
X25200000Y-54000000D03*
X22000000Y-54000000D03*
D11*
X49250000Y-74000000D03*
X46750000Y-58000000D03*
X49250000Y-17000000D03*
X86000000Y-44750000D03*
D12*
X8500000Y-68700000D03*
D11*
X32750000Y-19000000D03*
X72000000Y-67250000D03*
X88750000Y-75000000D03*
X49250000Y-75000000D03*
X74750000Y-16000000D03*
D12*
X31500000Y-48700000D03*
D16*
X41000000Y-62500000D03*
D11*
X18750000Y-18000000D03*
X46750000Y-55000000D03*
X85000000Y-24750000D03*
X39000000Y-67250000D03*
X12000000Y-7250000D03*
D10*
X39200000Y-34000000D03*
X36000000Y-34000000D03*
D17*
X71562500Y-76350000D03*
X71562500Y-78250000D03*
X73437500Y-77300000D03*
D11*
X60750000Y-55000000D03*
X32750000Y-38000000D03*
X15000000Y-64750000D03*
X32750000Y-16000000D03*
X60750000Y-53000000D03*
X53000000Y-84750000D03*
X77250000Y-55000000D03*
X46750000Y-13000000D03*
X18750000Y-39000000D03*
X40000000Y-27250000D03*
X70000000Y-7250000D03*
D12*
X45500000Y-48700000D03*
D10*
X53200000Y-54000000D03*
X50000000Y-54000000D03*
D11*
X92500000Y-85000000D03*
X500000Y-7000000D03*
X27000000Y-27250000D03*
D18*
X38437500Y-58250000D03*
X38437500Y-56350000D03*
X36562500Y-57300000D03*
D11*
X95500000Y-7000000D03*
X49250000Y-56000000D03*
X18750000Y-73000000D03*
X30000000Y-64750000D03*
X71000000Y-67250000D03*
X44000000Y-44750000D03*
X77250000Y-15000000D03*
X35250000Y-74000000D03*
D10*
X81200000Y-34000000D03*
X78000000Y-34000000D03*
D11*
X67000000Y-24750000D03*
X55000000Y-47250000D03*
X38000000Y-44750000D03*
X86000000Y-7250000D03*
X32750000Y-37000000D03*
X58000000Y-47250000D03*
D14*
X14937500Y-14000000D03*
X17862500Y-14000000D03*
D11*
X35250000Y-75000000D03*
D12*
X59500000Y-28700000D03*
D11*
X7250000Y-78000000D03*
X49250000Y-76000000D03*
X88750000Y-76000000D03*
X49250000Y-54000000D03*
X53000000Y-24750000D03*
X40000000Y-24750000D03*
X46750000Y-19000000D03*
X57000000Y-7250000D03*
X42000000Y-64750000D03*
D12*
X59500000Y-8700000D03*
D11*
X32750000Y-54000000D03*
X72000000Y-47250000D03*
X68000000Y-84750000D03*
D15*
X83937500Y-71000000D03*
X82062500Y-71000000D03*
D11*
X24000000Y-47250000D03*
X21250000Y-17000000D03*
X82000000Y-47250000D03*
X26000000Y-67250000D03*
D10*
X11200000Y-14000000D03*
X8000000Y-14000000D03*
D11*
X88750000Y-73000000D03*
D17*
X29562500Y-36350000D03*
X29562500Y-38250000D03*
X31437500Y-37300000D03*
D11*
X88750000Y-79000000D03*
X32750000Y-56000000D03*
D12*
X59500000Y-68700000D03*
D11*
X74750000Y-53000000D03*
X74750000Y-74000000D03*
D12*
X36500000Y-48700000D03*
D11*
X74750000Y-35000000D03*
X56000000Y-47250000D03*
D16*
X83000000Y-62500000D03*
D11*
X18750000Y-55000000D03*
X60750000Y-74000000D03*
D13*
X17200000Y-62200000D03*
D11*
X32750000Y-17000000D03*
X88750000Y-74000000D03*
X70000000Y-47250000D03*
D18*
X52437500Y-18250000D03*
X52437500Y-16350000D03*
X50562500Y-17300000D03*
D11*
X21250000Y-34000000D03*
X74750000Y-33000000D03*
X69000000Y-24750000D03*
D14*
X84937500Y-34000000D03*
X87862500Y-34000000D03*
D11*
X44000000Y-47250000D03*
X41000000Y-44750000D03*
D12*
X87500000Y-48700000D03*
D17*
X29562500Y-76350000D03*
X29562500Y-78250000D03*
X31437500Y-77300000D03*
D11*
X63250000Y-39000000D03*
X49250000Y-33000000D03*
X46750000Y-53000000D03*
D17*
X85562500Y-16350000D03*
X85562500Y-18250000D03*
X87437500Y-17300000D03*
D11*
X32750000Y-73000000D03*
X88750000Y-36000000D03*
X58000000Y-24750000D03*
D17*
X29562500Y-16350000D03*
X29562500Y-18250000D03*
X31437500Y-17300000D03*
D11*
X43000000Y-64750000D03*
X18750000Y-78000000D03*
X77250000Y-19000000D03*
X18750000Y-35000000D03*
X27000000Y-44750000D03*
X7250000Y-54000000D03*
X72000000Y-84750000D03*
X63250000Y-76000000D03*
X35250000Y-55000000D03*
X7250000Y-76000000D03*
X88750000Y-38000000D03*
X32750000Y-78000000D03*
X35250000Y-76000000D03*
X49250000Y-79000000D03*
X3500000Y-85000000D03*
X86000000Y-27250000D03*
X88750000Y-77000000D03*
X21250000Y-14000000D03*
X63250000Y-13000000D03*
X77250000Y-73000000D03*
X77250000Y-37000000D03*
X14000000Y-84750000D03*
X41000000Y-64750000D03*
X74750000Y-14000000D03*
X69000000Y-84750000D03*
X88750000Y-33000000D03*
D13*
X73200000Y-82200000D03*
D11*
X10000000Y-44750000D03*
X38000000Y-7250000D03*
D12*
X17500000Y-28700000D03*
D11*
X21250000Y-36000000D03*
X77250000Y-59000000D03*
D17*
X43562500Y-56350000D03*
X43562500Y-58250000D03*
X45437500Y-57300000D03*
D11*
X18750000Y-58000000D03*
X69000000Y-67250000D03*
X77250000Y-74000000D03*
X14000000Y-64750000D03*
X35250000Y-38000000D03*
X29000000Y-27250000D03*
X28000000Y-7250000D03*
X28000000Y-24750000D03*
D14*
X14937500Y-34000000D03*
X17862500Y-34000000D03*
D11*
X49250000Y-39000000D03*
D12*
X8500000Y-8700000D03*
X17500000Y-8700000D03*
D11*
X7250000Y-14000000D03*
X92500000Y-7000000D03*
X39000000Y-24750000D03*
D15*
X27937500Y-51000000D03*
X26062500Y-51000000D03*
D11*
X77250000Y-77000000D03*
X88750000Y-56000000D03*
X14000000Y-7250000D03*
X60750000Y-17000000D03*
X30000000Y-7250000D03*
D18*
X24437500Y-18250000D03*
X24437500Y-16350000D03*
X22562500Y-17300000D03*
D15*
X27937500Y-11000000D03*
X26062500Y-11000000D03*
D11*
X86000000Y-67250000D03*
D13*
X45200000Y-22200000D03*
D11*
X40000000Y-7250000D03*
X44000000Y-24750000D03*
X4500000Y-7000000D03*
X81000000Y-27250000D03*
X18750000Y-59000000D03*
X44000000Y-27250000D03*
X60750000Y-18000000D03*
D12*
X36500000Y-68700000D03*
D11*
X16000000Y-44750000D03*
D12*
X22500000Y-48700000D03*
D10*
X11200000Y-74000000D03*
X8000000Y-74000000D03*
D13*
X50800000Y-22200000D03*
D11*
X42000000Y-84750000D03*
X49250000Y-58000000D03*
X13000000Y-67250000D03*
X29000000Y-47250000D03*
X35250000Y-37000000D03*
X58000000Y-44750000D03*
D18*
X10437500Y-18250000D03*
X10437500Y-16350000D03*
X8562500Y-17300000D03*
D11*
X39000000Y-84750000D03*
X49250000Y-59000000D03*
X74750000Y-78000000D03*
D12*
X78500000Y-48700000D03*
D11*
X81000000Y-24750000D03*
X60750000Y-79000000D03*
D16*
X13000000Y-82500000D03*
D13*
X59200000Y-82200000D03*
D11*
X11000000Y-7250000D03*
X12000000Y-27250000D03*
X7250000Y-15000000D03*
X7250000Y-33000000D03*
X21250000Y-78000000D03*
X27000000Y-64750000D03*
X3500000Y-7000000D03*
X32750000Y-39000000D03*
D13*
X31200000Y-42200000D03*
D12*
X45500000Y-8700000D03*
D11*
X21250000Y-38000000D03*
X57000000Y-24750000D03*
X74750000Y-18000000D03*
X88750000Y-55000000D03*
X18750000Y-57000000D03*
X53000000Y-64750000D03*
X35250000Y-77000000D03*
X7250000Y-75000000D03*
X71000000Y-27250000D03*
D16*
X83000000Y-42500000D03*
D12*
X64500000Y-28700000D03*
D11*
X67000000Y-67250000D03*
X32750000Y-74000000D03*
D13*
X8800000Y-62200000D03*
D11*
X74750000Y-57000000D03*
X72000000Y-7250000D03*
D13*
X31200000Y-62200000D03*
X31200000Y-82200000D03*
D11*
X43000000Y-24750000D03*
X28000000Y-47250000D03*
X35250000Y-56000000D03*
X74750000Y-75000000D03*
X35250000Y-15000000D03*
X67000000Y-84750000D03*
X13000000Y-24750000D03*
D12*
X45500000Y-28700000D03*
D11*
X74750000Y-79000000D03*
D18*
X24437500Y-58250000D03*
X24437500Y-56350000D03*
X22562500Y-57300000D03*
D12*
X22500000Y-28700000D03*
D13*
X78800000Y-82200000D03*
D16*
X41000000Y-82500000D03*
D12*
X50500000Y-48700000D03*
D11*
X60750000Y-54000000D03*
D16*
X69000000Y-82500000D03*
D13*
X73200000Y-62200000D03*
D11*
X63250000Y-59000000D03*
X32750000Y-55000000D03*
M02*
