M48
; DRILL file {KiCad (6.0.9)} date Thu Dec  8 09:35:14 2022
; FORMAT={-:-/ absolute / metric / decimal}
; #@! TF.CreationDate,2022-12-08T09:35:14+09:00
; #@! TF.GenerationSoftware,Kicad,Pcbnew,(6.0.9)
; #@! TF.FileFunction,MixedPlating,1,2
FMAT,2
METRIC
; #@! TA.AperFunction,NonPlated,NPTH,ComponentDrill
T1C0.500
; #@! TA.AperFunction,NonPlated,NPTH,ComponentDrill
T2C1.000
; #@! TA.AperFunction,NonPlated,NPTH,ComponentDrill
T3C3.200
%
G90
G05
T1
X0.5Y-7.0
X0.5Y-85.0
X1.5Y-7.0
X1.5Y-85.0
X2.5Y-7.0
X2.5Y-85.0
X3.5Y-7.0
X3.5Y-85.0
X4.5Y-7.0
X4.5Y-85.0
X7.25Y-13.0
X7.25Y-14.0
X7.25Y-15.0
X7.25Y-16.0
X7.25Y-17.0
X7.25Y-18.0
X7.25Y-19.0
X7.25Y-33.0
X7.25Y-34.0
X7.25Y-35.0
X7.25Y-36.0
X7.25Y-37.0
X7.25Y-38.0
X7.25Y-39.0
X7.25Y-53.0
X7.25Y-54.0
X7.25Y-55.0
X7.25Y-56.0
X7.25Y-57.0
X7.25Y-58.0
X7.25Y-59.0
X7.25Y-73.0
X7.25Y-74.0
X7.25Y-75.0
X7.25Y-76.0
X7.25Y-77.0
X7.25Y-78.0
X7.25Y-79.0
X10.0Y-7.25
X10.0Y-24.75
X10.0Y-27.25
X10.0Y-44.75
X10.0Y-47.25
X10.0Y-64.75
X10.0Y-67.25
X10.0Y-84.75
X11.0Y-7.25
X11.0Y-24.75
X11.0Y-27.25
X11.0Y-44.75
X11.0Y-47.25
X11.0Y-64.75
X11.0Y-67.25
X11.0Y-84.75
X12.0Y-7.25
X12.0Y-24.75
X12.0Y-27.25
X12.0Y-44.75
X12.0Y-47.25
X12.0Y-64.75
X12.0Y-67.25
X12.0Y-84.75
X13.0Y-7.25
X13.0Y-24.75
X13.0Y-27.25
X13.0Y-44.75
X13.0Y-47.25
X13.0Y-64.75
X13.0Y-67.25
X13.0Y-84.75
X14.0Y-7.25
X14.0Y-24.75
X14.0Y-27.25
X14.0Y-44.75
X14.0Y-47.25
X14.0Y-64.75
X14.0Y-67.25
X14.0Y-84.75
X15.0Y-7.25
X15.0Y-24.75
X15.0Y-27.25
X15.0Y-44.75
X15.0Y-47.25
X15.0Y-64.75
X15.0Y-67.25
X15.0Y-84.75
X16.0Y-7.25
X16.0Y-24.75
X16.0Y-27.25
X16.0Y-44.75
X16.0Y-47.25
X16.0Y-64.75
X16.0Y-67.25
X16.0Y-84.75
X18.75Y-13.0
X18.75Y-14.0
X18.75Y-15.0
X18.75Y-16.0
X18.75Y-17.0
X18.75Y-18.0
X18.75Y-19.0
X18.75Y-33.0
X18.75Y-34.0
X18.75Y-35.0
X18.75Y-36.0
X18.75Y-37.0
X18.75Y-38.0
X18.75Y-39.0
X18.75Y-53.0
X18.75Y-54.0
X18.75Y-55.0
X18.75Y-56.0
X18.75Y-57.0
X18.75Y-58.0
X18.75Y-59.0
X18.75Y-73.0
X18.75Y-74.0
X18.75Y-75.0
X18.75Y-76.0
X18.75Y-77.0
X18.75Y-78.0
X18.75Y-79.0
X21.25Y-13.0
X21.25Y-14.0
X21.25Y-15.0
X21.25Y-16.0
X21.25Y-17.0
X21.25Y-18.0
X21.25Y-19.0
X21.25Y-33.0
X21.25Y-34.0
X21.25Y-35.0
X21.25Y-36.0
X21.25Y-37.0
X21.25Y-38.0
X21.25Y-39.0
X21.25Y-53.0
X21.25Y-54.0
X21.25Y-55.0
X21.25Y-56.0
X21.25Y-57.0
X21.25Y-58.0
X21.25Y-59.0
X21.25Y-73.0
X21.25Y-74.0
X21.25Y-75.0
X21.25Y-76.0
X21.25Y-77.0
X21.25Y-78.0
X21.25Y-79.0
X24.0Y-7.25
X24.0Y-24.75
X24.0Y-27.25
X24.0Y-44.75
X24.0Y-47.25
X24.0Y-64.75
X24.0Y-67.25
X24.0Y-84.75
X25.0Y-7.25
X25.0Y-24.75
X25.0Y-27.25
X25.0Y-44.75
X25.0Y-47.25
X25.0Y-64.75
X25.0Y-67.25
X25.0Y-84.75
X26.0Y-7.25
X26.0Y-24.75
X26.0Y-27.25
X26.0Y-44.75
X26.0Y-47.25
X26.0Y-64.75
X26.0Y-67.25
X26.0Y-84.75
X27.0Y-7.25
X27.0Y-24.75
X27.0Y-27.25
X27.0Y-44.75
X27.0Y-47.25
X27.0Y-64.75
X27.0Y-67.25
X27.0Y-84.75
X28.0Y-7.25
X28.0Y-24.75
X28.0Y-27.25
X28.0Y-44.75
X28.0Y-47.25
X28.0Y-64.75
X28.0Y-67.25
X28.0Y-84.75
X29.0Y-7.25
X29.0Y-24.75
X29.0Y-27.25
X29.0Y-44.75
X29.0Y-47.25
X29.0Y-64.75
X29.0Y-67.25
X29.0Y-84.75
X30.0Y-7.25
X30.0Y-24.75
X30.0Y-27.25
X30.0Y-44.75
X30.0Y-47.25
X30.0Y-64.75
X30.0Y-67.25
X30.0Y-84.75
X32.75Y-13.0
X32.75Y-14.0
X32.75Y-15.0
X32.75Y-16.0
X32.75Y-17.0
X32.75Y-18.0
X32.75Y-19.0
X32.75Y-33.0
X32.75Y-34.0
X32.75Y-35.0
X32.75Y-36.0
X32.75Y-37.0
X32.75Y-38.0
X32.75Y-39.0
X32.75Y-53.0
X32.75Y-54.0
X32.75Y-55.0
X32.75Y-56.0
X32.75Y-57.0
X32.75Y-58.0
X32.75Y-59.0
X32.75Y-73.0
X32.75Y-74.0
X32.75Y-75.0
X32.75Y-76.0
X32.75Y-77.0
X32.75Y-78.0
X32.75Y-79.0
X35.25Y-13.0
X35.25Y-14.0
X35.25Y-15.0
X35.25Y-16.0
X35.25Y-17.0
X35.25Y-18.0
X35.25Y-19.0
X35.25Y-33.0
X35.25Y-34.0
X35.25Y-35.0
X35.25Y-36.0
X35.25Y-37.0
X35.25Y-38.0
X35.25Y-39.0
X35.25Y-53.0
X35.25Y-54.0
X35.25Y-55.0
X35.25Y-56.0
X35.25Y-57.0
X35.25Y-58.0
X35.25Y-59.0
X35.25Y-73.0
X35.25Y-74.0
X35.25Y-75.0
X35.25Y-76.0
X35.25Y-77.0
X35.25Y-78.0
X35.25Y-79.0
X38.0Y-7.25
X38.0Y-24.75
X38.0Y-27.25
X38.0Y-44.75
X38.0Y-47.25
X38.0Y-64.75
X38.0Y-67.25
X38.0Y-84.75
X39.0Y-7.25
X39.0Y-24.75
X39.0Y-27.25
X39.0Y-44.75
X39.0Y-47.25
X39.0Y-64.75
X39.0Y-67.25
X39.0Y-84.75
X40.0Y-7.25
X40.0Y-24.75
X40.0Y-27.25
X40.0Y-44.75
X40.0Y-47.25
X40.0Y-64.75
X40.0Y-67.25
X40.0Y-84.75
X41.0Y-7.25
X41.0Y-24.75
X41.0Y-27.25
X41.0Y-44.75
X41.0Y-47.25
X41.0Y-64.75
X41.0Y-67.25
X41.0Y-84.75
X42.0Y-7.25
X42.0Y-24.75
X42.0Y-27.25
X42.0Y-44.75
X42.0Y-47.25
X42.0Y-64.75
X42.0Y-67.25
X42.0Y-84.75
X43.0Y-7.25
X43.0Y-24.75
X43.0Y-27.25
X43.0Y-44.75
X43.0Y-47.25
X43.0Y-64.75
X43.0Y-67.25
X43.0Y-84.75
X44.0Y-7.25
X44.0Y-24.75
X44.0Y-27.25
X44.0Y-44.75
X44.0Y-47.25
X44.0Y-64.75
X44.0Y-67.25
X44.0Y-84.75
X46.75Y-13.0
X46.75Y-14.0
X46.75Y-15.0
X46.75Y-16.0
X46.75Y-17.0
X46.75Y-18.0
X46.75Y-19.0
X46.75Y-33.0
X46.75Y-34.0
X46.75Y-35.0
X46.75Y-36.0
X46.75Y-37.0
X46.75Y-38.0
X46.75Y-39.0
X46.75Y-53.0
X46.75Y-54.0
X46.75Y-55.0
X46.75Y-56.0
X46.75Y-57.0
X46.75Y-58.0
X46.75Y-59.0
X46.75Y-73.0
X46.75Y-74.0
X46.75Y-75.0
X46.75Y-76.0
X46.75Y-77.0
X46.75Y-78.0
X46.75Y-79.0
X49.25Y-13.0
X49.25Y-14.0
X49.25Y-15.0
X49.25Y-16.0
X49.25Y-17.0
X49.25Y-18.0
X49.25Y-19.0
X49.25Y-33.0
X49.25Y-34.0
X49.25Y-35.0
X49.25Y-36.0
X49.25Y-37.0
X49.25Y-38.0
X49.25Y-39.0
X49.25Y-53.0
X49.25Y-54.0
X49.25Y-55.0
X49.25Y-56.0
X49.25Y-57.0
X49.25Y-58.0
X49.25Y-59.0
X49.25Y-73.0
X49.25Y-74.0
X49.25Y-75.0
X49.25Y-76.0
X49.25Y-77.0
X49.25Y-78.0
X49.25Y-79.0
X52.0Y-7.25
X52.0Y-24.75
X52.0Y-27.25
X52.0Y-44.75
X52.0Y-47.25
X52.0Y-64.75
X52.0Y-67.25
X52.0Y-84.75
X53.0Y-7.25
X53.0Y-24.75
X53.0Y-27.25
X53.0Y-44.75
X53.0Y-47.25
X53.0Y-64.75
X53.0Y-67.25
X53.0Y-84.75
X54.0Y-7.25
X54.0Y-24.75
X54.0Y-27.25
X54.0Y-44.75
X54.0Y-47.25
X54.0Y-64.75
X54.0Y-67.25
X54.0Y-84.75
X55.0Y-7.25
X55.0Y-24.75
X55.0Y-27.25
X55.0Y-44.75
X55.0Y-47.25
X55.0Y-64.75
X55.0Y-67.25
X55.0Y-84.75
X56.0Y-7.25
X56.0Y-24.75
X56.0Y-27.25
X56.0Y-44.75
X56.0Y-47.25
X56.0Y-64.75
X56.0Y-67.25
X56.0Y-84.75
X57.0Y-7.25
X57.0Y-24.75
X57.0Y-27.25
X57.0Y-44.75
X57.0Y-47.25
X57.0Y-64.75
X57.0Y-67.25
X57.0Y-84.75
X58.0Y-7.25
X58.0Y-24.75
X58.0Y-27.25
X58.0Y-44.75
X58.0Y-47.25
X58.0Y-64.75
X58.0Y-67.25
X58.0Y-84.75
X60.75Y-13.0
X60.75Y-14.0
X60.75Y-15.0
X60.75Y-16.0
X60.75Y-17.0
X60.75Y-18.0
X60.75Y-19.0
X60.75Y-33.0
X60.75Y-34.0
X60.75Y-35.0
X60.75Y-36.0
X60.75Y-37.0
X60.75Y-38.0
X60.75Y-39.0
X60.75Y-53.0
X60.75Y-54.0
X60.75Y-55.0
X60.75Y-56.0
X60.75Y-57.0
X60.75Y-58.0
X60.75Y-59.0
X60.75Y-73.0
X60.75Y-74.0
X60.75Y-75.0
X60.75Y-76.0
X60.75Y-77.0
X60.75Y-78.0
X60.75Y-79.0
X63.25Y-13.0
X63.25Y-14.0
X63.25Y-15.0
X63.25Y-16.0
X63.25Y-17.0
X63.25Y-18.0
X63.25Y-19.0
X63.25Y-33.0
X63.25Y-34.0
X63.25Y-35.0
X63.25Y-36.0
X63.25Y-37.0
X63.25Y-38.0
X63.25Y-39.0
X63.25Y-53.0
X63.25Y-54.0
X63.25Y-55.0
X63.25Y-56.0
X63.25Y-57.0
X63.25Y-58.0
X63.25Y-59.0
X63.25Y-73.0
X63.25Y-74.0
X63.25Y-75.0
X63.25Y-76.0
X63.25Y-77.0
X63.25Y-78.0
X63.25Y-79.0
X66.0Y-7.25
X66.0Y-24.75
X66.0Y-27.25
X66.0Y-44.75
X66.0Y-47.25
X66.0Y-64.75
X66.0Y-67.25
X66.0Y-84.75
X67.0Y-7.25
X67.0Y-24.75
X67.0Y-27.25
X67.0Y-44.75
X67.0Y-47.25
X67.0Y-64.75
X67.0Y-67.25
X67.0Y-84.75
X68.0Y-7.25
X68.0Y-24.75
X68.0Y-27.25
X68.0Y-44.75
X68.0Y-47.25
X68.0Y-64.75
X68.0Y-67.25
X68.0Y-84.75
X69.0Y-7.25
X69.0Y-24.75
X69.0Y-27.25
X69.0Y-44.75
X69.0Y-47.25
X69.0Y-64.75
X69.0Y-67.25
X69.0Y-84.75
X70.0Y-7.25
X70.0Y-24.75
X70.0Y-27.25
X70.0Y-44.75
X70.0Y-47.25
X70.0Y-64.75
X70.0Y-67.25
X70.0Y-84.75
X71.0Y-7.25
X71.0Y-24.75
X71.0Y-27.25
X71.0Y-44.75
X71.0Y-47.25
X71.0Y-64.75
X71.0Y-67.25
X71.0Y-84.75
X72.0Y-7.25
X72.0Y-24.75
X72.0Y-27.25
X72.0Y-44.75
X72.0Y-47.25
X72.0Y-64.75
X72.0Y-67.25
X72.0Y-84.75
X74.75Y-13.0
X74.75Y-14.0
X74.75Y-15.0
X74.75Y-16.0
X74.75Y-17.0
X74.75Y-18.0
X74.75Y-19.0
X74.75Y-33.0
X74.75Y-34.0
X74.75Y-35.0
X74.75Y-36.0
X74.75Y-37.0
X74.75Y-38.0
X74.75Y-39.0
X74.75Y-53.0
X74.75Y-54.0
X74.75Y-55.0
X74.75Y-56.0
X74.75Y-57.0
X74.75Y-58.0
X74.75Y-59.0
X74.75Y-73.0
X74.75Y-74.0
X74.75Y-75.0
X74.75Y-76.0
X74.75Y-77.0
X74.75Y-78.0
X74.75Y-79.0
X77.25Y-13.0
X77.25Y-14.0
X77.25Y-15.0
X77.25Y-16.0
X77.25Y-17.0
X77.25Y-18.0
X77.25Y-19.0
X77.25Y-33.0
X77.25Y-34.0
X77.25Y-35.0
X77.25Y-36.0
X77.25Y-37.0
X77.25Y-38.0
X77.25Y-39.0
X77.25Y-53.0
X77.25Y-54.0
X77.25Y-55.0
X77.25Y-56.0
X77.25Y-57.0
X77.25Y-58.0
X77.25Y-59.0
X77.25Y-73.0
X77.25Y-74.0
X77.25Y-75.0
X77.25Y-76.0
X77.25Y-77.0
X77.25Y-78.0
X77.25Y-79.0
X80.0Y-7.25
X80.0Y-24.75
X80.0Y-27.25
X80.0Y-44.75
X80.0Y-47.25
X80.0Y-64.75
X80.0Y-67.25
X80.0Y-84.75
X81.0Y-7.25
X81.0Y-24.75
X81.0Y-27.25
X81.0Y-44.75
X81.0Y-47.25
X81.0Y-64.75
X81.0Y-67.25
X81.0Y-84.75
X82.0Y-7.25
X82.0Y-24.75
X82.0Y-27.25
X82.0Y-44.75
X82.0Y-47.25
X82.0Y-64.75
X82.0Y-67.25
X82.0Y-84.75
X83.0Y-7.25
X83.0Y-24.75
X83.0Y-27.25
X83.0Y-44.75
X83.0Y-47.25
X83.0Y-64.75
X83.0Y-67.25
X83.0Y-84.75
X84.0Y-7.25
X84.0Y-24.75
X84.0Y-27.25
X84.0Y-44.75
X84.0Y-47.25
X84.0Y-64.75
X84.0Y-67.25
X84.0Y-84.75
X85.0Y-7.25
X85.0Y-24.75
X85.0Y-27.25
X85.0Y-44.75
X85.0Y-47.25
X85.0Y-64.75
X85.0Y-67.25
X85.0Y-84.75
X86.0Y-7.25
X86.0Y-24.75
X86.0Y-27.25
X86.0Y-44.75
X86.0Y-47.25
X86.0Y-64.75
X86.0Y-67.25
X86.0Y-84.75
X88.75Y-13.0
X88.75Y-14.0
X88.75Y-15.0
X88.75Y-16.0
X88.75Y-17.0
X88.75Y-18.0
X88.75Y-19.0
X88.75Y-33.0
X88.75Y-34.0
X88.75Y-35.0
X88.75Y-36.0
X88.75Y-37.0
X88.75Y-38.0
X88.75Y-39.0
X88.75Y-53.0
X88.75Y-54.0
X88.75Y-55.0
X88.75Y-56.0
X88.75Y-57.0
X88.75Y-58.0
X88.75Y-59.0
X88.75Y-73.0
X88.75Y-74.0
X88.75Y-75.0
X88.75Y-76.0
X88.75Y-77.0
X88.75Y-78.0
X88.75Y-79.0
X91.5Y-7.0
X91.5Y-85.0
X92.5Y-7.0
X92.5Y-85.0
X93.5Y-7.0
X93.5Y-85.0
X94.5Y-7.0
X94.5Y-85.0
X95.5Y-7.0
X95.5Y-85.0
T2
X8.5Y-8.7
X8.5Y-28.7
X8.5Y-48.7
X8.5Y-68.7
X17.5Y-8.7
X17.5Y-28.7
X17.5Y-48.7
X17.5Y-68.7
X22.5Y-8.7
X22.5Y-28.7
X22.5Y-48.7
X22.5Y-68.7
X31.5Y-8.7
X31.5Y-28.7
X31.5Y-48.7
X31.5Y-68.7
X36.5Y-8.7
X36.5Y-28.7
X36.5Y-48.7
X36.5Y-68.7
X45.5Y-8.7
X45.5Y-28.7
X45.5Y-48.7
X45.5Y-68.7
X50.5Y-8.7
X50.5Y-28.7
X50.5Y-48.7
X50.5Y-68.7
X59.5Y-8.7
X59.5Y-28.7
X59.5Y-48.7
X59.5Y-68.7
X64.5Y-8.7
X64.5Y-28.7
X64.5Y-48.7
X64.5Y-68.7
X73.5Y-8.7
X73.5Y-28.7
X73.5Y-48.7
X73.5Y-68.7
X78.5Y-8.7
X78.5Y-28.7
X78.5Y-48.7
X78.5Y-68.7
X87.5Y-8.7
X87.5Y-28.7
X87.5Y-48.7
X87.5Y-68.7
T3
X13.0Y-22.5
X13.0Y-42.5
X13.0Y-62.5
X13.0Y-82.5
X27.0Y-22.5
X27.0Y-42.5
X27.0Y-62.5
X27.0Y-82.5
X41.0Y-22.5
X41.0Y-42.5
X41.0Y-62.5
X41.0Y-82.5
X55.0Y-22.5
X55.0Y-42.5
X55.0Y-62.5
X55.0Y-82.5
X69.0Y-22.5
X69.0Y-42.5
X69.0Y-62.5
X69.0Y-82.5
X83.0Y-22.5
X83.0Y-42.5
X83.0Y-62.5
X83.0Y-82.5
T0
M30
